<svg width="40" height="40" viewBox="0 0 40 40" fill="none" xmlns="http://www.w3.org/2000/svg">
<path d="M6.58311 21.6668L30.1498 21.6668L27.9831 23.8168C27.6693 24.1306 27.493 24.5563 27.493 25.0001C27.493 25.4439 27.6693 25.8696 27.9831 26.1834C28.2969 26.4973 28.7226 26.6736 29.1664 26.6736C29.6103 26.6736 30.0359 26.4973 30.3498 26.1834L35.3498 21.1834C35.506 21.0285 35.63 20.8442 35.7146 20.6411C35.7992 20.438 35.8428 20.2201 35.8428 20.0001C35.8428 19.7801 35.7992 19.5622 35.7146 19.3591C35.63 19.156 35.506 18.9717 35.3498 18.8168L30.3498 13.8168C30.1948 13.6606 30.0105 13.5366 29.8074 13.4519C29.6043 13.3673 29.3865 13.3238 29.1664 13.3238C28.9464 13.3238 28.7286 13.3673 28.5255 13.4519C28.3224 13.5366 28.138 13.6606 27.9831 13.8168C27.8269 13.9717 27.7029 14.156 27.6183 14.3591C27.5337 14.5622 27.4901 14.7801 27.4901 15.0001C27.4901 15.2201 27.5337 15.438 27.6183 15.6411C27.7029 15.8442 27.8269 16.0285 27.9831 16.1834L30.1498 18.3334L6.58311 18.3334C6.16971 18.3536 5.77861 18.5269 5.48594 18.8196C5.19328 19.1123 5.01998 19.5034 4.99977 19.9168V20.0001C4.99924 20.4281 5.16335 20.8398 5.45811 21.1501C5.75286 21.4604 6.15568 21.6454 6.58311 21.6668Z" fill="#193D65"/>
<path d="M6.58334 11.6667L33.4167 11.6667C34.2911 11.6667 35 10.9579 35 10.0834V9.91675C35 9.0423 34.2911 8.33341 33.4167 8.33341L6.58334 8.33341C5.70889 8.33341 5 9.0423 5 9.91675V10.0834C5 10.9579 5.70889 11.6667 6.58334 11.6667Z" fill="#193D65"/>
<path d="M6.58334 31.6667L33.4167 31.6667C34.2911 31.6667 35 30.9579 35 30.0834V29.9167C35 29.0423 34.2911 28.3334 33.4167 28.3334L6.58334 28.3334C5.70889 28.3334 5 29.0423 5 29.9167V30.0834C5 30.9579 5.70889 31.6667 6.58334 31.6667Z" fill="#193D65"/>
</svg>
