<svg width="29" height="31" viewBox="0 0 29 31" fill="none" xmlns="http://www.w3.org/2000/svg">
<path d="M4.885 6.616C4.88685 8.3701 5.58449 10.0518 6.82483 11.2922C8.06517 12.5325 9.7469 13.2301 11.501 13.232C15.149 13.232 18.117 10.265 18.117 6.616C18.117 2.967 15.15 0 11.501 0C9.7469 0.00185297 8.06517 0.699489 6.82483 1.93983C5.58449 3.18017 4.88685 4.8619 4.885 6.616ZM11.5 3C13.494 3 15.116 4.622 15.116 6.616C15.116 8.61 13.494 10.232 11.5 10.232C9.506 10.232 7.885 8.61 7.885 6.616C7.885 4.622 9.507 3 11.5 3ZM0 25.5V27.5C0 29.43 1.57 31 3.5 31H19.5C21.43 31 23 29.43 23 27.5V25.5C23 19.16 17.841 14 11.5 14C5.159 14 0 19.16 0 25.5ZM11.5 17C16.187 17 20 20.813 20 25.5V27.5C20 27.775 19.776 28 19.5 28H3.5C3.36739 28 3.24021 27.9473 3.14645 27.8536C3.05268 27.7598 3 27.6326 3 27.5V25.5C3 20.813 6.813 17 11.5 17ZM25.542 14.849V13.232H27.158C27.5558 13.232 27.9374 13.074 28.2187 12.7927C28.5 12.5114 28.658 12.1298 28.658 11.732C28.658 11.3342 28.5 10.9526 28.2187 10.6713C27.9374 10.39 27.5558 10.232 27.158 10.232H25.542V8.616C25.542 8.21818 25.384 7.83664 25.1027 7.55534C24.8214 7.27404 24.4398 7.116 24.042 7.116C23.6442 7.116 23.2626 7.27404 22.9813 7.55534C22.7 7.83664 22.542 8.21818 22.542 8.616V10.232H20.927C20.5292 10.232 20.1476 10.39 19.8663 10.6713C19.585 10.9526 19.427 11.3342 19.427 11.732C19.427 12.1298 19.585 12.5114 19.8663 12.7927C20.1476 13.074 20.5292 13.232 20.927 13.232H22.542V14.849C22.542 15.2468 22.7 15.6284 22.9813 15.9097C23.2626 16.191 23.6442 16.349 24.042 16.349C24.4398 16.349 24.8214 16.191 25.1027 15.9097C25.384 15.6284 25.542 15.2468 25.542 14.849Z" fill="#193D65"/>
</svg>
