<svg width="30" height="30" viewBox="0 0 30 30" fill="none" xmlns="http://www.w3.org/2000/svg">
<path d="M25.3122 15.7125V14.2781L27.1122 12.7031C27.444 12.4106 27.6617 12.0103 27.7269 11.5728C27.7921 11.1354 27.7006 10.6889 27.4684 10.3125L25.2559 6.56245C25.0915 6.2777 24.8551 6.04119 24.5705 5.87664C24.2858 5.71209 23.9629 5.62529 23.6341 5.62495C23.4303 5.62339 23.2276 5.65506 23.0341 5.7187L20.7559 6.48745C20.3631 6.22523 19.9528 5.99031 19.5278 5.78433L19.0497 3.42183C18.964 2.99021 18.7291 2.60249 18.3864 2.32655C18.0436 2.05061 17.6147 1.90402 17.1747 1.91245H12.7872C12.3472 1.90402 11.9183 2.05061 11.5755 2.32655C11.2327 2.60249 10.9979 2.99021 10.9122 3.42183L10.4341 5.78433C10.0065 5.99119 9.59313 6.22608 9.19656 6.48745L6.96531 5.6812C6.76965 5.63023 6.56704 5.61123 6.36531 5.62495C6.03651 5.62529 5.71357 5.71209 5.4289 5.87664C5.14423 6.04119 4.90784 6.2777 4.74344 6.56245L2.53094 10.3125C2.31211 10.6884 2.2308 11.1287 2.30092 11.558C2.37104 11.9873 2.58824 12.3788 2.91531 12.6656L4.68719 14.2875V15.7218L2.91531 17.2968C2.579 17.5856 2.35586 17.9841 2.2855 18.4218C2.21513 18.8594 2.30209 19.3078 2.53094 19.6875L4.74344 23.4375C4.90784 23.7222 5.14423 23.9587 5.4289 24.1233C5.71357 24.2878 6.03651 24.3746 6.36531 24.375C6.56908 24.3765 6.77174 24.3448 6.96531 24.2812L9.24344 23.5125C9.63623 23.7747 10.0466 24.0096 10.4716 24.2156L10.9497 26.5781C11.0354 27.0097 11.2702 27.3974 11.613 27.6734C11.9558 27.9493 12.3847 28.0959 12.8247 28.0875H17.2497C17.6897 28.0959 18.1186 27.9493 18.4614 27.6734C18.8041 27.3974 19.039 27.0097 19.1247 26.5781L19.6028 24.2156C20.0303 24.0087 20.4437 23.7738 20.8403 23.5125L23.1091 24.2812C23.3026 24.3448 23.5053 24.3765 23.7091 24.375C24.0379 24.3746 24.3608 24.2878 24.6455 24.1233C24.9301 23.9587 25.1665 23.7222 25.3309 23.4375L27.4684 19.6875C27.6873 19.3115 27.7686 18.8712 27.6985 18.4419C27.6283 18.0126 27.4111 17.6211 27.0841 17.3343L25.3122 15.7125ZM23.6341 22.5L20.4184 21.4125C19.6652 22.0494 18.805 22.5477 17.8778 22.8843L17.2122 26.25H12.7872L12.1216 22.9218C11.2016 22.5758 10.3461 22.0783 9.59031 21.45L6.36531 22.5L4.15281 18.75L6.70281 16.5C6.52947 15.5295 6.52947 14.536 6.70281 13.5656L4.15281 11.25L6.36531 7.49995L9.58094 8.58745C10.3342 7.95051 11.1943 7.45217 12.1216 7.11558L12.7872 3.74995H17.2122L17.8778 7.07808C18.7977 7.42412 19.6533 7.92161 20.4091 8.54995L23.6341 7.49995L25.8466 11.25L23.2966 13.5C23.4699 14.4704 23.4699 15.4639 23.2966 16.4343L25.8466 18.75L23.6341 22.5Z" fill="#193D65"/>
<path d="M15 20.625C13.8875 20.625 12.7999 20.2951 11.8749 19.677C10.9499 19.0589 10.2289 18.1804 9.80318 17.1526C9.37744 16.1248 9.26604 14.9938 9.48309 13.9026C9.70013 12.8115 10.2359 11.8092 11.0225 11.0225C11.8092 10.2359 12.8115 9.70013 13.9026 9.48309C14.9938 9.26604 16.1248 9.37744 17.1526 9.80318C18.1804 10.2289 19.0589 10.9499 19.677 11.8749C20.2951 12.7999 20.625 13.8875 20.625 15C20.6325 15.7408 20.4922 16.4756 20.2121 17.1615C19.9321 17.8473 19.5181 18.4704 18.9942 18.9942C18.4704 19.5181 17.8473 19.9321 17.1615 20.2121C16.4756 20.4922 15.7408 20.6325 15 20.625ZM15 11.25C14.5044 11.2385 14.0116 11.3276 13.5514 11.5119C13.0912 11.6963 12.6732 11.9721 12.3226 12.3226C11.9721 12.6732 11.6963 13.0912 11.5119 13.5514C11.3276 14.0116 11.2385 14.5044 11.25 15C11.2385 15.4956 11.3276 15.9884 11.5119 16.4486C11.6963 16.9088 11.9721 17.3268 12.3226 17.6774C12.6732 18.0279 13.0912 18.3037 13.5514 18.4881C14.0116 18.6724 14.5044 18.7615 15 18.75C15.4956 18.7615 15.9884 18.6724 16.4486 18.4881C16.9088 18.3037 17.3268 18.0279 17.6774 17.6774C18.0279 17.3268 18.3037 16.9088 18.4881 16.4486C18.6724 15.9884 18.7615 15.4956 18.75 15C18.7615 14.5044 18.6724 14.0116 18.4881 13.5514C18.3037 13.0912 18.0279 12.6732 17.6774 12.3226C17.3268 11.9721 16.9088 11.6963 16.4486 11.5119C15.9884 11.3276 15.4956 11.2385 15 11.25Z" fill="#193D65"/>
</svg>
