<svg width="26" height="28" viewBox="0 0 26 28" fill="none" xmlns="http://www.w3.org/2000/svg">
<path d="M9.38364 4.81C10.1311 2.6225 13.1536 2.55625 14.0399 4.61125L14.1149 4.81125L15.1236 7.76125C15.3548 8.43779 15.7284 9.05689 16.2192 9.57678C16.71 10.0967 17.3065 10.5053 17.9686 10.775L18.2399 10.8762L21.1899 11.8838C23.3774 12.6313 23.4436 15.6537 21.3899 16.54L21.1899 16.615L18.2399 17.6238C17.5631 17.8548 16.9438 18.2283 16.4237 18.7191C15.9035 19.2099 15.4948 19.8065 15.2249 20.4688L15.1236 20.7387L14.1161 23.69C13.3686 25.8775 10.3461 25.9437 9.46114 23.89L9.38364 23.69L8.37614 20.74C8.14511 20.0632 7.7716 19.4439 7.28081 18.9238C6.79002 18.4037 6.19338 17.9949 5.53114 17.725L5.26114 17.6238L2.31114 16.6162C0.122386 15.8687 0.0561364 12.8462 2.11114 11.9612L2.31114 11.8838L5.26114 10.8762C5.93768 10.6451 6.55677 10.2715 7.07667 9.78071C7.59656 9.28993 8.00515 8.69336 8.27489 8.03125L8.37614 7.76125L9.38364 4.81ZM11.7499 5.6175L10.7424 8.5675C10.3904 9.59913 9.81772 10.5416 9.06431 11.3294C8.31089 12.1171 7.39482 12.7312 6.37989 13.1287L6.06739 13.2425L3.11739 14.25L6.06739 15.2575C7.09902 15.6095 8.04152 16.1822 8.82926 16.9356C9.617 17.689 10.231 18.6051 10.6286 19.62L10.7424 19.9325L11.7499 22.8825L12.7574 19.9325C13.1094 18.9009 13.6821 17.9584 14.4355 17.1706C15.1889 16.3829 16.105 15.7688 17.1199 15.3713L17.4324 15.2588L20.3824 14.25L17.4324 13.2425C16.4008 12.8905 15.4583 12.3178 14.6705 11.5644C13.8828 10.811 13.2687 9.89493 12.8711 8.88L12.7586 8.5675L11.7499 5.6175ZM21.7499 0.5C21.9837 0.5 22.2129 0.565598 22.4113 0.689339C22.6098 0.813081 22.7695 0.990003 22.8724 1.2L22.9324 1.34625L23.3699 2.62875L24.6536 3.06625C24.888 3.14587 25.0934 3.29327 25.2439 3.48977C25.3944 3.68627 25.4832 3.92302 25.499 4.17003C25.5148 4.41703 25.4569 4.66316 25.3327 4.87723C25.2084 5.0913 25.0234 5.26367 24.8011 5.3725L24.6536 5.4325L23.3711 5.87L22.9336 7.15375C22.8539 7.38804 22.7064 7.59337 22.5098 7.74374C22.3132 7.89411 22.0764 7.98274 21.8294 7.9984C21.5824 8.01407 21.3364 7.95606 21.1224 7.83172C20.9084 7.70739 20.7361 7.52233 20.6274 7.3L20.5674 7.15375L20.1299 5.87125L18.8461 5.43375C18.6118 5.35413 18.4063 5.20673 18.2559 5.01023C18.1054 4.81373 18.0166 4.57698 18.0008 4.32997C17.985 4.08297 18.0429 3.83684 18.1671 3.62277C18.2913 3.4087 18.4763 3.23633 18.6986 3.1275L18.8461 3.0675L20.1286 2.63L20.5661 1.34625C20.6504 1.09928 20.8099 0.884886 21.0222 0.733124C21.2345 0.581361 21.4889 0.499843 21.7499 0.5Z" fill="#327BCB"/>
</svg>
