<svg width="30" height="30" viewBox="0 0 30 30" fill="none" xmlns="http://www.w3.org/2000/svg">
<path d="M14.9375 22.5C15.375 22.5 15.745 22.3488 16.0475 22.0463C16.35 21.7438 16.5008 21.3742 16.5 20.9375C16.4992 20.5008 16.3483 20.1308 16.0475 19.8275C15.7467 19.5242 15.3767 19.3733 14.9375 19.375C14.4983 19.3767 14.1288 19.5279 13.8288 19.8288C13.5288 20.1296 13.3775 20.4992 13.375 20.9375C13.3725 21.3758 13.5238 21.7458 13.8288 22.0475C14.1338 22.3492 14.5033 22.5 14.9375 22.5ZM13.8125 17.6875H16.125C16.125 17 16.2033 16.4583 16.36 16.0625C16.5167 15.6667 16.9592 15.125 17.6875 14.4375C18.2292 13.8958 18.6563 13.38 18.9688 12.89C19.2813 12.4 19.4375 11.8117 19.4375 11.125C19.4375 9.95834 19.0104 9.06251 18.1563 8.43751C17.3021 7.81251 16.2917 7.50001 15.125 7.50001C13.9375 7.50001 12.9742 7.81251 12.235 8.43751C11.4958 9.06251 10.98 9.81251 10.6875 10.6875L12.75 11.5C12.8542 11.125 13.0888 10.7188 13.4538 10.2813C13.8188 9.84376 14.3758 9.62501 15.125 9.62501C15.7917 9.62501 16.2917 9.80751 16.625 10.1725C16.9583 10.5375 17.125 10.9383 17.125 11.375C17.125 11.7917 17 12.1825 16.75 12.5475C16.5 12.9125 16.1875 13.2508 15.8125 13.5625C14.8958 14.375 14.3333 14.9896 14.125 15.4063C13.9167 15.8229 13.8125 16.5833 13.8125 17.6875ZM15 27.5C13.2708 27.5 11.6458 27.1721 10.125 26.5163C8.60417 25.8604 7.28125 24.9696 6.15625 23.8438C5.03125 22.7179 4.14084 21.395 3.485 19.875C2.82917 18.355 2.50083 16.73 2.5 15C2.49917 13.27 2.8275 11.645 3.485 10.125C4.1425 8.60501 5.03292 7.28209 6.15625 6.15626C7.27959 5.03042 8.6025 4.14001 10.125 3.48501C11.6475 2.83001 13.2725 2.50167 15 2.50001C16.7275 2.49834 18.3525 2.82667 19.875 3.48501C21.3975 4.14334 22.7204 5.03376 23.8438 6.15626C24.9671 7.27876 25.8579 8.60167 26.5163 10.125C27.1746 11.6483 27.5025 13.2733 27.5 15C27.4975 16.7267 27.1692 18.3517 26.515 19.875C25.8608 21.3983 24.9704 22.7213 23.8438 23.8438C22.7171 24.9663 21.3942 25.8571 19.875 26.5163C18.3558 27.1754 16.7308 27.5033 15 27.5ZM15 25C17.7917 25 20.1563 24.0313 22.0938 22.0938C24.0313 20.1563 25 17.7917 25 15C25 12.2083 24.0313 9.84376 22.0938 7.90626C20.1563 5.96876 17.7917 5.00001 15 5.00001C12.2083 5.00001 9.84375 5.96876 7.90625 7.90626C5.96875 9.84376 5 12.2083 5 15C5 17.7917 5.96875 20.1563 7.90625 22.0938C9.84375 24.0313 12.2083 25 15 25Z" fill="#327BCB"/>
</svg>
