<svg width="30" height="30" viewBox="0 0 30 30" fill="none" xmlns="http://www.w3.org/2000/svg">
<path d="M25.3127 12.5C25.3127 12.2949 25.2723 12.0917 25.1938 11.9021C25.1152 11.7125 25.0002 11.5403 24.8551 11.3952C24.71 11.2501 24.5377 11.135 24.3481 11.0565C24.1586 10.978 23.9554 10.9375 23.7502 10.9375C23.545 10.9375 23.3418 10.978 23.1523 11.0565C22.9627 11.135 22.7904 11.2501 22.6453 11.3952C22.5003 11.5403 22.3852 11.7125 22.3066 11.9021C22.2281 12.0917 22.1877 12.2949 22.1877 12.5H25.3127ZM7.81271 12.5C7.81271 12.0856 7.64809 11.6882 7.35506 11.3952C7.06203 11.1022 6.66461 10.9375 6.25021 10.9375C5.83581 10.9375 5.43838 11.1022 5.14535 11.3952C4.85233 11.6882 4.68771 12.0856 4.68771 12.5H7.81271ZM25.1452 16.105C25.4383 16.3981 25.8357 16.5628 26.2502 16.5628C26.6647 16.5628 27.0621 16.3981 27.3552 16.105C27.6483 15.812 27.8129 15.4145 27.8129 15C27.8129 14.5856 27.6483 14.1881 27.3552 13.895L25.1452 16.105ZM15.0002 3.75005L16.1052 2.64505C15.9601 2.49991 15.7878 2.38478 15.5982 2.30623C15.4086 2.22768 15.2054 2.18726 15.0002 2.18726C14.795 2.18726 14.5918 2.22768 14.4022 2.30623C14.2126 2.38478 14.0403 2.49991 13.8952 2.64505L15.0002 3.75005ZM2.64521 13.895C2.35214 14.1881 2.1875 14.5856 2.1875 15C2.1875 15.4145 2.35214 15.812 2.64521 16.105C2.93827 16.3981 3.33575 16.5628 3.75021 16.5628C4.16466 16.5628 4.56214 16.3981 4.85521 16.105L2.64521 13.895ZM8.75021 27.8125H21.2502V24.6875H8.75021V27.8125ZM25.3127 23.75V12.5H22.1877V23.75H25.3127ZM7.81271 23.75V12.5H4.68771V23.75H7.81271ZM27.3552 13.895L16.1052 2.64505L13.8952 4.85505L25.1452 16.105L27.3552 13.895ZM13.8952 2.64505L2.64521 13.895L4.85521 16.105L16.1052 4.85505L13.8952 2.64505ZM21.2502 27.8125C22.3276 27.8125 23.361 27.3845 24.1228 26.6227C24.8847 25.8608 25.3127 24.8275 25.3127 23.75H22.1877C22.1877 23.9987 22.0889 24.2371 21.9131 24.413C21.7373 24.5888 21.4988 24.6875 21.2502 24.6875V27.8125ZM8.75021 24.6875C8.50157 24.6875 8.26311 24.5888 8.08729 24.413C7.91148 24.2371 7.81271 23.9987 7.81271 23.75H4.68771C4.68771 24.8275 5.11572 25.8608 5.87758 26.6227C6.63945 27.3845 7.67276 27.8125 8.75021 27.8125V24.6875Z" fill="#327BCB"/>
</svg>
