<svg width="864" height="209" viewBox="0 0 864 209" fill="none" xmlns="http://www.w3.org/2000/svg">
<g filter="url(#filter0_d_19_22)">
<path d="M90.8827 67.9999L74.0053 46.9666C70.6431 42.7363 66.7039 39.3852 62.188 36.9134C57.6721 34.4415 52.8552 32.9952 47.7373 32.5744C37.0464 31.6951 27.6914 34.9711 19.6727 42.402C11.6538 49.833 7.23949 59.3248 6.42969 70.8774C6.04003 76.4053 6.6344 81.7671 8.21283 86.9627C9.79125 92.1583 12.2616 96.8713 15.624 101.102L32.3178 122.305L90.8827 67.9999ZM125.755 130.731C126.144 125.203 125.55 119.841 123.972 114.645C122.393 109.45 119.923 104.737 116.56 100.506L99.8665 79.3028L41.3016 133.608L58.1789 154.642C61.5412 158.871 65.4804 162.223 69.9963 164.694C74.5121 167.166 79.3291 168.613 84.447 169.033C95.1379 169.913 104.491 166.634 112.506 159.198C120.52 151.762 124.937 142.273 125.755 130.731Z" fill="url(#paint0_linear_19_22)"/>
</g>
<g filter="url(#filter1_d_19_22)">
<path d="M167.583 145.814V35.3843H191.199V123.417H240.735V145.814H167.583ZM249.946 145.814V64.1583H272.986V145.814H249.946ZM249.946 54.8262V32.2736H272.986V54.8262H249.946ZM293.654 145.814V89.666H284.006V70.8463H293.654V64.1583C293.654 57.3147 294.711 51.4044 296.822 46.4273C299.031 41.4502 302.102 37.6137 306.038 34.9177C310.07 32.1181 314.727 30.7183 320.006 30.7183C323.27 30.7183 326.535 31.133 329.798 31.9625C333.062 32.7921 336.374 33.9845 339.734 35.5398L335.558 54.204C334.118 53.4782 332.439 52.9079 330.518 52.4931C328.598 51.9747 326.823 51.7155 325.19 51.7155C322.406 51.7155 320.294 52.7006 318.854 54.6706C317.414 56.5371 316.694 59.3886 316.694 63.2251V70.8463H334.262V89.666H316.694V145.814H293.654ZM379.746 147.369C373.314 147.369 367.602 146.281 362.61 144.103C357.618 141.822 353.346 138.763 349.794 134.927C346.338 131.091 343.698 126.683 341.874 121.706C340.05 116.625 339.138 111.337 339.138 105.842C339.138 97.9612 340.722 90.8066 343.89 84.3778C347.154 77.8453 351.81 72.609 357.858 68.6688C363.906 64.6249 371.202 62.6029 379.746 62.6029C388.29 62.6029 395.538 64.573 401.49 68.5132C407.538 72.4535 412.146 77.6379 415.314 84.0667C418.482 90.3918 420.066 97.2872 420.066 104.753C420.066 106.205 419.97 107.656 419.778 109.108C419.682 110.456 419.586 111.648 419.49 112.685H363.618C363.906 116.314 364.818 119.373 366.354 121.862C367.986 124.35 370.05 126.269 372.546 127.617C375.042 128.861 377.682 129.483 380.466 129.483C383.922 129.483 387.138 128.602 390.114 126.839C393.186 125.076 395.298 122.692 396.45 119.684L416.034 125.595C414.114 129.846 411.378 133.63 407.826 136.949C404.37 140.163 400.242 142.703 395.442 144.57C390.738 146.436 385.506 147.369 379.746 147.369ZM363.042 97.4427H395.874C395.49 94.021 394.578 91.0658 393.138 88.5772C391.698 85.985 389.778 84.0148 387.378 82.6669C384.978 81.2152 382.338 80.4894 379.458 80.4894C376.482 80.4894 373.794 81.2152 371.394 82.6669C369.09 84.0148 367.218 85.985 365.778 88.5772C364.338 91.0658 363.426 94.021 363.042 97.4427Z" fill="#327BCB"/>
<path d="M516.044 35.3844V145.814H506.108V94.1766H445.484V145.814H435.404V35.3844H445.484V84.5334H506.108V35.3844H516.044ZM570.976 147.369C565.599 147.369 560.608 146.281 556 144.103C551.392 141.822 547.408 138.763 544.048 134.927C540.687 130.986 538.048 126.476 536.128 121.395C534.304 116.314 533.392 110.871 533.392 105.064C533.392 97.4947 534.976 90.5474 538.144 84.2223C541.407 77.8973 545.871 72.8683 551.536 69.1354C557.2 65.299 563.632 63.3807 570.832 63.3807C578.224 63.3807 584.656 65.299 590.128 69.1354C595.695 72.9719 600.064 78.0528 603.232 84.3779C606.4 90.5993 607.984 97.4428 607.984 104.908C607.984 105.738 607.984 106.567 607.984 107.397C607.984 108.123 607.935 108.693 607.84 109.108H543.616C544.096 114.915 545.583 120.099 548.08 124.661C550.672 129.12 553.984 132.697 558.016 135.393C562.143 137.985 566.607 139.282 571.408 139.282C576.304 139.282 580.912 137.934 585.232 135.238C589.647 132.541 592.72 129.016 594.448 124.661L602.944 127.15C601.408 130.986 599.056 134.46 595.888 137.571C592.72 140.682 588.976 143.118 584.656 144.881C580.431 146.54 575.872 147.369 570.976 147.369ZM543.328 101.487H598.768C598.384 95.5764 596.896 90.3918 594.304 85.9332C591.807 81.4746 588.495 78.0009 584.368 75.5124C580.336 72.9202 575.872 71.624 570.976 71.624C566.08 71.624 561.616 72.9202 557.584 75.5124C553.552 78.0009 550.24 81.5264 547.648 86.0888C545.151 90.5474 543.711 95.68 543.328 101.487ZM617.043 122.484C617.043 117.403 618.388 113.048 621.075 109.419C623.763 105.686 627.46 102.835 632.163 100.865C636.964 98.7907 642.483 97.7539 648.723 97.7539C652.372 97.7539 656.163 98.0649 660.099 98.6871C664.036 99.3092 667.539 100.242 670.611 101.487V94.6432C670.611 87.7996 668.739 82.3559 664.995 78.312C661.251 74.2681 656.067 72.2462 649.443 72.2462C645.411 72.2462 641.428 73.0757 637.491 74.7347C633.652 76.2901 629.62 78.6231 625.395 81.7338L621.651 74.2681C626.547 70.6389 631.348 67.9431 636.051 66.1803C640.755 64.3139 645.555 63.3807 650.451 63.3807C659.667 63.3807 666.963 66.2322 672.339 71.9351C677.716 77.638 680.403 85.5185 680.403 95.5764V133.06C680.403 134.512 680.691 135.601 681.267 136.327C681.843 136.949 682.756 137.312 684.003 137.415V145.814C682.947 145.917 682.036 146.022 681.267 146.125C680.499 146.229 679.923 146.229 679.539 146.125C677.14 146.022 675.315 145.192 674.067 143.637C672.82 142.081 672.147 140.423 672.051 138.66L671.907 132.749C668.547 137.415 664.18 141.045 658.803 143.637C653.427 146.125 647.955 147.369 642.387 147.369C637.587 147.369 633.22 146.281 629.283 144.103C625.444 141.822 622.42 138.815 620.211 135.082C618.1 131.246 617.043 127.047 617.043 122.484ZM667.299 128.705C668.356 127.253 669.171 125.853 669.747 124.506C670.323 123.158 670.611 121.965 670.611 120.929V109.108C667.348 107.76 663.939 106.723 660.387 105.997C656.931 105.271 653.427 104.908 649.875 104.908C642.868 104.908 637.203 106.412 632.883 109.419C628.563 112.426 626.403 116.522 626.403 121.706C626.403 124.714 627.123 127.564 628.563 130.261C630.003 132.853 632.115 135.03 634.899 136.793C637.684 138.452 640.947 139.282 644.691 139.282C649.395 139.282 653.763 138.296 657.795 136.327C661.923 134.357 665.091 131.816 667.299 128.705ZM701.992 32.2737H711.784V127.461C711.784 131.505 712.456 134.149 713.8 135.393C715.145 136.638 716.776 137.26 718.696 137.26C720.424 137.26 722.152 137.052 723.88 136.638C725.608 136.223 727.097 135.808 728.344 135.393L730.072 143.948C728.249 144.778 725.992 145.451 723.304 145.97C720.712 146.489 718.457 146.747 716.536 146.747C712.121 146.747 708.568 145.348 705.88 142.548C703.288 139.748 701.992 135.912 701.992 131.038V32.2737ZM776.795 141.926C776.026 142.237 774.827 142.807 773.195 143.637C771.562 144.467 769.595 145.192 767.291 145.814C764.987 146.436 762.49 146.747 759.803 146.747C757.018 146.747 754.379 146.177 751.883 145.036C749.483 143.895 747.562 142.185 746.122 139.904C744.683 137.519 743.963 134.616 743.963 131.194V73.1794H733.595V64.7805H743.963V37.4063H753.755V64.7805H771.035V73.1794H753.755V128.239C753.947 131.142 754.907 133.319 756.635 134.771C758.458 136.223 760.523 136.949 762.827 136.949C765.514 136.949 767.962 136.482 770.171 135.549C772.379 134.512 773.722 133.786 774.203 133.371L776.795 141.926ZM852.101 145.814H842.309V100.553C842.309 91.4288 840.821 84.5853 837.845 80.0229C834.869 75.3568 830.597 73.0238 825.029 73.0238C821.381 73.0238 817.733 74.0607 814.085 76.1345C810.533 78.1046 807.365 80.8525 804.581 84.3779C801.893 87.7996 799.973 91.7399 798.821 96.1985V145.814H789.029V32.2737H798.821V83.1336C801.797 77.1196 805.925 72.3498 811.205 68.8244C816.581 65.1952 822.293 63.3807 828.341 63.3807C832.661 63.3807 836.309 64.2102 839.285 65.8692C842.357 67.5282 844.805 69.965 846.629 73.1794C848.549 76.2901 849.941 79.971 850.805 84.2223C851.669 88.3699 852.101 93.0878 852.101 98.376V145.814Z" fill="#193D65"/>
</g>
<path d="M273.666 176.95C273.427 176.664 273.078 176.367 272.622 176.056C272.167 175.719 271.627 175.408 271.002 175.122C270.378 174.837 269.706 174.604 268.986 174.423C268.266 174.241 267.523 174.15 266.754 174.15C265.075 174.15 263.826 174.487 263.01 175.161C262.195 175.836 261.786 176.769 261.786 177.961C261.786 178.842 262.015 179.542 262.47 180.061C262.926 180.553 263.622 180.968 264.558 181.305C265.494 181.642 266.67 182.005 268.086 182.394C269.814 182.835 271.314 183.366 272.586 183.988C273.859 184.585 274.831 185.388 275.502 186.399C276.174 187.41 276.51 188.745 276.51 190.404C276.51 191.804 276.271 193.009 275.79 194.02C275.31 195.031 274.638 195.861 273.774 196.508C272.91 197.131 271.915 197.597 270.786 197.908C269.658 198.194 268.446 198.336 267.15 198.336C265.878 198.336 264.607 198.194 263.334 197.908C262.087 197.623 260.886 197.208 259.734 196.664C258.606 196.094 257.562 195.406 256.602 194.603L258.438 190.87C258.75 191.207 259.194 191.584 259.77 191.998C260.37 192.387 261.054 192.762 261.822 193.126C262.614 193.489 263.466 193.8 264.378 194.059C265.314 194.292 266.263 194.409 267.222 194.409C268.83 194.409 270.054 194.111 270.894 193.514C271.758 192.892 272.19 192.011 272.19 190.87C272.19 189.937 271.915 189.198 271.362 188.654C270.81 188.084 270.007 187.604 268.95 187.215C267.894 186.826 266.634 186.438 265.17 186.049C263.491 185.557 262.087 185.024 260.958 184.455C259.83 183.858 258.978 183.107 258.402 182.199C257.85 181.266 257.574 180.086 257.574 178.661C257.574 176.847 257.983 175.317 258.798 174.073C259.614 172.803 260.719 171.856 262.11 171.234C263.527 170.586 265.111 170.262 266.862 170.262C268.014 170.262 269.107 170.404 270.138 170.69C271.17 170.949 272.131 171.312 273.018 171.778C273.931 172.245 274.759 172.776 275.502 173.373L273.666 176.95ZM279.835 190.17V177.728H283.795V189.315C283.795 191.129 284.095 192.503 284.695 193.437C285.319 194.344 286.219 194.798 287.395 194.798C288.139 194.798 288.859 194.629 289.555 194.292C290.275 193.956 290.923 193.462 291.499 192.815C292.099 192.14 292.579 191.337 292.939 190.404V177.728H296.899V193.242C296.899 193.734 296.983 194.084 297.151 194.292C297.319 194.5 297.595 194.617 297.979 194.642V198.064C297.571 198.142 297.235 198.194 296.971 198.219C296.707 198.245 296.455 198.258 296.215 198.258C295.495 198.258 294.895 198.05 294.415 197.636C293.935 197.195 293.659 196.639 293.587 195.964L293.515 193.942C292.675 195.42 291.583 196.547 290.239 197.325C288.895 198.077 287.419 198.453 285.811 198.453C283.843 198.453 282.355 197.753 281.347 196.353C280.339 194.953 279.835 192.892 279.835 190.17ZM300.584 192.115C300.584 190.818 300.921 189.69 301.592 188.732C302.289 187.746 303.237 186.995 304.436 186.476C305.637 185.932 307.028 185.66 308.612 185.66C309.453 185.66 310.304 185.724 311.168 185.854C312.057 185.984 312.837 186.191 313.508 186.476V185.193C313.508 183.768 313.112 182.653 312.32 181.849C311.528 181.046 310.389 180.644 308.9 180.644C307.845 180.644 306.848 180.852 305.912 181.266C304.976 181.655 303.981 182.213 302.924 182.938L301.592 180.061C302.841 179.153 304.089 178.48 305.336 178.039C306.609 177.598 307.941 177.378 309.332 177.378C311.852 177.378 313.832 178.103 315.272 179.555C316.737 180.981 317.468 183.016 317.468 185.66V193.242C317.468 193.734 317.54 194.084 317.684 194.292C317.853 194.5 318.129 194.617 318.512 194.642V198.064C318.152 198.142 317.828 198.194 317.54 198.219C317.252 198.245 317.013 198.258 316.82 198.258C315.981 198.258 315.344 198.038 314.912 197.597C314.48 197.156 314.228 196.638 314.156 196.042L314.048 194.875C313.233 196.016 312.189 196.897 310.916 197.519C309.645 198.142 308.36 198.453 307.064 198.453C305.817 198.453 304.701 198.18 303.716 197.636C302.733 197.066 301.965 196.301 301.412 195.342C300.861 194.383 300.584 193.307 300.584 192.115ZM312.572 193.359C312.86 193.022 313.089 192.685 313.256 192.348C313.425 192.011 313.508 191.712 313.508 191.454V189.121C312.837 188.835 312.129 188.628 311.384 188.498C310.641 188.343 309.908 188.265 309.188 188.265C307.748 188.265 306.573 188.576 305.66 189.198C304.773 189.82 304.328 190.676 304.328 191.765C304.328 192.361 304.472 192.931 304.76 193.476C305.073 194.02 305.505 194.461 306.056 194.798C306.632 195.134 307.341 195.303 308.18 195.303C309.044 195.303 309.872 195.122 310.664 194.759C311.456 194.395 312.093 193.929 312.572 193.359ZM346.791 176.95C346.552 176.664 346.203 176.367 345.747 176.056C345.292 175.719 344.752 175.408 344.127 175.122C343.503 174.837 342.831 174.604 342.111 174.423C341.391 174.241 340.648 174.15 339.879 174.15C338.2 174.15 336.951 174.487 336.135 175.161C335.32 175.836 334.911 176.769 334.911 177.961C334.911 178.842 335.14 179.542 335.595 180.061C336.051 180.553 336.747 180.968 337.683 181.305C338.619 181.642 339.795 182.005 341.211 182.394C342.939 182.835 344.439 183.366 345.711 183.988C346.984 184.585 347.956 185.388 348.627 186.399C349.299 187.41 349.635 188.745 349.635 190.404C349.635 191.804 349.396 193.009 348.915 194.02C348.435 195.031 347.763 195.861 346.899 196.508C346.035 197.131 345.04 197.597 343.911 197.908C342.783 198.194 341.571 198.336 340.275 198.336C339.003 198.336 337.732 198.194 336.459 197.908C335.212 197.623 334.011 197.208 332.859 196.664C331.731 196.094 330.687 195.406 329.727 194.603L331.563 190.87C331.875 191.207 332.319 191.584 332.895 191.998C333.495 192.387 334.179 192.762 334.947 193.126C335.739 193.489 336.591 193.8 337.503 194.059C338.439 194.292 339.388 194.409 340.347 194.409C341.955 194.409 343.179 194.111 344.019 193.514C344.883 192.892 345.315 192.011 345.315 190.87C345.315 189.937 345.04 189.198 344.487 188.654C343.935 188.084 343.132 187.604 342.075 187.215C341.019 186.826 339.759 186.438 338.295 186.049C336.616 185.557 335.212 185.024 334.083 184.455C332.955 183.858 332.103 183.107 331.527 182.199C330.975 181.266 330.699 180.086 330.699 178.661C330.699 176.847 331.108 175.317 331.923 174.073C332.739 172.803 333.844 171.856 335.235 171.234C336.652 170.586 338.236 170.262 339.987 170.262C341.139 170.262 342.232 170.404 343.263 170.69C344.295 170.949 345.256 171.312 346.143 171.778C347.056 172.245 347.884 172.776 348.627 173.373L346.791 176.95ZM351.772 192.115C351.772 190.818 352.108 189.69 352.78 188.732C353.476 187.746 354.424 186.995 355.624 186.476C356.824 185.932 358.216 185.66 359.8 185.66C360.64 185.66 361.492 185.724 362.356 185.854C363.244 185.984 364.024 186.191 364.696 186.476V185.193C364.696 183.768 364.3 182.653 363.508 181.849C362.716 181.046 361.576 180.644 360.088 180.644C359.032 180.644 358.036 180.852 357.1 181.266C356.164 181.655 355.168 182.213 354.112 182.938L352.78 180.061C354.028 179.153 355.276 178.48 356.524 178.039C357.796 177.598 359.128 177.378 360.52 177.378C363.04 177.378 365.02 178.103 366.46 179.555C367.924 180.981 368.656 183.016 368.656 185.66V193.242C368.656 193.734 368.728 194.084 368.872 194.292C369.04 194.5 369.316 194.617 369.7 194.642V198.064C369.34 198.142 369.016 198.194 368.728 198.219C368.44 198.245 368.2 198.258 368.008 198.258C367.168 198.258 366.532 198.038 366.1 197.597C365.668 197.156 365.416 196.638 365.344 196.042L365.236 194.875C364.42 196.016 363.376 196.897 362.104 197.519C360.832 198.142 359.548 198.453 358.252 198.453C357.004 198.453 355.888 198.18 354.904 197.636C353.92 197.066 353.152 196.301 352.6 195.342C352.048 194.383 351.772 193.307 351.772 192.115ZM363.76 193.359C364.048 193.022 364.276 192.685 364.444 192.348C364.612 192.011 364.696 191.712 364.696 191.454V189.121C364.024 188.835 363.316 188.628 362.572 188.498C361.828 188.343 361.096 188.265 360.376 188.265C358.936 188.265 357.76 188.576 356.848 189.198C355.96 189.82 355.516 190.676 355.516 191.765C355.516 192.361 355.66 192.931 355.948 193.476C356.26 194.02 356.692 194.461 357.244 194.798C357.82 195.134 358.528 195.303 359.368 195.303C360.232 195.303 361.06 195.122 361.852 194.759C362.644 194.395 363.28 193.929 363.76 193.359ZM373.281 190.17V177.728H377.241V189.315C377.241 191.129 377.54 192.503 378.141 193.437C378.764 194.344 379.664 194.798 380.841 194.798C381.584 194.798 382.304 194.629 383.001 194.292C383.721 193.956 384.369 193.462 384.945 192.815C385.544 192.14 386.025 191.337 386.385 190.404V177.728H390.345V193.242C390.345 193.734 390.428 194.084 390.597 194.292C390.764 194.5 391.04 194.617 391.425 194.642V198.064C391.016 198.142 390.68 198.194 390.417 198.219C390.152 198.245 389.9 198.258 389.661 198.258C388.941 198.258 388.34 198.05 387.861 197.636C387.38 197.195 387.105 196.639 387.033 195.964L386.961 193.942C386.12 195.42 385.028 196.547 383.685 197.325C382.34 198.077 380.864 198.453 379.257 198.453C377.288 198.453 375.801 197.753 374.793 196.353C373.785 194.953 373.281 192.892 373.281 190.17ZM383.145 174.811L380.553 173.956L382.605 169.679H386.385L383.145 174.811ZM394.21 187.915C394.21 185.971 394.57 184.208 395.29 182.627C396.034 181.019 397.042 179.75 398.314 178.816C399.585 177.858 401.05 177.378 402.706 177.378C404.146 177.378 405.442 177.78 406.594 178.583C407.77 179.386 408.682 180.385 409.33 181.577V169.679H413.29V193.242C413.29 193.734 413.373 194.084 413.542 194.292C413.71 194.5 413.985 194.617 414.37 194.642V198.064C413.625 198.194 413.049 198.258 412.642 198.258C411.897 198.258 411.262 198.025 410.734 197.558C410.23 197.092 409.966 196.534 409.942 195.886L409.906 194.37C409.186 195.666 408.214 196.677 406.99 197.403C405.766 198.103 404.494 198.453 403.174 198.453C401.878 198.453 400.678 198.18 399.574 197.636C398.494 197.092 397.546 196.327 396.73 195.342C395.938 194.357 395.314 193.229 394.858 191.959C394.426 190.689 394.21 189.341 394.21 187.915ZM409.33 190.754V185.427C409.066 184.597 408.634 183.858 408.034 183.21C407.458 182.536 406.798 182.005 406.054 181.616C405.334 181.227 404.614 181.033 403.894 181.033C403.054 181.033 402.285 181.227 401.59 181.616C400.917 182.005 400.33 182.524 399.826 183.171C399.346 183.819 398.973 184.558 398.71 185.388C398.446 186.218 398.314 187.085 398.314 187.993C398.314 188.926 398.458 189.807 398.746 190.637C399.034 191.44 399.441 192.167 399.97 192.815C400.521 193.437 401.146 193.929 401.842 194.292C402.562 194.629 403.342 194.798 404.182 194.798C404.71 194.798 405.237 194.694 405.766 194.487C406.317 194.279 406.834 193.994 407.314 193.631C407.818 193.268 408.238 192.84 408.574 192.348C408.934 191.856 409.186 191.324 409.33 190.754ZM426.852 198.453C425.387 198.453 424.055 198.18 422.856 197.636C421.679 197.066 420.66 196.301 419.796 195.342C418.932 194.357 418.259 193.242 417.78 191.998C417.323 190.728 417.096 189.379 417.096 187.954C417.096 186.035 417.503 184.286 418.32 182.705C419.136 181.097 420.275 179.814 421.74 178.855C423.204 177.87 424.919 177.378 426.888 177.378C428.856 177.378 430.548 177.87 431.964 178.855C433.404 179.814 434.52 181.085 435.312 182.666C436.104 184.247 436.5 185.945 436.5 187.76C436.5 188.071 436.488 188.368 436.464 188.654C436.439 188.913 436.416 189.134 436.392 189.315H421.308C421.38 190.507 421.679 191.557 422.208 192.465C422.759 193.346 423.456 194.045 424.296 194.564C425.135 195.056 426.035 195.303 426.996 195.303C428.051 195.303 429.048 195.018 429.984 194.448C430.944 193.878 431.592 193.126 431.928 192.192L435.312 193.242C434.904 194.228 434.279 195.122 433.44 195.925C432.623 196.703 431.651 197.325 430.524 197.792C429.396 198.233 428.172 198.453 426.852 198.453ZM421.2 186.476H432.576C432.504 185.31 432.191 184.286 431.64 183.405C431.111 182.497 430.427 181.797 429.588 181.305C428.771 180.786 427.86 180.527 426.852 180.527C425.868 180.527 424.955 180.786 424.116 181.305C423.299 181.797 422.628 182.497 422.1 183.405C421.571 184.286 421.272 185.31 421.2 186.476ZM439.982 201.836L440.846 197.831H439.55V193.087H443.114V197.831L441.854 201.836H439.982ZM461.106 178.544V198.064H457.074V170.456H460.386L474.858 190.404V170.495H478.926V198.064H475.398L461.106 178.544ZM492.311 198.453C490.823 198.453 489.491 198.18 488.315 197.636C487.138 197.066 486.119 196.289 485.255 195.303C484.415 194.318 483.767 193.203 483.311 191.959C482.854 190.689 482.627 189.341 482.627 187.915C482.627 186.49 482.854 185.141 483.311 183.871C483.767 182.601 484.415 181.486 485.255 180.527C486.119 179.542 487.138 178.777 488.315 178.233C489.514 177.663 490.846 177.378 492.311 177.378C493.775 177.378 495.094 177.663 496.271 178.233C497.47 178.777 498.491 179.542 499.331 180.527C500.195 181.486 500.854 182.601 501.311 183.871C501.767 185.141 501.995 186.49 501.995 187.915C501.995 189.341 501.767 190.689 501.311 191.959C500.854 193.203 500.195 194.318 499.331 195.303C498.491 196.289 497.47 197.066 496.271 197.636C495.094 198.18 493.775 198.453 492.311 198.453ZM486.695 187.954C486.695 189.251 486.947 190.417 487.451 191.454C487.955 192.49 488.627 193.307 489.467 193.903C490.306 194.5 491.255 194.798 492.311 194.798C493.343 194.798 494.279 194.5 495.119 193.903C495.983 193.281 496.667 192.451 497.171 191.415C497.675 190.351 497.927 189.185 497.927 187.915C497.927 186.619 497.675 185.452 497.171 184.416C496.667 183.379 495.983 182.563 495.119 181.966C494.279 181.344 493.343 181.033 492.311 181.033C491.255 181.033 490.306 181.344 489.467 181.966C488.627 182.588 487.955 183.418 487.451 184.455C486.947 185.466 486.695 186.632 486.695 187.954ZM512.203 198.453C510.619 198.453 509.119 198.18 507.703 197.636C506.287 197.066 505.075 196.223 504.067 195.109L505.543 192.231C506.623 193.268 507.703 194.02 508.783 194.487C509.887 194.953 510.979 195.186 512.059 195.186C513.163 195.186 514.063 194.966 514.759 194.525C515.455 194.059 515.803 193.384 515.803 192.503C515.803 191.856 515.623 191.376 515.263 191.065C514.903 190.754 514.375 190.481 513.679 190.248C513.007 190.015 512.191 189.756 511.231 189.471C509.887 189.029 508.759 188.576 507.847 188.11C506.935 187.617 506.251 187.021 505.795 186.321C505.339 185.621 505.111 184.727 505.111 183.638C505.111 182.316 505.423 181.188 506.047 180.255C506.671 179.322 507.535 178.609 508.639 178.116C509.767 177.624 511.063 177.378 512.527 177.378C513.895 177.378 515.155 177.611 516.307 178.078C517.483 178.519 518.515 179.219 519.403 180.177L517.711 183.016C516.871 182.186 516.007 181.577 515.119 181.188C514.255 180.799 513.319 180.605 512.311 180.605C511.735 180.605 511.183 180.683 510.655 180.838C510.127 180.968 509.683 181.227 509.323 181.616C508.987 181.979 508.819 182.497 508.819 183.171C508.819 183.716 508.963 184.157 509.251 184.493C509.539 184.83 509.971 185.116 510.547 185.349C511.123 185.582 511.831 185.841 512.671 186.127C514.135 186.593 515.383 187.06 516.415 187.526C517.447 187.967 518.239 188.551 518.791 189.276C519.367 189.976 519.655 190.948 519.655 192.192C519.655 194.162 518.971 195.705 517.603 196.82C516.259 197.908 514.459 198.453 512.203 198.453ZM529.887 198.453C528.303 198.453 526.802 198.18 525.387 197.636C523.971 197.066 522.759 196.223 521.751 195.109L523.227 192.231C524.307 193.268 525.387 194.02 526.467 194.487C527.571 194.953 528.663 195.186 529.743 195.186C530.847 195.186 531.747 194.966 532.443 194.525C533.138 194.059 533.487 193.384 533.487 192.503C533.487 191.856 533.307 191.376 532.947 191.065C532.587 190.754 532.059 190.481 531.363 190.248C530.69 190.015 529.875 189.756 528.915 189.471C527.571 189.029 526.443 188.576 525.531 188.11C524.619 187.617 523.935 187.021 523.479 186.321C523.023 185.621 522.795 184.727 522.795 183.638C522.795 182.316 523.107 181.188 523.731 180.255C524.355 179.322 525.219 178.609 526.323 178.116C527.451 177.624 528.747 177.378 530.211 177.378C531.579 177.378 532.839 177.611 533.991 178.078C535.167 178.519 536.199 179.219 537.087 180.177L535.395 183.016C534.555 182.186 533.691 181.577 532.803 181.188C531.939 180.799 531.003 180.605 529.995 180.605C529.419 180.605 528.867 180.683 528.339 180.838C527.811 180.968 527.367 181.227 527.007 181.616C526.671 181.979 526.503 182.497 526.503 183.171C526.503 183.716 526.647 184.157 526.935 184.493C527.223 184.83 527.655 185.116 528.231 185.349C528.807 185.582 529.515 185.841 530.355 186.127C531.819 186.593 533.067 187.06 534.099 187.526C535.131 187.967 535.923 188.551 536.475 189.276C537.051 189.976 537.339 190.948 537.339 192.192C537.339 194.162 536.655 195.705 535.287 196.82C533.943 197.908 532.143 198.453 529.887 198.453ZM539.506 192.115C539.506 190.818 539.842 189.69 540.514 188.732C541.21 187.746 542.159 186.995 543.358 186.476C544.558 185.932 545.95 185.66 547.534 185.66C548.374 185.66 549.226 185.724 550.09 185.854C550.979 185.984 551.758 186.191 552.43 186.476V185.193C552.43 183.768 552.034 182.653 551.242 181.849C550.45 181.046 549.31 180.644 547.822 180.644C546.767 180.644 545.77 180.852 544.834 181.266C543.898 181.655 542.902 182.213 541.846 182.938L540.514 180.061C541.763 179.153 543.01 178.48 544.258 178.039C545.53 177.598 546.862 177.378 548.254 177.378C550.774 177.378 552.754 178.103 554.194 179.555C555.659 180.981 556.39 183.016 556.39 185.66V193.242C556.39 193.734 556.462 194.084 556.606 194.292C556.775 194.5 557.05 194.617 557.434 194.642V198.064C557.074 198.142 556.75 198.194 556.462 198.219C556.174 198.245 555.934 198.258 555.742 198.258C554.903 198.258 554.266 198.038 553.834 197.597C553.402 197.156 553.15 196.638 553.078 196.042L552.97 194.875C552.154 196.016 551.11 196.897 549.838 197.519C548.567 198.142 547.282 198.453 545.986 198.453C544.738 198.453 543.622 198.18 542.638 197.636C541.655 197.066 540.886 196.301 540.334 195.342C539.783 194.383 539.506 193.307 539.506 192.115ZM551.494 193.359C551.782 193.022 552.01 192.685 552.178 192.348C552.347 192.011 552.43 191.712 552.43 191.454V189.121C551.758 188.835 551.051 188.628 550.306 188.498C549.562 188.343 548.83 188.265 548.11 188.265C546.67 188.265 545.494 188.576 544.582 189.198C543.694 189.82 543.25 190.676 543.25 191.765C543.25 192.361 543.394 192.931 543.682 193.476C543.995 194.02 544.427 194.461 544.978 194.798C545.554 195.134 546.263 195.303 547.102 195.303C547.966 195.303 548.794 195.122 549.586 194.759C550.378 194.395 551.015 193.929 551.494 193.359ZM588.259 174.306H579.763V198.064H575.695V174.306H567.163V170.456H588.259V174.306ZM595.918 198.453C594.454 198.453 593.122 198.18 591.922 197.636C590.746 197.066 589.726 196.301 588.862 195.342C587.998 194.357 587.326 193.242 586.846 191.998C586.39 190.728 586.162 189.379 586.162 187.954C586.162 186.035 586.57 184.286 587.386 182.705C588.202 181.097 589.342 179.814 590.806 178.855C592.27 177.87 593.986 177.378 595.954 177.378C597.922 177.378 599.614 177.87 601.03 178.855C602.47 179.814 603.586 181.085 604.378 182.666C605.17 184.247 605.566 185.945 605.566 187.76C605.566 188.071 605.554 188.368 605.53 188.654C605.506 188.913 605.482 189.134 605.458 189.315H590.374C590.446 190.507 590.746 191.557 591.274 192.465C591.826 193.346 592.522 194.045 593.362 194.564C594.202 195.056 595.102 195.303 596.062 195.303C597.118 195.303 598.114 195.018 599.05 194.448C600.01 193.878 600.658 193.126 600.994 192.192L604.378 193.242C603.97 194.228 603.346 195.122 602.506 195.925C601.69 196.703 600.718 197.325 599.59 197.792C598.462 198.233 597.238 198.453 595.918 198.453ZM590.266 186.476H601.642C601.57 185.31 601.258 184.286 600.706 183.405C600.178 182.497 599.494 181.797 598.654 181.305C597.838 180.786 596.926 180.527 595.918 180.527C594.934 180.527 594.022 180.786 593.182 181.305C592.366 181.797 591.694 182.497 591.166 183.405C590.638 184.286 590.338 185.31 590.266 186.476ZM617.328 198.453C615.864 198.453 614.532 198.18 613.332 197.636C612.156 197.066 611.136 196.289 610.272 195.303C609.408 194.318 608.736 193.19 608.256 191.92C607.8 190.65 607.572 189.302 607.572 187.876C607.572 185.958 607.968 184.208 608.76 182.627C609.577 181.046 610.704 179.775 612.144 178.816C613.609 177.858 615.337 177.378 617.328 177.378C619.248 177.378 620.917 177.844 622.332 178.778C623.772 179.685 624.828 180.903 625.5 182.433L621.648 183.755C621.216 182.899 620.604 182.238 619.812 181.772C619.045 181.279 618.192 181.033 617.256 181.033C616.201 181.033 615.24 181.33 614.376 181.927C613.537 182.497 612.864 183.301 612.36 184.338C611.881 185.349 611.64 186.529 611.64 187.876C611.64 189.173 611.892 190.351 612.396 191.415C612.9 192.451 613.573 193.281 614.412 193.903C615.276 194.5 616.237 194.798 617.292 194.798C617.94 194.798 618.564 194.681 619.164 194.448C619.788 194.189 620.328 193.851 620.784 193.437C621.241 192.996 621.565 192.517 621.756 191.998L625.644 193.242C625.237 194.253 624.625 195.148 623.808 195.925C623.016 196.703 622.069 197.325 620.964 197.792C619.884 198.233 618.672 198.453 617.328 198.453ZM645.789 198.064H641.829V186.671C641.829 184.779 641.541 183.391 640.965 182.51C640.414 181.629 639.586 181.188 638.481 181.188C637.714 181.188 636.946 181.396 636.177 181.81C635.434 182.225 634.762 182.796 634.161 183.521C633.562 184.221 633.13 185.038 632.865 185.971V198.064H628.905V177.728H632.505V181.81C632.986 180.903 633.61 180.125 634.377 179.477C635.169 178.803 636.058 178.285 637.041 177.922C638.026 177.559 639.07 177.378 640.173 177.378C641.302 177.378 642.225 177.598 642.945 178.039C643.69 178.48 644.266 179.089 644.673 179.866C645.105 180.618 645.393 181.499 645.537 182.51C645.706 183.496 645.789 184.546 645.789 185.66V198.064ZM658.846 198.453C657.358 198.453 656.026 198.18 654.85 197.636C653.674 197.066 652.654 196.289 651.79 195.303C650.95 194.318 650.302 193.203 649.846 191.959C649.39 190.689 649.162 189.341 649.162 187.915C649.162 186.49 649.39 185.141 649.846 183.871C650.302 182.601 650.95 181.486 651.79 180.527C652.654 179.542 653.674 178.777 654.85 178.233C656.05 177.663 657.382 177.378 658.846 177.378C660.31 177.378 661.63 177.663 662.806 178.233C664.006 178.777 665.026 179.542 665.866 180.527C666.73 181.486 667.39 182.601 667.846 183.871C668.302 185.141 668.53 186.49 668.53 187.915C668.53 189.341 668.302 190.689 667.846 191.959C667.39 193.203 666.73 194.318 665.866 195.303C665.026 196.289 664.006 197.066 662.806 197.636C661.63 198.18 660.31 198.453 658.846 198.453ZM653.23 187.954C653.23 189.251 653.482 190.417 653.986 191.454C654.49 192.49 655.162 193.307 656.002 193.903C656.842 194.5 657.79 194.798 658.846 194.798C659.878 194.798 660.814 194.5 661.654 193.903C662.518 193.281 663.202 192.451 663.706 191.415C664.21 190.351 664.462 189.185 664.462 187.915C664.462 186.619 664.21 185.452 663.706 184.416C663.202 183.379 662.518 182.563 661.654 181.966C660.814 181.344 659.878 181.033 658.846 181.033C657.79 181.033 656.842 181.344 656.002 181.966C655.162 182.588 654.49 183.418 653.986 184.455C653.482 185.466 653.23 186.632 653.23 187.954ZM672.078 169.679H676.038V192.192C676.038 193.229 676.182 193.89 676.47 194.175C676.758 194.461 677.118 194.603 677.55 194.603C678.031 194.603 678.474 194.551 678.882 194.448C679.314 194.344 679.687 194.214 679.998 194.059L680.574 197.442C679.998 197.701 679.314 197.922 678.522 198.103C677.73 198.284 677.023 198.375 676.398 198.375C675.054 198.375 673.999 197.973 673.23 197.17C672.462 196.34 672.078 195.2 672.078 193.748V169.679ZM691.33 198.453C689.842 198.453 688.51 198.18 687.334 197.636C686.159 197.066 685.138 196.289 684.274 195.303C683.434 194.318 682.786 193.203 682.33 191.959C681.875 190.689 681.646 189.341 681.646 187.915C681.646 186.49 681.875 185.141 682.33 183.871C682.786 182.601 683.434 181.486 684.274 180.527C685.138 179.542 686.159 178.777 687.334 178.233C688.535 177.663 689.867 177.378 691.33 177.378C692.794 177.378 694.115 177.663 695.29 178.233C696.491 178.777 697.51 179.542 698.35 180.527C699.214 181.486 699.875 182.601 700.33 183.871C700.786 185.141 701.014 186.49 701.014 187.915C701.014 189.341 700.786 190.689 700.33 191.959C699.875 193.203 699.214 194.318 698.35 195.303C697.51 196.289 696.491 197.066 695.29 197.636C694.115 198.18 692.794 198.453 691.33 198.453ZM685.714 187.954C685.714 189.251 685.966 190.417 686.47 191.454C686.974 192.49 687.646 193.307 688.486 193.903C689.327 194.5 690.274 194.798 691.33 194.798C692.362 194.798 693.298 194.5 694.138 193.903C695.002 193.281 695.686 192.451 696.19 191.415C696.694 190.351 696.946 189.185 696.946 187.915C696.946 186.619 696.694 185.452 696.19 184.416C695.686 183.379 695.002 182.563 694.138 181.966C693.298 181.344 692.362 181.033 691.33 181.033C690.274 181.033 689.327 181.344 688.486 181.966C687.646 182.588 686.974 183.418 686.47 184.455C685.966 185.466 685.714 186.632 685.714 187.954ZM711.979 198.258C710.706 198.258 709.543 197.986 708.487 197.442C707.43 196.872 706.519 196.106 705.751 195.148C705.007 194.189 704.419 193.087 703.987 191.842C703.578 190.598 703.375 189.289 703.375 187.915C703.375 186.463 703.591 185.102 704.023 183.832C704.455 182.563 705.054 181.447 705.823 180.488C706.615 179.503 707.538 178.739 708.595 178.194C709.651 177.65 710.827 177.378 712.123 177.378C713.635 177.378 714.954 177.767 716.083 178.544C717.235 179.322 718.183 180.333 718.927 181.577V177.728H722.419V197.481C722.419 199.45 721.974 201.122 721.087 202.497C720.223 203.871 719.035 204.921 717.523 205.646C716.011 206.372 714.306 206.735 712.411 206.735C710.323 206.735 708.595 206.346 707.227 205.568C705.859 204.791 704.694 203.727 703.735 202.38L705.967 200.125C706.687 201.213 707.61 202.043 708.739 202.613C709.891 203.183 711.115 203.469 712.411 203.469C713.491 203.469 714.486 203.249 715.399 202.808C716.335 202.393 717.078 201.732 717.631 200.825C718.183 199.944 718.459 198.828 718.459 197.481V194.37C717.787 195.589 716.862 196.547 715.687 197.247C714.511 197.922 713.275 198.258 711.979 198.258ZM713.275 194.798C713.874 194.798 714.45 194.694 715.003 194.487C715.555 194.253 716.059 193.956 716.515 193.592C716.995 193.203 717.402 192.776 717.739 192.309C718.075 191.817 718.315 191.298 718.459 190.754V185.427C718.147 184.546 717.703 183.78 717.127 183.132C716.551 182.458 715.903 181.94 715.183 181.577C714.463 181.214 713.73 181.033 712.987 181.033C712.123 181.033 711.343 181.241 710.647 181.655C709.975 182.044 709.399 182.575 708.919 183.249C708.438 183.897 708.067 184.636 707.803 185.466C707.538 186.295 707.407 187.151 707.407 188.032C707.407 188.965 707.551 189.834 707.839 190.637C708.15 191.44 708.571 192.167 709.099 192.815C709.626 193.437 710.251 193.929 710.971 194.292C711.691 194.629 712.459 194.798 713.275 194.798ZM727.167 198.064V177.728H731.127V198.064H727.167ZM727.167 174.384V169.679H731.127V174.384H727.167ZM734.518 192.115C734.518 190.818 734.854 189.69 735.526 188.732C736.222 187.746 737.17 186.995 738.37 186.476C739.57 185.932 740.962 185.66 742.546 185.66C743.386 185.66 744.238 185.724 745.102 185.854C745.99 185.984 746.77 186.191 747.442 186.476V185.193C747.442 183.768 747.046 182.653 746.254 181.849C745.462 181.046 744.322 180.644 742.834 180.644C741.778 180.644 740.782 180.852 739.846 181.266C738.91 181.655 737.914 182.213 736.858 182.938L735.526 180.061C736.774 179.153 738.022 178.48 739.27 178.039C740.542 177.598 741.874 177.378 743.266 177.378C745.786 177.378 747.766 178.103 749.206 179.555C750.67 180.981 751.402 183.016 751.402 185.66V193.242C751.402 193.734 751.474 194.084 751.618 194.292C751.786 194.5 752.062 194.617 752.446 194.642V198.064C752.086 198.142 751.762 198.194 751.474 198.219C751.186 198.245 750.946 198.258 750.754 198.258C749.914 198.258 749.278 198.038 748.846 197.597C748.414 197.156 748.162 196.638 748.09 196.042L747.982 194.875C747.166 196.016 746.122 196.897 744.85 197.519C743.578 198.142 742.294 198.453 740.998 198.453C739.75 198.453 738.634 198.18 737.65 197.636C736.666 197.066 735.898 196.301 735.346 195.342C734.794 194.383 734.518 193.307 734.518 192.115ZM746.506 193.359C746.794 193.022 747.022 192.685 747.19 192.348C747.358 192.011 747.442 191.712 747.442 191.454V189.121C746.77 188.835 746.062 188.628 745.318 188.498C744.574 188.343 743.842 188.265 743.122 188.265C741.682 188.265 740.506 188.576 739.594 189.198C738.706 189.82 738.262 190.676 738.262 191.765C738.262 192.361 738.406 192.931 738.694 193.476C739.006 194.02 739.438 194.461 739.99 194.798C740.566 195.134 741.274 195.303 742.114 195.303C742.978 195.303 743.806 195.122 744.598 194.759C745.39 194.395 746.026 193.929 746.506 193.359ZM756.963 188.226V170.184H760.923V188.226H756.963ZM756.963 198.064V192.737H760.923V198.064H756.963Z" fill="url(#paint1_linear_19_22)"/>
<defs>
<filter id="filter0_d_19_22" x="2.31396" y="32.4348" width="127.556" height="144.738" filterUnits="userSpaceOnUse" color-interpolation-filters="sRGB">
<feFlood flood-opacity="0" result="BackgroundImageFix"/>
<feColorMatrix in="SourceAlpha" type="matrix" values="0 0 0 0 0 0 0 0 0 0 0 0 0 0 0 0 0 0 127 0" result="hardAlpha"/>
<feOffset dy="4"/>
<feGaussianBlur stdDeviation="2"/>
<feComposite in2="hardAlpha" operator="out"/>
<feColorMatrix type="matrix" values="0 0 0 0 0 0 0 0 0 0 0 0 0 0 0 0 0 0 0.25 0"/>
<feBlend mode="normal" in2="BackgroundImageFix" result="effect1_dropShadow_19_22"/>
<feBlend mode="normal" in="SourceGraphic" in2="effect1_dropShadow_19_22" result="shape"/>
</filter>
<filter id="filter1_d_19_22" x="163.583" y="30.7183" width="692.517" height="124.651" filterUnits="userSpaceOnUse" color-interpolation-filters="sRGB">
<feFlood flood-opacity="0" result="BackgroundImageFix"/>
<feColorMatrix in="SourceAlpha" type="matrix" values="0 0 0 0 0 0 0 0 0 0 0 0 0 0 0 0 0 0 127 0" result="hardAlpha"/>
<feOffset dy="4"/>
<feGaussianBlur stdDeviation="2"/>
<feComposite in2="hardAlpha" operator="out"/>
<feColorMatrix type="matrix" values="0 0 0 0 0 0 0 0 0 0 0 0 0 0 0 0 0 0 0.25 0"/>
<feBlend mode="normal" in2="BackgroundImageFix" result="effect1_dropShadow_19_22"/>
<feBlend mode="normal" in="SourceGraphic" in2="effect1_dropShadow_19_22" result="shape"/>
</filter>
<linearGradient id="paint0_linear_19_22" x1="65.5414" y1="92.9563" x2="72.2907" y2="100.341" gradientUnits="userSpaceOnUse">
<stop stop-color="#327BCB"/>
<stop offset="1" stop-color="#193D65"/>
</linearGradient>
<linearGradient id="paint1_linear_19_22" x1="255.666" y1="185.305" x2="764.166" y2="185.305" gradientUnits="userSpaceOnUse">
<stop stop-color="#327BCB"/>
<stop offset="1" stop-color="#193D65"/>
</linearGradient>
</defs>
</svg>
