<svg width="30" height="30" viewBox="0 0 30 30" fill="none" xmlns="http://www.w3.org/2000/svg">
<path d="M9.375 16.875H16.875V18.75H9.375V16.875ZM9.375 12.1875H20.625V14.0625H9.375V12.1875ZM9.375 21.5625H14.0625V23.4375H9.375V21.5625Z" fill="#327BCB"/>
<path d="M23.4375 4.6875H20.625V3.75C20.625 3.25272 20.4275 2.77581 20.0758 2.42417C19.7242 2.07254 19.2473 1.875 18.75 1.875H11.25C10.7527 1.875 10.2758 2.07254 9.92418 2.42417C9.57254 2.77581 9.375 3.25272 9.375 3.75V4.6875H6.5625C6.06522 4.6875 5.58831 4.88504 5.23667 5.23667C4.88504 5.58831 4.6875 6.06522 4.6875 6.5625V26.25C4.6875 26.7473 4.88504 27.2242 5.23667 27.5758C5.58831 27.9275 6.06522 28.125 6.5625 28.125H23.4375C23.9348 28.125 24.4117 27.9275 24.7633 27.5758C25.115 27.2242 25.3125 26.7473 25.3125 26.25V6.5625C25.3125 6.06522 25.115 5.58831 24.7633 5.23667C24.4117 4.88504 23.9348 4.6875 23.4375 4.6875ZM11.25 3.75H18.75V7.5H11.25V3.75ZM23.4375 26.25H6.5625V6.5625H9.375V9.375H20.625V6.5625H23.4375V26.25Z" fill="#327BCB"/>
</svg>
