<svg width="30" height="26" viewBox="0 0 30 26" fill="none" xmlns="http://www.w3.org/2000/svg">
<path fill-rule="evenodd" clip-rule="evenodd" d="M18.8571 5.57143C18.8571 7.04906 18.2702 8.46618 17.2253 9.51102C16.1805 10.5559 14.7633 11.1429 13.2857 11.1429C11.8081 11.1429 10.391 10.5559 9.34612 9.51102C8.30127 8.46618 7.71429 7.04906 7.71429 5.57143C7.71429 4.09379 8.30127 2.67668 9.34612 1.63183C10.391 0.586988 11.8081 0 13.2857 0C14.7633 0 16.1805 0.586988 17.2253 1.63183C18.2702 2.67668 18.8571 4.09379 18.8571 5.57143ZM23.9643 13.9286C24.3337 13.9286 24.688 14.0753 24.9492 14.3365C25.2104 14.5977 25.3571 14.952 25.3571 15.3214V18.5714H28.6071C28.9766 18.5714 29.3308 18.7182 29.592 18.9794C29.8533 19.2406 30 19.5949 30 19.9643C30 20.3337 29.8533 20.688 29.592 20.9492C29.3308 21.2104 28.9766 21.3571 28.6071 21.3571H25.3571V24.6071C25.3571 24.9766 25.2104 25.3308 24.9492 25.592C24.688 25.8533 24.3337 26 23.9643 26C23.5949 26 23.2406 25.8533 22.9794 25.592C22.7182 25.3308 22.5714 24.9766 22.5714 24.6071V21.3571H19.3214C18.952 21.3571 18.5977 21.2104 18.3365 20.9492C18.0753 20.688 17.9286 20.3337 17.9286 19.9643C17.9286 19.5949 18.0753 19.2406 18.3365 18.9794C18.5977 18.7182 18.952 18.5714 19.3214 18.5714H22.5714V15.3214C22.5714 14.952 22.7182 14.5977 22.9794 14.3365C23.2406 14.0753 23.5949 13.9286 23.9643 13.9286ZM13.2857 13C16.0584 13 18.5489 14.2164 20.25 16.1441V16.25H19.3214C18.4977 16.2493 17.6971 16.5224 17.0456 17.0264C16.394 17.5304 15.9285 18.2367 15.7222 19.0341C15.516 19.8316 15.5806 20.675 15.9061 21.4317C16.2315 22.1884 16.7992 22.8155 17.52 23.2143H4.92857C4.6823 23.2143 4.44611 23.1165 4.27197 22.9423C4.09783 22.7682 4 22.532 4 22.2857C4 19.823 4.97831 17.4611 6.71972 15.7197C8.46113 13.9783 10.823 13 13.2857 13Z" fill="#327BCB"/>
</svg>
