<svg width="22" height="27" viewBox="0 0 22 27" fill="none" xmlns="http://www.w3.org/2000/svg">
<path d="M9.99982 1.71874C12.0673 1.71874 13.7498 3.41526 13.7498 5.49999L13.7498 11.5046C15.1786 10.214 17.5311 10.2707 18.9011 11.6496C19.6041 12.3587 19.999 13.3203 19.999 14.3229C19.999 15.3256 19.6041 16.2872 18.9011 16.9963L9.99982 25.9717L1.09857 16.9963C0.395557 16.2872 0.00062561 15.3256 0.00062561 14.3229C0.00062561 13.3203 0.395557 12.3587 1.09857 11.6496C2.46607 10.2694 4.82232 10.2127 6.24982 11.5046V5.49999C6.24982 3.41526 7.93232 1.71874 9.99982 1.71874ZM11.2498 17.5823V5.49999C11.2354 5.17546 11.0974 4.86903 10.8646 4.64452C10.6318 4.42 10.322 4.29469 9.99982 4.29469C9.67765 4.29469 9.3679 4.42 9.13505 4.64452C8.90221 4.86903 8.76422 5.17546 8.74982 5.49999V17.5823L4.63358 13.4318C4.39562 13.2024 4.07906 13.0743 3.74982 13.0743C3.42059 13.0743 3.10403 13.2024 2.86607 13.4318C2.63173 13.6682 2.50009 13.9887 2.50009 14.3229C2.50009 14.6571 2.63173 14.9777 2.86607 15.214L9.99982 22.4072L17.1336 15.214C17.3679 14.9777 17.4996 14.6571 17.4996 14.3229C17.4996 13.9887 17.3679 13.6682 17.1336 13.4318C16.8956 13.2024 16.5791 13.0743 16.2498 13.0743C15.9206 13.0743 15.604 13.2024 15.3661 13.4318L11.2498 17.5823Z" fill="#00A025"/>
</svg>
