<svg width="50" height="50" viewBox="0 0 50 50" fill="none" xmlns="http://www.w3.org/2000/svg">
<path d="M39.5837 8.33341H35.417V6.25008C35.417 5.69755 35.1975 5.16764 34.8068 4.77694C34.4161 4.38624 33.8862 4.16675 33.3337 4.16675C32.7811 4.16675 32.2512 4.38624 31.8605 4.77694C31.4698 5.16764 31.2503 5.69755 31.2503 6.25008V8.33341H18.7503V6.25008C18.7503 5.69755 18.5308 5.16764 18.1401 4.77694C17.7494 4.38624 17.2195 4.16675 16.667 4.16675C16.1145 4.16675 15.5846 4.38624 15.1939 4.77694C14.8032 5.16764 14.5837 5.69755 14.5837 6.25008V8.33341H10.417C8.75939 8.33341 7.16968 8.9919 5.99757 10.164C4.82547 11.3361 4.16699 12.9258 4.16699 14.5834V39.5834C4.16699 41.241 4.82547 42.8307 5.99757 44.0028C7.16968 45.1749 8.75939 45.8334 10.417 45.8334H39.5837C41.2413 45.8334 42.831 45.1749 44.0031 44.0028C45.1752 42.8307 45.8337 41.241 45.8337 39.5834V14.5834C45.8337 12.9258 45.1752 11.3361 44.0031 10.164C42.831 8.9919 41.2413 8.33341 39.5837 8.33341ZM41.667 39.5834C41.667 40.1359 41.4475 40.6659 41.0568 41.0566C40.6661 41.4473 40.1362 41.6667 39.5837 41.6667H10.417C9.86446 41.6667 9.33455 41.4473 8.94385 41.0566C8.55315 40.6659 8.33366 40.1359 8.33366 39.5834V25.0001H41.667V39.5834ZM41.667 20.8334H8.33366V14.5834C8.33366 14.0309 8.55315 13.501 8.94385 13.1103C9.33455 12.7196 9.86446 12.5001 10.417 12.5001H14.5837V14.5834C14.5837 15.1359 14.8032 15.6659 15.1939 16.0566C15.5846 16.4473 16.1145 16.6667 16.667 16.6667C17.2195 16.6667 17.7494 16.4473 18.1401 16.0566C18.5308 15.6659 18.7503 15.1359 18.7503 14.5834V12.5001H31.2503V14.5834C31.2503 15.1359 31.4698 15.6659 31.8605 16.0566C32.2512 16.4473 32.7811 16.6667 33.3337 16.6667C33.8862 16.6667 34.4161 16.4473 34.8068 16.0566C35.1975 15.6659 35.417 15.1359 35.417 14.5834V12.5001H39.5837C40.1362 12.5001 40.6661 12.7196 41.0568 13.1103C41.4475 13.501 41.667 14.0309 41.667 14.5834V20.8334Z" fill="#193D65"/>
</svg>
