<svg width="40" height="40" viewBox="0 0 40 40" fill="none" xmlns="http://www.w3.org/2000/svg">
<path d="M19.9999 3.3335C10.8333 3.3335 3.33325 10.8335 3.33325 20.0002C3.33325 29.1668 10.8333 36.6668 19.9999 36.6668C29.1666 36.6668 36.6666 29.1668 36.6666 20.0002C36.6666 10.8335 29.1666 3.3335 19.9999 3.3335ZM26.9999 17.1668L18.9999 25.1668C18.3333 25.8335 17.3333 25.8335 16.6666 25.1668L12.9999 21.5002C12.3333 20.8335 12.3333 19.8335 12.9999 19.1668C13.6666 18.5002 14.6666 18.5002 15.3333 19.1668L17.8333 21.6668L24.6666 14.8335C25.3333 14.1668 26.3333 14.1668 26.9999 14.8335C27.6666 15.5002 27.6666 16.5002 26.9999 17.1668Z" fill="#3E82CE"/>
</svg>
