<svg width="41" height="41" viewBox="0 0 41 41" fill="none" xmlns="http://www.w3.org/2000/svg">
<path d="M31.0061 15.6223L30.4936 31.1344C30.45 32.4629 29.8903 33.7222 28.9335 34.6448C27.9766 35.5675 26.6978 36.0809 25.3686 36.0762H15.6311C14.3027 36.081 13.0247 35.5682 12.068 34.6467C11.1113 33.7251 10.5511 32.4672 10.5061 31.1396L9.99362 15.6223C9.9824 15.2825 10.1066 14.9522 10.339 14.704C10.5713 14.4558 10.8928 14.31 11.2326 14.2988C11.5724 14.2876 11.9027 14.4118 12.151 14.6442C12.3992 14.8765 12.5449 15.198 12.5561 15.5378L13.0686 31.0537C13.0941 31.7161 13.3753 32.3428 13.8532 32.8022C14.331 33.2616 14.9683 33.518 15.6311 33.5175H25.3686C26.0323 33.518 26.6703 33.2609 27.1483 32.8004C27.6263 32.3399 27.9069 31.7119 27.9311 31.0486L28.4436 15.5378C28.4548 15.198 28.6006 14.8765 28.8488 14.6442C29.097 14.4118 29.4273 14.2876 29.7671 14.2988C30.107 14.31 30.4284 14.4558 30.6607 14.704C30.8931 14.9522 31.0173 15.2825 31.0061 15.6223ZM32.7012 10.4602C32.7012 10.8 32.5662 11.1259 32.3259 11.3662C32.0857 11.6064 31.7598 11.7414 31.42 11.7414H9.58105C9.24125 11.7414 8.91535 11.6064 8.67507 11.3662C8.43479 11.1259 8.2998 10.8 8.2998 10.4602C8.2998 10.1204 8.43479 9.79447 8.67507 9.55419C8.91535 9.31391 9.24125 9.17892 9.58105 9.17892H13.5529C13.9589 9.18002 14.3507 9.03003 14.6522 8.75816C14.9537 8.48628 15.1432 8.11196 15.184 7.70805C15.2785 6.76055 15.7224 5.88218 16.4292 5.24409C17.136 4.60599 18.055 4.25388 19.0072 4.25636H21.9925C22.9447 4.25388 23.8638 4.60599 24.5705 5.24409C25.2773 5.88218 25.7212 6.76055 25.8158 7.70805C25.8565 8.11196 26.046 8.48628 26.3475 8.75816C26.649 9.03003 27.0408 9.18002 27.4468 9.17892H31.4187C31.7585 9.17892 32.0844 9.31391 32.3247 9.55419C32.5649 9.79447 32.6999 10.1204 32.6999 10.4602H32.7012ZM17.4082 9.17892H23.5941C23.4257 8.79422 23.3156 8.38658 23.2674 7.96942C23.2356 7.65361 23.0878 7.36081 22.8525 7.14777C22.6172 6.93473 22.3112 6.81661 21.9938 6.8163H19.0085C18.6911 6.81661 18.3851 6.93473 18.1498 7.14777C17.9145 7.36081 17.7667 7.65361 17.7349 7.96942C17.6863 8.38664 17.577 8.79429 17.4082 9.17892ZM18.6984 28.5911V17.6813C18.6984 17.3415 18.5634 17.0156 18.3232 16.7753C18.0829 16.535 17.757 16.4 17.4172 16.4C17.0774 16.4 16.7515 16.535 16.5112 16.7753C16.2709 17.0156 16.1359 17.3415 16.1359 17.6813V28.5963C16.1359 28.9361 16.2709 29.262 16.5112 29.5022C16.7515 29.7425 17.0774 29.8775 17.4172 29.8775C17.757 29.8775 18.0829 29.7425 18.3232 29.5022C18.5634 29.262 18.6984 28.9361 18.6984 28.5963V28.5911ZM24.8664 28.5911V17.6813C24.8664 17.3415 24.7314 17.0156 24.4911 16.7753C24.2508 16.535 23.9249 16.4 23.5851 16.4C23.2453 16.4 22.9194 16.535 22.6791 16.7753C22.4389 17.0156 22.3039 17.3415 22.3039 17.6813V28.5963C22.3039 28.9361 22.4389 29.262 22.6791 29.5022C22.9194 29.7425 23.2453 29.8775 23.5851 29.8775C23.9249 29.8775 24.2508 29.7425 24.4911 29.5022C24.7314 29.262 24.8664 28.9361 24.8664 28.5963V28.5911Z" fill="black"/>
</svg>
