<svg width="240" height="41" viewBox="0 0 240 41" fill="none" xmlns="http://www.w3.org/2000/svg">
<path d="M0 40.3254V1.63481H8.28005V32.4783H25.648V40.3254H0ZM28.8772 40.3254V11.7162H36.9553V40.3254H28.8772ZM28.8772 8.44653V0.544937H36.9553V8.44653H28.8772ZM44.202 40.3254V20.6531H40.8192V14.0594H44.202V11.7162C44.202 9.31843 44.5723 7.24767 45.3127 5.50387C46.087 3.76007 47.1638 2.4159 48.5439 1.47133C49.9576 0.490443 51.5902 0 53.4413 0C54.5855 0 55.7302 0.145302 56.8745 0.43595C58.0187 0.726597 59.18 1.14437 60.3581 1.6893L58.894 8.22855C58.3891 7.97426 57.8002 7.77442 57.1269 7.62912C56.4536 7.44746 55.8312 7.35665 55.2589 7.35665C54.2826 7.35665 53.5423 7.70179 53.0374 8.39203C52.5325 9.04596 52.2801 10.045 52.2801 11.3892V14.0594H58.4396V20.6531H52.2801V40.3254H44.202ZM74.3867 40.8703C72.1317 40.8703 70.1288 40.4888 68.3787 39.7259C66.6285 38.9268 65.1305 37.8548 63.8852 36.5108C62.6735 35.1668 61.7478 33.6226 61.1084 31.8788C60.469 30.0987 60.1491 28.2459 60.1491 26.3205C60.1491 23.5595 60.7045 21.0528 61.8152 18.8003C62.9595 16.5116 64.5921 14.677 66.7126 13.2965C68.8331 11.8796 71.391 11.1712 74.3867 11.1712C77.3825 11.1712 79.9235 11.8615 82.0105 13.242C84.131 14.6225 85.7466 16.4389 86.8573 18.6913C87.9681 20.9074 88.5234 23.3233 88.5234 25.939C88.5234 26.4476 88.4899 26.9562 88.4224 27.4648C88.3889 27.9371 88.355 28.3549 88.3215 28.7182H68.7321C68.8331 29.9897 69.1529 31.0614 69.6914 31.9333C70.2637 32.8052 70.9871 33.4775 71.8623 33.9496C72.7376 34.3855 73.6629 34.6035 74.6392 34.6035C75.8509 34.6035 76.9786 34.2949 78.0219 33.6771C79.0991 33.0594 79.8395 32.2241 80.2434 31.1704L87.1098 33.2412C86.4364 34.7308 85.4772 36.0565 84.2319 37.2192C83.0202 38.3453 81.573 39.2355 79.89 39.8894C78.2408 40.5433 76.4063 40.8703 74.3867 40.8703ZM68.5301 23.3778H80.0414C79.9069 22.1789 79.587 21.1436 79.0821 20.2717C78.5773 19.3635 77.904 18.6732 77.0626 18.2009C76.2213 17.6923 75.2955 17.438 74.2858 17.438C73.2425 17.438 72.2998 17.6923 71.4584 18.2009C70.6506 18.6732 69.9943 19.3635 69.4894 20.2717C68.9845 21.1436 68.6646 22.1789 68.5301 23.3778Z" fill="#327BCB"/>
<path d="M122.175 1.6348V40.3253H118.691V22.2334H97.4353V40.3253H93.9012V1.6348H97.4353V18.8548H118.691V1.6348H122.175ZM141.434 40.8703C139.549 40.8703 137.799 40.4888 136.183 39.7259C134.568 38.9268 133.171 37.8548 131.993 36.5108C130.815 35.1301 129.889 33.5498 129.216 31.7698C128.577 29.9897 128.257 28.0824 128.257 26.048C128.257 23.396 128.812 20.9619 129.923 18.7458C131.067 16.5298 132.632 14.7678 134.618 13.4599C136.604 12.1158 138.859 11.4437 141.384 11.4437C143.976 11.4437 146.231 12.1158 148.149 13.4599C150.101 14.8041 151.633 16.5843 152.744 18.8003C153.854 20.9801 154.41 23.3778 154.41 25.9935C154.41 26.2841 154.41 26.5747 154.41 26.8654C154.41 27.1197 154.393 27.3195 154.359 27.4648H131.841C132.01 29.4993 132.531 31.3157 133.407 32.9142C134.315 34.4762 135.477 35.7296 136.89 36.6743C138.337 37.5824 139.903 38.0366 141.586 38.0366C143.302 38.0366 144.918 37.5645 146.432 36.6198C147.981 35.6751 149.058 34.44 149.664 32.9142L152.643 33.7861C152.104 35.1301 151.279 36.3473 150.169 37.4372C149.058 38.5271 147.745 39.3806 146.231 39.9984C144.749 40.5795 143.151 40.8703 141.434 40.8703ZM131.74 24.7946H151.178C151.044 22.7239 150.522 20.9074 149.613 19.3453C148.738 17.7831 147.577 16.5661 146.13 15.6942C144.716 14.786 143.151 14.3318 141.434 14.3318C139.718 14.3318 138.152 14.786 136.739 15.6942C135.325 16.5661 134.164 17.8013 133.255 19.3998C132.38 20.9619 131.875 22.7602 131.74 24.7946ZM157.586 32.1513C157.586 30.3712 158.057 28.8453 159 27.5738C159.942 26.266 161.238 25.2669 162.887 24.5767C164.57 23.8501 166.505 23.4868 168.693 23.4868C169.973 23.4868 171.302 23.5958 172.682 23.8137C174.062 24.0317 175.29 24.3587 176.368 24.7946V22.3969C176.368 19.9992 175.711 18.0919 174.399 16.6751C173.086 15.2582 171.268 14.5498 168.946 14.5498C167.532 14.5498 166.135 14.8405 164.755 15.4217C163.409 15.9666 161.995 16.7841 160.514 17.8739L159.202 15.2582C160.918 13.9867 162.601 13.0422 164.25 12.4246C165.9 11.7706 167.583 11.4437 169.299 11.4437C172.531 11.4437 175.088 12.4427 176.973 14.4408C178.858 16.4389 179.801 19.2 179.801 22.7239V35.8569C179.801 36.3656 179.902 36.7471 180.104 37.0012C180.306 37.2192 180.626 37.3465 181.063 37.3827V40.3253C180.693 40.3615 180.373 40.3981 180.104 40.4343C179.834 40.4705 179.632 40.4705 179.498 40.4343C178.657 40.3981 178.017 40.1074 177.579 39.5624C177.142 39.0175 176.906 38.4364 176.873 37.8186L176.822 35.7479C175.644 37.3827 174.113 38.6543 172.228 39.5624C170.343 40.4343 168.424 40.8703 166.472 40.8703C164.789 40.8703 163.258 40.4888 161.878 39.7259C160.531 38.9268 159.471 37.8731 158.697 36.5653C157.956 35.2212 157.586 33.7499 157.586 32.1513ZM175.206 34.331C175.577 33.8223 175.863 33.3318 176.065 32.8597C176.267 32.3876 176.368 31.9695 176.368 31.6063V27.4648C175.223 26.9926 174.028 26.6292 172.783 26.3749C171.571 26.1207 170.343 25.9935 169.097 25.9935C166.64 25.9935 164.654 26.5202 163.14 27.5738C161.625 28.6274 160.868 30.0623 160.868 31.8788C160.868 32.9325 161.12 33.9313 161.625 34.876C162.13 35.7841 162.87 36.547 163.847 37.1647C164.823 37.7458 165.967 38.0366 167.28 38.0366C168.929 38.0366 170.46 37.6913 171.874 37.0012C173.321 36.3111 174.432 35.4209 175.206 34.331ZM187.37 0.544922H190.803V33.8951C190.803 35.3119 191.039 36.2383 191.51 36.6743C191.981 37.1102 192.553 37.3282 193.227 37.3282C193.833 37.3282 194.438 37.2554 195.044 37.1102C195.65 36.965 196.172 36.8194 196.609 36.6743L197.215 39.6714C196.576 39.9622 195.785 40.198 194.842 40.3798C193.934 40.5616 193.143 40.6523 192.469 40.6523C190.921 40.6523 189.676 40.1619 188.733 39.181C187.824 38.2001 187.37 36.856 187.37 35.1484V0.544922ZM213.597 38.963C213.327 39.072 212.907 39.2717 212.334 39.5624C211.762 39.8532 211.072 40.1074 210.264 40.3253C209.457 40.5433 208.581 40.6523 207.639 40.6523C206.663 40.6523 205.738 40.4526 204.862 40.0529C204.021 39.6531 203.348 39.0537 202.843 38.2546C202.338 37.4189 202.085 36.4018 202.085 35.2029V14.8768H198.45V11.9341H202.085V2.34322H205.519V11.9341H211.577V14.8768H205.519V34.1676C205.586 35.1846 205.923 35.9475 206.528 36.4563C207.168 36.965 207.892 37.2192 208.699 37.2192C209.642 37.2192 210.5 37.0557 211.274 36.7288C212.049 36.3656 212.519 36.111 212.688 35.9658L213.597 38.963ZM240 40.3253H236.567V24.4677C236.567 21.2707 236.045 18.873 235.002 17.2745C233.958 15.6397 232.46 14.8223 230.508 14.8223C229.229 14.8223 227.95 15.1856 226.671 15.9122C225.426 16.6024 224.315 17.5651 223.339 18.8003C222.397 19.9992 221.723 21.3797 221.319 22.9418V40.3253H217.886V0.544922H221.319V18.3644C222.363 16.2573 223.81 14.5861 225.661 13.3509C227.546 12.0794 229.549 11.4437 231.669 11.4437C233.184 11.4437 234.463 11.7343 235.507 12.3156C236.584 12.8968 237.442 13.7506 238.081 14.8768C238.755 15.9666 239.243 17.2563 239.546 18.7458C239.849 20.199 240 21.852 240 23.7048V40.3253Z" fill="#193D65"/>
</svg>
