<svg width="864" height="209" viewBox="0 0 864 209" fill="none" xmlns="http://www.w3.org/2000/svg">
<g filter="url(#filter0_d_265_18)">
<path d="M167.583 145.814V35.3843H191.199V123.417H240.735V145.814H167.583ZM249.946 145.814V64.1583H272.986V145.814H249.946ZM249.946 54.8262V32.2736H272.986V54.8262H249.946ZM293.654 145.814V89.666H284.006V70.8463H293.654V64.1583C293.654 57.3147 294.711 51.4044 296.822 46.4273C299.031 41.4502 302.102 37.6137 306.038 34.9177C310.07 32.1181 314.727 30.7183 320.006 30.7183C323.27 30.7183 326.535 31.133 329.798 31.9625C333.062 32.7921 336.374 33.9845 339.734 35.5398L335.558 54.204C334.118 53.4782 332.439 52.9079 330.518 52.4931C328.598 51.9747 326.823 51.7155 325.19 51.7155C322.406 51.7155 320.294 52.7006 318.854 54.6706C317.414 56.5371 316.694 59.3886 316.694 63.2251V70.8463H334.262V89.666H316.694V145.814H293.654ZM379.746 147.369C373.314 147.369 367.602 146.281 362.61 144.103C357.618 141.822 353.346 138.763 349.794 134.927C346.338 131.091 343.698 126.683 341.874 121.706C340.05 116.625 339.138 111.337 339.138 105.842C339.138 97.9612 340.722 90.8066 343.89 84.3778C347.154 77.8453 351.81 72.609 357.858 68.6688C363.906 64.6249 371.202 62.6029 379.746 62.6029C388.29 62.6029 395.538 64.573 401.49 68.5132C407.538 72.4535 412.146 77.6379 415.314 84.0667C418.482 90.3918 420.066 97.2872 420.066 104.753C420.066 106.205 419.97 107.656 419.778 109.108C419.682 110.456 419.586 111.648 419.49 112.685H363.618C363.906 116.314 364.818 119.373 366.354 121.862C367.986 124.35 370.05 126.269 372.546 127.617C375.042 128.861 377.682 129.483 380.466 129.483C383.922 129.483 387.138 128.602 390.114 126.839C393.186 125.076 395.298 122.692 396.45 119.684L416.034 125.595C414.114 129.846 411.378 133.63 407.826 136.949C404.37 140.163 400.242 142.703 395.442 144.57C390.738 146.436 385.506 147.369 379.746 147.369ZM363.042 97.4427H395.874C395.49 94.021 394.578 91.0658 393.138 88.5772C391.698 85.985 389.778 84.0148 387.378 82.6669C384.978 81.2152 382.338 80.4894 379.458 80.4894C376.482 80.4894 373.794 81.2152 371.394 82.6669C369.09 84.0148 367.218 85.985 365.778 88.5772C364.338 91.0658 363.426 94.021 363.042 97.4427Z" fill="#327BCB"/>
<path d="M516.044 35.3844V145.814H506.108V94.1766H445.484V145.814H435.404V35.3844H445.484V84.5334H506.108V35.3844H516.044ZM570.976 147.369C565.599 147.369 560.608 146.281 556 144.103C551.392 141.822 547.408 138.763 544.048 134.927C540.687 130.986 538.048 126.476 536.128 121.395C534.304 116.314 533.392 110.871 533.392 105.064C533.392 97.4947 534.976 90.5474 538.144 84.2223C541.407 77.8973 545.871 72.8683 551.536 69.1354C557.2 65.299 563.632 63.3807 570.832 63.3807C578.224 63.3807 584.656 65.299 590.128 69.1354C595.695 72.9719 600.064 78.0528 603.232 84.3779C606.4 90.5993 607.984 97.4428 607.984 104.908C607.984 105.738 607.984 106.567 607.984 107.397C607.984 108.123 607.935 108.693 607.84 109.108H543.616C544.096 114.915 545.583 120.099 548.08 124.661C550.672 129.12 553.984 132.697 558.016 135.393C562.143 137.985 566.607 139.282 571.408 139.282C576.304 139.282 580.912 137.934 585.232 135.238C589.647 132.541 592.72 129.016 594.448 124.661L602.944 127.15C601.408 130.986 599.056 134.46 595.888 137.571C592.72 140.682 588.976 143.118 584.656 144.881C580.431 146.54 575.872 147.369 570.976 147.369ZM543.328 101.487H598.768C598.384 95.5764 596.896 90.3918 594.304 85.9332C591.807 81.4746 588.495 78.0009 584.368 75.5124C580.336 72.9202 575.872 71.624 570.976 71.624C566.08 71.624 561.616 72.9202 557.584 75.5124C553.552 78.0009 550.24 81.5264 547.648 86.0888C545.151 90.5474 543.711 95.68 543.328 101.487ZM617.043 122.484C617.043 117.403 618.388 113.048 621.075 109.419C623.763 105.686 627.46 102.835 632.163 100.865C636.964 98.7907 642.483 97.7539 648.723 97.7539C652.372 97.7539 656.163 98.0649 660.099 98.6871C664.036 99.3092 667.539 100.242 670.611 101.487V94.6432C670.611 87.7996 668.739 82.3559 664.995 78.312C661.251 74.2681 656.067 72.2462 649.443 72.2462C645.411 72.2462 641.428 73.0757 637.491 74.7347C633.652 76.2901 629.62 78.6231 625.395 81.7338L621.651 74.2681C626.547 70.6389 631.348 67.9431 636.051 66.1803C640.755 64.3139 645.555 63.3807 650.451 63.3807C659.667 63.3807 666.963 66.2322 672.339 71.9351C677.716 77.638 680.403 85.5185 680.403 95.5764V133.06C680.403 134.512 680.691 135.601 681.267 136.327C681.843 136.949 682.756 137.312 684.003 137.415V145.814C682.947 145.917 682.036 146.022 681.267 146.125C680.499 146.228 679.923 146.228 679.539 146.125C677.14 146.022 675.315 145.192 674.067 143.637C672.82 142.081 672.147 140.423 672.051 138.66L671.907 132.749C668.547 137.415 664.18 141.045 658.803 143.637C653.427 146.125 647.955 147.369 642.387 147.369C637.587 147.369 633.22 146.281 629.283 144.103C625.444 141.822 622.42 138.815 620.211 135.082C618.1 131.246 617.043 127.047 617.043 122.484ZM667.299 128.705C668.356 127.253 669.171 125.853 669.747 124.506C670.323 123.158 670.611 121.965 670.611 120.929V109.108C667.348 107.76 663.939 106.723 660.387 105.997C656.931 105.271 653.427 104.908 649.875 104.908C642.868 104.908 637.203 106.412 632.883 109.419C628.563 112.426 626.403 116.522 626.403 121.706C626.403 124.714 627.123 127.564 628.563 130.261C630.003 132.852 632.115 135.03 634.899 136.793C637.684 138.452 640.947 139.282 644.691 139.282C649.395 139.282 653.763 138.296 657.795 136.327C661.923 134.357 665.091 131.816 667.299 128.705ZM701.992 32.2737H711.784V127.461C711.784 131.505 712.456 134.149 713.8 135.393C715.145 136.638 716.776 137.26 718.696 137.26C720.424 137.26 722.152 137.052 723.88 136.638C725.608 136.223 727.096 135.808 728.344 135.393L730.072 143.948C728.248 144.778 725.992 145.451 723.304 145.97C720.712 146.489 718.457 146.747 716.536 146.747C712.121 146.747 708.568 145.348 705.88 142.548C703.288 139.748 701.992 135.912 701.992 131.038V32.2737ZM776.794 141.926C776.026 142.237 774.827 142.807 773.194 143.637C771.562 144.467 769.594 145.192 767.29 145.814C764.986 146.436 762.49 146.747 759.802 146.747C757.018 146.747 754.379 146.177 751.883 145.036C749.483 143.895 747.562 142.185 746.122 139.904C744.682 137.519 743.962 134.616 743.962 131.194V73.1794H733.594V64.7805H743.962V37.4063H753.755V64.7805H771.035V73.1794H753.755V128.239C753.947 131.142 754.907 133.319 756.635 134.771C758.458 136.223 760.522 136.949 762.826 136.949C765.514 136.949 767.962 136.482 770.17 135.549C772.379 134.512 773.722 133.786 774.202 133.371L776.794 141.926ZM852.101 145.814H842.309V100.553C842.309 91.4288 840.82 84.5853 837.845 80.0229C834.869 75.3569 830.596 73.0238 825.029 73.0238C821.38 73.0238 817.733 74.0607 814.085 76.1345C810.533 78.1046 807.365 80.8525 804.581 84.3779C801.893 87.7996 799.973 91.7399 798.821 96.1985V145.814H789.029V32.2737H798.821V83.1336C801.796 77.1196 805.925 72.3498 811.205 68.8244C816.581 65.1952 822.293 63.3807 828.341 63.3807C832.661 63.3807 836.309 64.2102 839.285 65.8692C842.357 67.5282 844.805 69.965 846.629 73.1794C848.549 76.2901 849.941 79.971 850.805 84.2223C851.669 88.3699 852.101 93.0878 852.101 98.376V145.814Z" fill="#193D65"/>
</g>
<defs>
<filter id="filter0_d_265_18" x="163.583" y="30.7183" width="692.517" height="124.651" filterUnits="userSpaceOnUse" color-interpolation-filters="sRGB">
<feFlood flood-opacity="0" result="BackgroundImageFix"/>
<feColorMatrix in="SourceAlpha" type="matrix" values="0 0 0 0 0 0 0 0 0 0 0 0 0 0 0 0 0 0 127 0" result="hardAlpha"/>
<feOffset dy="4"/>
<feGaussianBlur stdDeviation="2"/>
<feComposite in2="hardAlpha" operator="out"/>
<feColorMatrix type="matrix" values="0 0 0 0 0 0 0 0 0 0 0 0 0 0 0 0 0 0 0.25 0"/>
<feBlend mode="normal" in2="BackgroundImageFix" result="effect1_dropShadow_265_18"/>
<feBlend mode="normal" in="SourceGraphic" in2="effect1_dropShadow_265_18" result="shape"/>
</filter>
</defs>
</svg>
