<svg width="34" height="43" viewBox="0 0 34 43" fill="none" xmlns="http://www.w3.org/2000/svg">
<path d="M17 0C20.515 0 23.3755 3.0079 23.3755 6.70408L23.3755 17.3502C25.8046 15.0618 29.8042 15.1624 32.1333 17.6072C33.3286 18.8644 34 20.5693 34 22.347C34 24.1246 33.3286 25.8295 32.1333 27.0867L17 43L1.86666 27.0867C0.67144 25.8295 0 24.1246 0 22.347C0 20.5693 0.67144 18.8644 1.86666 17.6072C4.1916 15.1602 8.19755 15.0596 10.6245 17.3502V6.70408C10.6245 3.0079 13.485 0 17 0ZM19.1252 28.1259L19.1252 6.70408C19.1007 6.12869 18.8661 5.58541 18.4702 5.18734C18.0744 4.78928 17.5477 4.56712 17 4.56712C16.4523 4.56712 15.9256 4.78928 15.5298 5.18734C15.1339 5.58541 14.8993 6.12869 14.8748 6.70408V28.1259L7.87665 20.767C7.47208 20.3602 6.9339 20.1332 6.37415 20.1332C5.8144 20.1332 5.27621 20.3602 4.87165 20.767C4.47324 21.1861 4.24943 21.7544 4.24943 22.347C4.24943 22.9395 4.47324 23.5078 4.87165 23.9269L17 36.6803L29.1283 23.9269C29.5268 23.5078 29.7506 22.9395 29.7506 22.347C29.7506 21.7544 29.5268 21.1861 29.1283 20.767C28.7238 20.3602 28.1856 20.1332 27.6259 20.1332C27.0661 20.1332 26.5279 20.3602 26.1234 20.767L19.1252 28.1259Z" fill="#C01333"/>
</svg>
