<svg width="34" height="34" viewBox="0 0 34 34" fill="none" xmlns="http://www.w3.org/2000/svg">
<path d="M21.624 11.543L14.331 18.853L11.526 16.048C11.3736 15.87 11.1861 15.7255 10.9752 15.6235C10.7642 15.5214 10.5345 15.4641 10.3004 15.455C10.0663 15.446 9.83281 15.4854 9.61466 15.5709C9.3965 15.6564 9.19837 15.786 9.0327 15.9517C8.86703 16.1174 8.73739 16.3155 8.65192 16.5336C8.56646 16.7518 8.52701 16.9853 8.53605 17.2194C8.54509 17.4535 8.60243 17.6832 8.70447 17.8941C8.80651 18.1051 8.95105 18.2926 9.12901 18.445L13.124 22.457C13.2829 22.6146 13.4712 22.7392 13.6784 22.8238C13.8855 22.9084 14.1073 22.9513 14.331 22.95C14.777 22.9481 15.2044 22.7711 15.521 22.457L24.021 13.957C24.1803 13.799 24.3068 13.6109 24.3931 13.4038C24.4794 13.1966 24.5239 12.9744 24.5239 12.75C24.5239 12.5256 24.4794 12.3034 24.3931 12.0962C24.3068 11.8891 24.1803 11.701 24.021 11.543C23.7025 11.2264 23.2716 11.0486 22.8225 11.0486C22.3734 11.0486 21.9425 11.2264 21.624 11.543ZM17 0C13.6377 0 10.3509 0.997032 7.55531 2.86502C4.75968 4.733 2.58074 7.38804 1.29406 10.4944C0.00736583 13.6007 -0.329291 17.0189 0.326658 20.3165C0.982606 23.6142 2.6017 26.6433 4.97919 29.0208C7.35668 31.3983 10.3858 33.0174 13.6835 33.6733C16.9811 34.3293 20.3993 33.9926 23.5056 32.7059C26.612 31.4193 29.267 29.2403 31.135 26.4447C33.003 23.6491 34 20.3623 34 17C34 14.7675 33.5603 12.5569 32.706 10.4944C31.8516 8.43184 30.5994 6.55778 29.0208 4.97918C27.4422 3.40059 25.5682 2.14838 23.5056 1.29405C21.4431 0.439718 19.2325 0 17 0ZM17 30.6C14.3102 30.6 11.6808 29.8024 9.44425 28.308C7.20774 26.8136 5.4646 24.6896 4.43525 22.2045C3.40589 19.7194 3.13657 16.9849 3.66133 14.3468C4.18609 11.7086 5.48136 9.28534 7.38335 7.38335C9.28535 5.48135 11.7086 4.18608 14.3468 3.66132C16.9849 3.13656 19.7194 3.40589 22.2045 4.43524C24.6896 5.46459 26.8136 7.20773 28.308 9.44424C29.8024 11.6807 30.6 14.3102 30.6 17C30.6 20.6069 29.1672 24.0662 26.6167 26.6166C24.0662 29.1671 20.6069 30.6 17 30.6Z" fill="#3E82CE"/>
</svg>
