<svg width="34" height="43" viewBox="0 0 34 43" fill="none" xmlns="http://www.w3.org/2000/svg">
<path d="M17 43C13.485 43 10.6245 39.9921 10.6245 36.2959V25.6498C8.19542 27.9382 4.19585 27.8376 1.86666 25.3928C0.671439 24.1356 0 22.4307 0 20.653C0 18.8754 0.671439 17.1705 1.86666 15.9133L17 0L32.1333 15.9133C33.3286 17.1705 34 18.8754 34 20.653C34 22.4307 33.3286 24.1356 32.1333 25.3928C29.8084 27.8398 25.8025 27.9404 23.3755 25.6498V36.2959C23.3755 39.9921 20.515 43 17 43ZM14.8748 14.8741V36.2959C14.8993 36.8713 15.1339 37.4146 15.5298 37.8127C15.9256 38.2107 16.4523 38.4329 17 38.4329C17.5477 38.4329 18.0744 38.2107 18.4702 37.8127C18.8661 37.4146 19.1007 36.8713 19.1252 36.2959V14.8741L26.1234 22.233C26.5279 22.6398 27.0661 22.8668 27.6259 22.8668C28.1856 22.8668 28.7238 22.6398 29.1283 22.233C29.5268 21.8139 29.7506 21.2456 29.7506 20.653C29.7506 20.0605 29.5268 19.4922 29.1283 19.0731L17 6.31972L4.87165 19.0731C4.47325 19.4922 4.24943 20.0605 4.24943 20.653C4.24943 21.2456 4.47325 21.8139 4.87165 22.233C5.27622 22.6398 5.8144 22.8668 6.37415 22.8668C6.9339 22.8668 7.47208 22.6398 7.87664 22.233L14.8748 14.8741Z" fill="#3ABB5D"/>
</svg>
