<svg width="28" height="26" viewBox="0 0 28 26" fill="none" xmlns="http://www.w3.org/2000/svg">
<path d="M16.4657 12.9986L27.4827 2.78368C27.812 2.47787 27.997 2.06311 27.997 1.63064C27.997 1.19817 27.812 0.783408 27.4827 0.477604C27.1534 0.171799 26.7068 0 26.2411 0C25.7754 0 25.3288 0.171799 24.9995 0.477604L14 10.7088L3.00047 0.477604C2.67118 0.171799 2.22456 3.83969e-07 1.75887 3.87191e-07C1.29318 3.90413e-07 0.846565 0.171799 0.517272 0.477604C0.187979 0.783408 0.00298481 1.19817 0.0029848 1.63064C0.0029848 2.06311 0.187979 2.47787 0.517272 2.78368L11.5343 12.9986L0.517272 23.2136C0.353366 23.3645 0.223271 23.5441 0.13449 23.742C0.0457092 23.9399 0 24.1522 0 24.3666C0 24.581 0.0457092 24.7932 0.13449 24.9911C0.223271 25.189 0.353366 25.3687 0.517272 25.5196C0.67984 25.6718 0.873251 25.7927 1.08635 25.8751C1.29945 25.9576 1.52802 26 1.75887 26C1.98973 26 2.2183 25.9576 2.43139 25.8751C2.64449 25.7927 2.83791 25.6718 3.00047 25.5196L14 15.2884L24.9995 25.5196C25.1621 25.6718 25.3555 25.7927 25.5686 25.8751C25.7817 25.9576 26.0103 26 26.2411 26C26.472 26 26.7006 25.9576 26.9137 25.8751C27.1267 25.7927 27.3202 25.6718 27.4827 25.5196C27.6466 25.3687 27.7767 25.189 27.8655 24.9911C27.9543 24.7932 28 24.581 28 24.3666C28 24.1522 27.9543 23.9399 27.8655 23.742C27.7767 23.5441 27.6466 23.3645 27.4827 23.2136L16.4657 12.9986Z" fill="#1F2B43"/>
</svg>
