<svg width="525" height="525" viewBox="0 0 525 525" fill="none" xmlns="http://www.w3.org/2000/svg">
<g clip-path="url(#clip0_51_129)">
<path opacity="0.2" d="M509.46 400.085L284.193 533.251C280.942 534.946 277.345 535.83 273.698 535.83C270.05 535.83 266.453 534.946 263.202 533.251L37.9845 400.101C35.0767 398.427 33.6229 396.167 33.6229 393.891C33.6616 392.989 33.887 392.107 34.2842 391.302C34.6813 390.496 35.241 389.787 35.9262 389.22C36.5482 388.627 37.2395 388.116 37.9845 387.697L263.251 254.564C266.503 252.871 270.099 251.989 273.747 251.989C277.394 251.989 280.99 252.871 284.242 254.564L509.46 387.663C515.242 391.112 515.242 396.686 509.46 400.085Z" fill="black"/>
<path d="M273.722 471.933V516.796C270.084 516.878 266.486 516.008 263.267 514.268L37.9845 381.068C35.0767 379.394 33.6229 377.101 33.6229 374.857V336.054C33.6593 335.15 33.8837 334.264 34.2809 333.456C34.6781 332.647 35.239 331.935 35.9262 331.367L68.5155 350.651L273.722 471.933Z" fill="#FF88EE"/>
<path opacity="0.5" d="M273.722 471.933V516.796C270.084 516.878 266.486 516.008 263.267 514.268L37.9845 381.068C35.0767 379.394 33.6229 377.101 33.6229 374.857V336.054C33.6593 335.15 33.8837 334.264 34.2809 333.456C34.6781 332.647 35.239 331.935 35.9262 331.367L68.5155 350.651L273.722 471.933Z" fill="white"/>
<path d="M273.722 471.933V516.796C277.365 516.88 280.97 516.01 284.193 514.268L509.46 381.068C512.367 379.394 513.821 377.101 513.821 374.857V336.037C513.785 335.133 513.561 334.247 513.163 333.439C512.766 332.631 512.205 331.919 511.518 331.35L478.929 350.635L273.722 471.933Z" fill="#FF88EE"/>
<path opacity="0.65" d="M273.722 471.933V516.796C277.365 516.88 280.97 516.01 284.193 514.268L509.46 381.068C512.367 379.394 513.821 377.101 513.821 374.857V336.037C513.785 335.133 513.561 334.247 513.163 333.439C512.766 332.631 512.205 331.919 511.518 331.35L478.929 350.635L273.722 471.933Z" fill="white"/>
<path d="M509.46 342.231L284.193 475.414C280.938 477.098 277.343 477.975 273.698 477.975C270.052 477.975 266.457 477.098 263.202 475.414L37.9845 342.248C35.0767 340.574 33.6229 338.331 33.6229 336.054C33.6593 335.15 33.8837 334.264 34.2809 333.456C34.6781 332.647 35.239 331.935 35.9262 331.367C36.5482 330.774 37.2395 330.262 37.9845 329.843L263.251 196.71C266.503 195.018 270.099 194.136 273.747 194.136C277.394 194.136 280.99 195.018 284.242 196.71L509.46 329.827C515.242 333.258 515.242 338.85 509.46 342.231Z" fill="#FF88EE"/>
<path opacity="0.8" d="M509.46 342.231L284.193 475.414C280.938 477.098 277.343 477.975 273.698 477.975C270.052 477.975 266.457 477.098 263.202 475.414L37.9845 342.248C35.0767 340.574 33.6229 338.331 33.6229 336.054C33.6593 335.15 33.8837 334.264 34.2809 333.456C34.6781 332.647 35.239 331.935 35.9262 331.367C36.5482 330.774 37.2395 330.262 37.9845 329.843L263.251 196.71C266.503 195.018 270.099 194.136 273.747 194.136C277.394 194.136 280.99 195.018 284.242 196.71L509.46 329.827C515.242 333.258 515.242 338.85 509.46 342.231Z" fill="white"/>
<path d="M273.722 196.794C276.927 196.732 280.095 197.498 282.935 199.02L508.137 332.12C510.08 333.275 511.175 334.698 511.175 336.054C511.175 337.41 510.064 338.799 508.153 339.938L282.886 473.138C280.028 474.591 276.88 475.347 273.689 475.347C270.499 475.347 267.351 474.591 264.493 473.138L39.275 339.938C37.331 338.816 36.2202 337.393 36.2202 336.054C36.2671 335.52 36.422 335.001 36.6752 334.531C36.9283 334.062 37.274 333.651 37.6904 333.325C38.1851 332.867 38.7339 332.473 39.324 332.154L264.607 199.02C267.431 197.487 270.592 196.72 273.787 196.794M273.787 194.132C270.133 194.053 266.521 194.941 263.3 196.71L37.9845 329.844C37.2368 330.258 36.5449 330.77 35.9262 331.367C35.239 331.935 34.6781 332.647 34.2809 333.456C33.8837 334.264 33.6593 335.15 33.6229 336.054C33.6229 338.331 35.0767 340.557 37.9845 342.248L263.202 475.415C266.457 477.098 270.052 477.975 273.698 477.975C277.343 477.975 280.938 477.098 284.193 475.415L509.46 342.231C515.242 338.883 515.242 333.259 509.46 329.827L284.242 196.71C281.013 194.946 277.397 194.059 273.738 194.132H273.787Z" fill="white"/>
<path d="M266.747 223.712L83.7892 331.886C79.9177 334.179 79.9177 337.879 83.7892 340.172L266.747 448.329C268.912 449.46 271.308 450.049 273.738 450.049C276.169 450.049 278.564 449.46 280.73 448.329L463.769 340.155C467.641 337.862 467.641 334.163 463.769 331.869L280.73 223.712C278.564 222.582 276.169 221.992 273.738 221.992C271.308 221.992 268.912 222.582 266.747 223.712Z" fill="#455A64"/>
<path d="M463.72 331.903L280.73 223.712C278.576 222.555 276.17 221.979 273.738 222.038V229.32L462.511 340.892L463.72 340.172C467.592 337.896 467.592 334.196 463.72 331.903Z" fill="#37474F"/>
<path d="M273.722 222.038C271.291 221.979 268.885 222.555 266.73 223.712L83.7729 331.886C79.9014 334.179 79.9014 337.879 83.7729 340.172L84.9817 340.892L273.722 229.32V222.038Z" fill="#263238"/>
<g opacity="0.5">
<path opacity="0.3" d="M286.366 420.976C282.479 423.303 278.001 424.382 273.51 424.073V450.104C276.571 450.092 279.565 449.18 282.135 447.476L461.58 341.344C464.929 339.452 466.481 337.778 466.481 335.485V314.443L286.366 420.976Z" fill="#FF88EE"/>
<path opacity="0.276923" d="M286.366 397.691C282.485 400.033 278.002 401.113 273.51 400.788V426.819C276.571 426.806 279.565 425.894 282.135 424.19L461.58 318.059C464.929 316.167 466.481 314.51 466.481 312.216V291.174L286.366 397.691Z" fill="#FF88EE"/>
<path opacity="0.253846" d="M286.366 374.372C282.479 376.699 278.001 377.778 273.51 377.469V403.5C276.571 403.488 279.565 402.575 282.135 400.871L461.58 294.79C464.929 292.898 466.481 291.224 466.481 288.931V267.889L286.366 374.372Z" fill="#FF88EE"/>
<path opacity="0.230769" d="M286.366 351.137C282.485 353.479 278.002 354.559 273.51 354.234V380.265C276.568 380.251 279.56 379.345 282.135 377.653L461.58 271.505C464.929 269.613 466.481 267.956 466.481 265.663V244.62L286.366 351.137Z" fill="#FF88EE"/>
<path opacity="0.207692" d="M286.366 327.868C282.479 330.196 278.001 331.274 273.51 330.965V356.996C276.571 356.984 279.565 356.072 282.135 354.368L461.58 248.236C464.929 246.345 466.481 244.687 466.481 242.377V221.335L286.366 327.868Z" fill="#FF88EE"/>
<path opacity="0.184615" d="M286.366 304.6C282.481 306.929 278 308.002 273.51 307.68V333.711C276.568 333.697 279.56 332.791 282.135 331.099L461.58 224.951C464.929 223.076 466.481 221.402 466.481 219.109V198.066L286.366 304.6Z" fill="#FF88EE"/>
<path opacity="0.161538" d="M286.366 281.314C282.482 283.649 278.002 284.729 273.51 284.411V310.442C276.571 310.43 279.565 309.518 282.135 307.814L461.58 201.682C464.929 199.791 466.481 198.133 466.481 195.84V174.781L286.366 281.314Z" fill="#FF88EE"/>
<path opacity="0.138462" d="M286.366 258.046C282.481 260.375 278 261.449 273.51 261.126V287.157C276.568 287.143 279.56 286.237 282.135 284.545L461.58 178.397C464.929 176.522 466.481 174.848 466.481 172.555V151.512L286.366 258.046Z" fill="#FF88EE"/>
<path opacity="0.115385" d="M286.366 234.76C282.485 237.102 278.002 238.182 273.51 237.857V263.888C276.571 263.876 279.565 262.964 282.135 261.26L461.58 155.078C464.929 153.186 466.481 151.529 466.481 149.236V128.294L286.366 234.76Z" fill="#FF88EE"/>
<path opacity="0.092308" d="M286.366 211.492C282.481 213.821 278 214.895 273.51 214.572V240.603C276.568 240.589 279.56 239.683 282.135 237.991L461.58 131.843C464.929 129.968 466.481 128.294 466.481 126.001V104.958L286.366 211.492Z" fill="#FF88EE"/>
<path opacity="0.069231" d="M286.366 188.207C282.485 190.548 278.002 191.628 273.51 191.303V217.334C276.571 217.322 279.565 216.41 282.135 214.706L461.58 108.574C464.929 106.683 466.481 105.026 466.481 102.732V81.6899L286.366 188.207Z" fill="#FF88EE"/>
<path opacity="0.046154" d="M286.366 164.938C282.479 167.265 278.001 168.344 273.51 168.035V194.082C276.57 194.063 279.561 193.151 282.135 191.454L461.58 85.3057C464.929 83.4141 466.481 81.7401 466.481 79.4467V58.4045L286.366 164.938Z" fill="#FF88EE"/>
<path opacity="0.023077" d="M286.366 141.686C282.485 144.028 278.002 145.108 273.51 144.783V170.814C276.571 170.802 279.565 169.889 282.135 168.186L461.58 62.0204C464.929 60.1288 466.481 58.4715 466.481 56.1782V35.136L286.366 141.686Z" fill="#FF88EE"/>
</g>
<g opacity="0.7">
<path opacity="0.5" d="M260.654 420.976C264.546 423.305 269.03 424.384 273.526 424.073C273.444 424.073 273.526 424.073 273.526 424.073V450.104C270.464 450.095 267.47 449.182 264.901 447.476L85.5044 341.344C82.1556 339.452 80.6038 337.778 80.6038 335.485V314.443L260.654 420.976Z" fill="#FF88EE"/>
<path opacity="0.461538" d="M260.654 397.691C264.539 400.035 269.028 401.115 273.526 400.788V426.819C270.464 426.809 267.47 425.897 264.901 424.19L85.5044 318.059C82.1556 316.167 80.6038 314.51 80.6038 312.216V291.174L260.654 397.691Z" fill="#FF88EE"/>
<path opacity="0.423077" d="M260.654 374.372C264.546 376.701 269.03 377.779 273.526 377.469C273.444 377.469 273.526 377.469 273.526 377.469V403.5C270.464 403.49 267.47 402.578 264.901 400.871L85.5044 294.74C82.1556 292.848 80.6038 291.174 80.6038 288.881V267.889L260.654 374.372Z" fill="#FF88EE"/>
<path opacity="0.384615" d="M260.654 351.137C264.539 353.481 269.028 354.561 273.526 354.234V380.265C270.467 380.254 267.475 379.348 264.901 377.653L85.4881 271.505C82.1393 269.613 80.5875 267.956 80.5875 265.663V244.62L260.654 351.137Z" fill="#FF88EE"/>
<path opacity="0.346154" d="M260.654 327.868C264.546 330.197 269.03 331.276 273.526 330.965C273.444 330.965 273.526 330.965 273.526 330.965V356.996C270.464 356.987 267.47 356.074 264.901 354.368L85.5044 248.236C82.1556 246.345 80.6038 244.687 80.6038 242.377V221.335L260.654 327.868Z" fill="#FF88EE"/>
<path opacity="0.307692" d="M260.654 304.6C264.544 306.931 269.031 308.005 273.526 307.68V333.711C270.467 333.7 267.475 332.794 264.901 331.099L85.4881 224.951C82.1393 223.076 80.5875 221.402 80.5875 219.109V198.066L260.654 304.6Z" fill="#FF88EE"/>
<path opacity="0.269231" d="M260.654 281.314C264.543 283.651 269.029 284.73 273.526 284.411C273.444 284.411 273.526 284.411 273.526 284.411V310.442C270.464 310.433 267.47 309.52 264.901 307.814L85.5044 201.682C82.1556 199.791 80.6038 198.133 80.6038 195.84V174.781L260.654 281.314Z" fill="#FF88EE"/>
<path opacity="0.230769" d="M260.654 258.046C264.544 260.377 269.031 261.451 273.526 261.126V287.157C270.467 287.146 267.475 286.24 264.901 284.545L85.4881 178.397C82.1393 176.522 80.5875 174.848 80.5875 172.555V151.512L260.654 258.046Z" fill="#FF88EE"/>
<path opacity="0.192308" d="M260.654 234.76C264.539 237.105 269.028 238.184 273.526 237.857C273.444 237.857 273.526 237.857 273.526 237.857V263.888C270.464 263.879 267.47 262.966 264.901 261.26L85.4881 155.078C82.1393 153.186 80.5875 151.529 80.5875 149.236V128.294L260.654 234.76Z" fill="#FF88EE"/>
<path opacity="0.153846" d="M260.654 211.492C264.544 213.823 269.031 214.897 273.526 214.572C273.444 214.572 273.526 214.572 273.526 214.572V240.603C270.467 240.592 267.475 239.686 264.901 237.991L85.4881 131.843C82.1393 129.968 80.5875 128.294 80.5875 126.001V104.958L260.654 211.492Z" fill="#FF88EE"/>
<path opacity="0.115385" d="M260.654 188.207C264.539 190.551 269.028 191.631 273.526 191.303C273.444 191.303 273.526 191.303 273.526 191.303V217.334C270.464 217.325 267.47 216.413 264.901 214.706L85.5044 108.574C82.1556 106.683 80.6038 105.026 80.6038 102.732V81.6899L260.654 188.207Z" fill="#FF88EE"/>
<path opacity="0.076923" d="M260.654 164.938C264.546 167.266 269.03 168.345 273.526 168.035V194.082C270.466 194.065 267.474 193.153 264.901 191.454L85.5044 85.3225C82.1556 83.4308 80.6038 81.7568 80.6038 79.4635V58.4045L260.654 164.938Z" fill="#FF88EE"/>
<path opacity="0.038462" d="M260.654 141.686C264.539 144.03 269.028 145.11 273.526 144.783V170.814C270.464 170.804 267.47 169.892 264.901 168.186L85.4881 62.0204C82.1393 60.1288 80.5875 58.4715 80.5875 56.1782V35.136L260.654 141.686Z" fill="#FF88EE"/>
</g>
<path d="M404.096 237.489C404.096 237.489 409.552 243.063 405.729 253.375C402.086 263.419 390.162 265.093 390.162 265.093C390.162 265.093 391.795 281.515 365.789 283.507C365.905 282.361 365.905 281.205 365.789 280.059C365.789 280.059 377.73 279.573 377.91 260.573C378.09 241.574 364.188 238.644 364.188 238.644C365.667 236.44 366.631 233.916 367.004 231.268C367.378 228.621 367.153 225.921 366.344 223.377C362.947 212.965 355.759 214.07 355.759 214.07C355.759 214.07 360.97 210.153 358.683 200.443C356.559 191.421 349.944 190.249 349.944 190.249C349.944 190.249 354.844 181.276 345.909 169.156C336.973 157.037 327.793 158.911 327.793 158.911C327.474 152.933 325.247 147.228 321.454 142.674C315.1 135.09 305.119 136.162 305.119 136.162C305.224 132.333 304.516 128.527 303.044 125.006C301.571 121.486 299.37 118.335 296.592 115.772C287.085 106.565 277.545 106.984 277.545 106.984C277.682 104.349 277.165 101.722 276.042 99.3479C274.92 96.9736 273.228 94.9299 271.125 93.4078C268.719 91.4845 265.864 90.2394 262.844 89.796C259.824 89.3526 256.743 89.7263 253.907 90.8801C253.907 90.8801 252.274 78.9612 242.211 76.6845C229.061 73.7383 222.608 81.7065 222.608 81.7065C222.608 81.7065 218.23 75.7973 208.217 74.1233C211.875 69.1992 216.355 64.9771 221.448 61.652C233.292 54.2195 251.228 58.9569 251.228 58.9569C255.755 55.6004 261.312 54.0311 266.877 54.5375C269.552 54.7525 272.144 55.5838 274.461 56.9693C276.777 58.3549 278.758 60.259 280.256 62.5393C280.256 62.5393 285.745 58.3877 299.042 59.1913C312.339 59.9948 315.525 70.7419 315.525 70.7419C322.085 70.5526 328.547 72.4152 334.049 76.0819C343.85 82.3259 343.85 95.6677 343.85 95.6677C343.85 95.6677 355.726 92.3197 366.132 103.385C376.538 114.45 371.947 124.745 371.947 124.745C375.836 125.103 379.576 126.448 382.83 128.658C386.084 130.868 388.749 133.874 390.586 137.404C392.423 140.934 393.372 144.877 393.35 148.878C393.327 152.878 392.332 156.81 390.456 160.318C391.977 160.814 393.367 161.66 394.519 162.791C395.671 163.923 396.556 165.31 397.104 166.846C399.13 172.186 397.104 175.451 397.104 175.451C397.104 175.451 407.216 179.87 409.846 190.851C412.476 201.833 407.216 208.345 407.216 208.345C409.855 209.889 412.032 212.143 413.511 214.864C414.991 217.584 415.718 220.666 415.612 223.779C415.661 235.129 404.096 237.489 404.096 237.489Z" fill="#FF88EE"/>
<path opacity="0.05" d="M404.096 237.489C404.096 237.489 409.552 243.063 405.729 253.375C402.086 263.419 390.162 265.093 390.162 265.093C390.162 265.093 391.795 281.515 365.789 283.507C365.905 282.361 365.905 281.205 365.789 280.059C365.789 280.059 377.73 279.573 377.91 260.573C378.09 241.574 364.188 238.644 364.188 238.644C365.667 236.44 366.631 233.916 367.004 231.268C367.378 228.621 367.153 225.921 366.344 223.377C362.947 212.965 355.759 214.07 355.759 214.07C355.759 214.07 360.97 210.153 358.683 200.443C356.559 191.421 349.944 190.249 349.944 190.249C349.944 190.249 354.844 181.276 345.909 169.156C336.973 157.037 327.793 158.911 327.793 158.911C327.474 152.933 325.247 147.228 321.454 142.674C315.1 135.09 305.119 136.162 305.119 136.162C305.224 132.333 304.516 128.527 303.044 125.006C301.571 121.486 299.37 118.335 296.592 115.772C287.085 106.565 277.545 106.984 277.545 106.984C277.682 104.349 277.165 101.722 276.042 99.3479C274.92 96.9736 273.228 94.9299 271.125 93.4078C268.719 91.4845 265.864 90.2394 262.844 89.796C259.824 89.3526 256.743 89.7263 253.907 90.8801C253.907 90.8801 252.274 78.9612 242.211 76.6845C229.061 73.7383 222.608 81.7065 222.608 81.7065C221.361 80.2102 219.889 78.9274 218.247 77.9066C217.969 77.7224 217.724 77.5718 217.414 77.4044C214.582 75.7029 211.461 74.5668 208.217 74.0564C211.881 69.1562 216.36 64.9571 221.448 61.652C233.292 54.2195 251.228 58.9569 251.228 58.9569C255.755 55.6004 261.312 54.0311 266.877 54.5375C269.552 54.7525 272.144 55.5838 274.461 56.9693C276.777 58.3549 278.758 60.259 280.256 62.5393C280.256 62.5393 285.745 58.3877 299.042 59.1913C312.339 59.9948 315.525 70.7419 315.525 70.7419C322.085 70.5526 328.547 72.4152 334.049 76.0819C343.85 82.3259 343.85 95.6677 343.85 95.6677C343.85 95.6677 355.726 92.3197 366.132 103.385C376.538 114.45 371.947 124.745 371.947 124.745C375.836 125.103 379.576 126.448 382.83 128.658C386.084 130.868 388.749 133.874 390.586 137.404C392.423 140.934 393.372 144.877 393.35 148.878C393.327 152.878 392.332 156.81 390.456 160.318C391.977 160.814 393.367 161.66 394.519 162.791C395.671 163.923 396.556 165.31 397.104 166.846C399.13 172.186 397.104 175.451 397.104 175.451C397.104 175.451 407.216 179.87 409.846 190.851C412.476 201.833 407.216 208.345 407.216 208.345C409.855 209.889 412.032 212.143 413.511 214.864C414.991 217.584 415.718 220.666 415.612 223.779C415.661 235.129 404.096 237.489 404.096 237.489Z" fill="black"/>
<path opacity="0.2" d="M368.582 236.953C370.55 232.343 370.783 227.149 369.236 222.373C367.292 216.43 364.025 213.367 360.97 211.927C362.538 208.05 362.779 203.743 361.656 199.707C361.217 197.361 360.287 195.142 358.93 193.2C357.574 191.258 355.823 189.64 353.799 188.457C354.795 184.239 355.122 176.455 348.326 167.248C341.531 158.041 334.572 156.082 330.537 155.714C329.656 150.154 327.312 144.945 323.758 140.648C321.766 138.384 319.356 136.548 316.667 135.246C313.978 133.944 311.063 133.203 308.092 133.065C307.459 125.578 304.128 118.602 298.748 113.496C293.796 108.506 287.455 105.213 280.599 104.071C280.298 101.454 279.467 98.9303 278.159 96.6616C276.851 94.3929 275.095 92.4294 273.003 90.8967C270.642 89.0289 267.914 87.7071 265.007 87.0222C262.099 86.3374 259.082 86.3057 256.161 86.9293C254.74 82.5602 251.261 75.5126 242.897 73.6378C232.802 71.3611 226.071 74.8263 222.723 77.3875C219.188 74.3649 214.979 72.2834 210.471 71.3276C208.908 73.1284 207.452 75.0234 206.109 77.0025C215.682 78.0571 219.897 83.3302 220.125 83.6985C220.406 84.0719 220.764 84.3768 221.174 84.591C221.583 84.8052 222.034 84.9235 222.494 84.9373C222.952 84.9482 223.408 84.8566 223.828 84.6686C224.249 84.4807 224.624 84.201 224.928 83.8491C225.157 83.5813 230.564 77.3875 241.574 79.8818C249.382 81.5558 250.852 91.0306 250.901 91.4156C250.975 91.9021 251.157 92.3645 251.434 92.767C251.71 93.1695 252.074 93.5011 252.496 93.736C252.918 93.9709 253.387 94.1028 253.867 94.1213C254.347 94.1399 254.825 94.0446 255.263 93.8429C257.593 92.9272 260.115 92.6494 262.581 93.0369C265.048 93.4244 267.373 94.4637 269.328 96.0526C270.996 97.2426 272.347 98.8419 273.258 100.705C274.168 102.567 274.608 104.634 274.539 106.716C274.491 107.166 274.538 107.622 274.676 108.052C274.814 108.482 275.04 108.877 275.339 109.21C275.623 109.566 275.987 109.847 276.399 110.028C276.812 110.208 277.261 110.284 277.708 110.248C278.018 110.248 286.17 110.097 294.517 118.166C296.934 120.413 298.852 123.167 300.14 126.24C301.428 129.313 302.056 132.634 301.982 135.978C301.939 136.442 301.996 136.91 302.149 137.35C302.301 137.789 302.545 138.189 302.865 138.522C303.191 138.853 303.583 139.106 304.015 139.265C304.447 139.424 304.907 139.485 305.364 139.443C305.446 139.443 313.907 138.673 319.069 144.833C322.363 148.826 324.321 153.795 324.656 159.012C324.662 159.473 324.766 159.928 324.961 160.344C325.155 160.761 325.436 161.128 325.783 161.422C326.13 161.716 326.534 161.93 326.967 162.051C327.401 162.172 327.855 162.198 328.299 162.125C328.609 162.125 335.862 160.97 343.409 171.165C350.956 181.36 347.363 188.575 347.215 188.842C346.986 189.28 346.859 189.767 346.844 190.264C346.83 190.761 346.929 191.254 347.134 191.705C347.344 192.159 347.653 192.558 348.039 192.868C348.424 193.179 348.875 193.394 349.355 193.496C349.551 193.496 354.076 194.551 355.645 201.297C357.376 208.646 354.011 211.542 353.897 211.626C353.352 212.036 352.957 212.622 352.773 213.289C352.59 213.956 352.629 214.667 352.884 215.308C353.138 215.964 353.595 216.516 354.186 216.879C354.776 217.242 355.467 217.396 356.151 217.317C356.625 217.317 361.052 217.049 363.404 224.465C364.071 226.521 364.271 228.706 363.988 230.853C363.704 233 362.946 235.052 361.77 236.853C361.457 237.277 361.252 237.775 361.175 238.302C361.098 238.828 361.151 239.366 361.329 239.866C361.512 240.364 361.812 240.807 362.203 241.158C362.593 241.508 363.062 241.755 363.567 241.875C364.041 241.975 375.002 244.654 374.872 260.657C374.708 276.192 366.018 276.979 365.691 277.012C365.26 277.036 364.838 277.151 364.452 277.35C364.066 277.549 363.725 277.829 363.45 278.17C363.176 278.512 362.973 278.908 362.855 279.334C362.738 279.76 362.708 280.206 362.767 280.645C362.835 281.463 362.835 282.287 362.767 283.105C363.741 283.487 364.78 283.663 365.822 283.624C366.916 283.624 367.913 283.39 368.925 283.256C368.925 283.055 368.925 282.821 368.925 282.637C373.287 281.097 380.785 276.192 380.948 260.724C381.128 246.897 374.234 239.832 368.582 236.953Z" fill="black"/>
<path d="M365.756 280.076C365.756 280.076 377.698 279.59 377.894 260.59C378.09 241.59 364.155 238.678 364.155 238.678C365.631 236.465 366.591 233.935 366.962 231.282C367.333 228.63 367.105 225.925 366.295 223.377C362.93 212.982 355.726 214.087 355.726 214.087C355.726 214.087 360.937 210.169 358.65 200.46C356.527 191.421 349.911 190.282 349.911 190.282C349.911 190.282 354.812 181.276 345.86 169.156C336.908 157.037 327.744 158.911 327.744 158.911C327.424 152.936 325.204 147.233 321.422 142.674C315.084 135.107 305.086 136.195 305.086 136.195C305.2 132.371 304.507 128.568 303.055 125.043C301.603 121.519 299.426 118.356 296.673 115.772C287.166 106.565 277.643 106.984 277.643 106.984C277.774 104.349 277.252 101.722 276.127 99.3484C275.002 96.9748 273.309 94.9313 271.206 93.4079C268.804 91.4845 265.952 90.2392 262.934 89.7957C259.917 89.3522 256.838 89.7261 254.005 90.8801C254.005 90.8801 252.372 78.9612 242.276 76.6846C229.208 73.7216 222.674 81.7066 222.674 81.7066C222.674 81.7066 213.787 69.6538 192.388 75.0106C174.419 79.4802 173.144 93.2404 173.144 93.2404C173.144 93.2404 154.718 89.7083 146.272 102.682C137.827 115.655 140.457 132.429 140.457 132.429C140.457 132.429 129.904 140.012 130.427 151.362C130.551 157.702 132.383 163.883 135.72 169.223C135.72 169.223 125.151 187.637 132.551 202.703C134.567 207.054 137.435 210.933 140.976 214.101C144.517 217.268 148.655 219.657 153.133 221.117C153.133 221.117 153.133 237.338 160.517 245.457C167.901 253.576 181.1 253.024 181.1 253.024C183.511 260.314 188.637 266.331 195.361 269.764C206.436 275.171 218.051 270.835 218.051 270.835C221.507 275.128 226.085 278.322 231.25 280.042C239.695 282.737 250.248 280.042 250.248 280.042C250.729 282.875 252.053 285.486 254.039 287.518C256.025 289.55 258.575 290.903 261.34 291.392C271.37 293.551 276.646 287.073 276.646 287.073C276.646 287.073 279.815 294.104 287.199 294.639C289.324 294.82 291.462 294.527 293.467 293.781C295.472 293.036 297.295 291.855 298.813 290.32C298.813 290.32 303.044 303.83 320.458 304.382C337.872 304.935 342.152 297.217 342.152 297.217C342.152 297.217 350.548 303.311 358.993 296.816C361.425 294.852 363.323 292.281 364.507 289.35C365.691 286.419 366.122 283.226 365.756 280.076Z" fill="#FF88EE"/>
<path opacity="0.2" d="M365.756 280.076C365.756 280.076 377.698 279.59 377.894 260.59C378.09 241.59 364.155 238.678 364.155 238.678C365.631 236.465 366.591 233.935 366.962 231.282C367.333 228.63 367.105 225.925 366.295 223.377C362.93 212.982 355.726 214.087 355.726 214.087C355.726 214.087 360.937 210.169 358.65 200.46C356.527 191.421 349.911 190.282 349.911 190.282C349.911 190.282 354.812 181.276 345.86 169.156C336.908 157.037 327.744 158.911 327.744 158.911C327.424 152.936 325.204 147.233 321.422 142.674C315.084 135.107 305.086 136.195 305.086 136.195C305.2 132.371 304.507 128.568 303.055 125.043C301.603 121.519 299.426 118.356 296.673 115.772C287.166 106.565 277.643 106.984 277.643 106.984C277.774 104.349 277.252 101.722 276.127 99.3484C275.002 96.9748 273.309 94.9313 271.206 93.4079C268.804 91.4845 265.952 90.2392 262.934 89.7957C259.917 89.3522 256.838 89.7261 254.005 90.8801C254.005 90.8801 252.372 78.9612 242.276 76.6846C229.208 73.7216 222.674 81.7066 222.674 81.7066C222.674 81.7066 213.787 69.6538 192.388 75.0106C174.419 79.4802 173.144 93.2404 173.144 93.2404C173.144 93.2404 154.718 89.7083 146.272 102.682C137.827 115.655 140.457 132.429 140.457 132.429C140.457 132.429 129.904 140.012 130.427 151.362C130.551 157.702 132.383 163.883 135.72 169.223C135.72 169.223 125.151 187.637 132.551 202.703C134.567 207.054 137.435 210.933 140.976 214.101C144.517 217.268 148.655 219.657 153.133 221.117C153.133 221.117 153.133 237.338 160.517 245.457C167.901 253.576 181.1 253.024 181.1 253.024C183.511 260.314 188.637 266.331 195.361 269.764C206.436 275.171 218.051 270.835 218.051 270.835C221.507 275.128 226.085 278.322 231.25 280.042C239.695 282.737 250.248 280.042 250.248 280.042C250.729 282.875 252.053 285.486 254.039 287.518C256.025 289.55 258.575 290.903 261.34 291.392C271.37 293.551 276.646 287.073 276.646 287.073C276.646 287.073 279.815 294.104 287.199 294.639C289.324 294.82 291.462 294.527 293.467 293.781C295.472 293.036 297.295 291.855 298.813 290.32C298.813 290.32 303.044 303.83 320.458 304.382C337.872 304.935 342.152 297.217 342.152 297.217C342.152 297.217 350.548 303.311 358.993 296.816C361.425 294.852 363.323 292.281 364.507 289.35C365.691 286.419 366.122 283.226 365.756 280.076Z" fill="white"/>
<g opacity="0.05">
<path d="M226.61 125.666C224.806 122.077 222.615 118.708 220.076 115.622C218.198 113.429 215.176 110.181 212.088 110.6C211.173 110.7 211.761 112.274 212.415 112.274C215.274 112.793 217.316 115.287 218.851 117.58C220.526 120.066 222.032 122.667 223.36 125.364C227.088 132.411 229.227 140.225 229.616 148.231C229.878 154.927 228.277 161.774 222.02 165.088C214.686 168.972 205.211 166.511 198.301 162.896C195.394 161.514 192.868 159.414 190.949 156.784C189.03 154.155 187.778 151.077 187.307 147.83C187.193 146.993 185.919 146.289 185.951 147.511C185.885 151.126 186.765 154.692 188.5 157.84C190.397 160.767 192.974 163.165 195.998 164.821C203.087 169.073 211.68 171.517 219.831 169.357C238.927 164.369 233.455 138.673 226.61 125.666Z" fill="black"/>
<path d="M205.913 136.045C205.616 133.318 204.716 130.696 203.283 128.378C201.896 126.029 200.135 123.936 198.072 122.184C196.047 120.272 193.639 118.838 191.015 117.982C189.888 117.681 189.97 119.305 190.656 119.757C192.779 120.945 194.797 122.323 196.684 123.875C198.45 125.514 199.945 127.436 201.111 129.566C202.187 131.6 202.843 133.84 203.038 136.145C203.131 137.379 203.093 138.619 202.924 139.845C202.761 141.016 202.467 142.121 202.287 143.293C202.205 143.829 202.875 144.967 203.463 144.364C204.419 143.232 205.131 141.905 205.553 140.472C205.975 139.038 206.098 137.53 205.913 136.045Z" fill="black"/>
<path d="M215.225 96.6721C209.422 95.0713 203.393 94.5051 197.403 94.9981C191.743 95.4404 186.296 97.3972 181.606 100.673C173.291 106.314 167.051 114.701 165.483 124.929C164.617 130.571 164.144 137.635 169.011 141.669C169.6 142.138 170.645 141.87 170.335 140.949C168.993 137.784 168.346 134.355 168.44 130.905C168.597 127.967 169.035 125.051 169.747 122.201C171.374 116.411 174.582 111.218 178.992 107.235C183.546 102.63 189.306 99.4779 195.573 98.162C198.874 97.6849 202.218 97.6006 205.538 97.9108C208.838 98.3813 212.173 98.5438 215.502 98.3963C216.401 98.3461 215.796 96.8395 215.225 96.6721Z" fill="black"/>
<path d="M178.11 159.732C173.112 151.512 163.637 144.95 154.015 145.151C146.468 145.302 134.838 149.621 135.916 159.28C136.259 161.681 137.091 163.981 138.358 166.031C139.624 168.081 141.296 169.836 143.267 171.182C144.161 171.773 145.189 172.117 146.252 172.178C147.314 172.24 148.374 172.018 149.327 171.533C151.582 170.211 151.81 167.298 152.415 165.005C152.513 164.637 152.104 163.816 151.696 164.268C149.834 166.311 148.02 171.333 144.574 168.838C141.834 166.647 139.928 163.545 139.183 160.067C137.827 152.617 146.223 149.018 152.006 148.181C160.06 146.993 167.46 151.345 172.703 157.321C176.101 161.205 180.577 169.257 175.056 173.274C174.158 173.936 173.142 174.41 172.066 174.669C170.989 174.927 169.874 174.965 168.783 174.781C166.234 174.279 165.989 172.27 165.516 169.993C165.271 168.872 163.294 168.403 162.918 169.642C162.531 171.006 162.628 172.466 163.194 173.763C163.759 175.06 164.756 176.109 166.006 176.723C168.596 177.966 171.561 178.111 174.255 177.125C175.614 176.733 176.871 176.04 177.938 175.093C179.006 174.147 179.856 172.972 180.43 171.651C181.868 167.784 180.12 163.046 178.11 159.732Z" fill="black"/>
<path d="M252.339 253.325C248.124 244.955 240.251 239.28 232.148 235.43C230.792 234.794 229.436 234.191 228.064 233.639C229.659 232.166 231.05 230.476 232.197 228.617C234.575 224.95 236.388 220.93 237.572 216.698C238.203 214.667 238.393 212.519 238.127 210.405C237.862 208.291 237.148 206.262 236.036 204.461C234.877 202.655 233.3 201.171 231.446 200.142C229.6 199.138 226.463 198.033 224.422 198.987C223.605 199.372 224.52 200.661 225.059 200.745C227.166 201.264 229.012 201.28 230.858 202.636C232.424 203.817 233.594 205.466 234.206 207.357C235.141 210.541 235.003 213.955 233.814 217.049C232.687 220.487 231.133 223.761 229.191 226.792C228.266 228.263 227.169 229.612 225.924 230.81C225.329 231.326 224.676 231.77 223.98 232.132C217.022 229.638 209.834 227.78 202.744 225.436C192.535 222.088 183.142 216.949 175.987 208.696C171.51 203.899 168.417 197.925 167.051 191.437C166.594 188.724 166.43 185.968 166.561 183.218C166.659 180.975 166.839 178.012 168.456 176.304C169.224 175.484 167.754 173.827 166.823 174.429C163.441 176.673 163.555 182.247 163.555 185.913C163.502 191.706 164.897 197.417 167.607 202.502C173.132 212.318 181.47 220.155 191.489 224.951C208.445 233.321 230.025 233.438 243.763 248.035C247.452 251.729 249.993 256.458 251.065 261.628C251.62 264.445 251.62 267.348 251.065 270.165C250.493 272.827 248.843 274.735 248.01 277.213C247.781 277.866 248.696 279.038 249.382 278.686C253.384 276.728 254.789 271.17 255.083 266.968C255.383 262.25 254.434 257.537 252.339 253.325Z" fill="black"/>
<path d="M231.005 254.313C226.365 250.881 220.697 250.027 215.257 248.755C209.818 247.483 204.362 246.344 199.02 244.687C196.357 243.871 193.744 242.893 191.195 241.758C187.536 240.084 184.351 237.69 180.757 236.033C180.611 235.946 180.441 235.91 180.274 235.93C180.106 235.949 179.949 236.024 179.826 236.142C179.703 236.261 179.621 236.417 179.592 236.587C179.562 236.757 179.587 236.933 179.662 237.087C180.74 239.448 183.501 241.189 185.608 242.511C187.718 243.826 189.937 244.947 192.241 245.859C197.111 247.744 202.113 249.249 207.204 250.362C213.313 251.802 219.946 252.522 225.826 254.748C227.636 255.439 229.336 256.397 230.874 257.594C232.736 259 235.464 261.193 235.66 263.721C235.66 264.541 237.098 265.294 237.294 264.139C237.784 259.921 234.092 256.606 231.005 254.313Z" fill="black"/>
<path d="M156.874 208.01C155.232 204.891 153.108 202.064 150.585 199.64C147.318 195.974 144.917 192.124 144.933 186.917C145.03 184.179 145.375 181.455 145.962 178.782C146.468 176.02 147.334 172.839 146.272 170.144C146.093 169.675 145.439 169.29 145.129 169.843C144.599 171.137 144.279 172.511 144.182 173.911C143.969 175.183 143.74 176.422 143.495 177.677C142.949 180.143 142.556 182.642 142.319 185.16C141.977 189.714 143.298 194.237 146.027 197.849C148.102 200.628 150.667 202.954 152.709 205.767C153.68 207.015 154.387 208.458 154.783 210.002C155.371 212.613 154.506 215.024 153.934 217.568C153.934 217.953 154.244 219.109 154.783 218.606C156.184 217.296 157.142 215.563 157.518 213.658C157.893 211.753 157.668 209.775 156.874 208.01Z" fill="black"/>
<path d="M346.693 192.442C344.219 193.266 341.85 194.39 339.636 195.79C337.076 197.066 334.306 197.844 331.468 198.083C326.404 198.485 321.487 196.794 316.439 196.827C314.231 196.806 312.043 197.268 310.023 198.183C308.003 199.099 306.198 200.446 304.727 202.134C303.592 203.369 302.615 204.747 301.819 206.235C300.806 205.08 299.745 203.942 298.634 202.887C294.468 198.902 289.555 195.827 284.193 193.848C278.186 191.876 271.994 190.558 265.718 189.914C260.066 189.144 254.593 188.407 249.382 185.746C245.102 183.536 240.12 180.439 238.829 175.35C238.601 174.496 237.196 174.228 237.359 175.35C237.719 179.736 240.92 183.05 244.138 185.628C247.69 188.46 251.788 190.486 256.161 191.571C267.596 194.333 279.783 194.015 289.927 200.828C294.305 203.653 298.067 207.375 300.976 211.759C303.885 216.143 305.88 221.096 306.834 226.307C308.353 235.129 309.023 246.144 302.228 252.906C297.406 257.5 291.998 261.403 286.153 264.507C284.798 265.261 283.311 266.181 281.873 267.102C282.662 264.475 283.182 261.771 283.425 259.033C284.06 253.449 283.594 247.79 282.053 242.394C280.455 237.304 277.821 232.62 274.326 228.65C270.21 223.93 265.081 220.816 260.147 217.1C257.193 214.971 254.585 212.378 252.421 209.416C249.97 206.068 247.928 202.218 245.756 198.619C245.331 197.916 244.841 198.836 245.07 199.355C247.553 205.013 249.97 210.705 254.136 215.325C258.301 219.945 263.627 222.942 268.103 227.043C271.927 230.552 274.986 234.849 277.08 239.651C279.174 244.454 280.256 249.655 280.256 254.915C280.346 258.302 279.961 261.685 279.113 264.959C278.525 267.186 277.626 269.312 276.973 271.505C275.829 272.882 275.062 274.545 274.751 276.326C274.621 277.163 276.025 278.452 276.695 277.598C278.375 275.3 280.304 273.205 282.445 271.354C284.503 269.8 286.689 268.433 288.979 267.269C294.261 264.427 299.196 260.955 303.681 256.924C307.331 253.841 309.919 249.64 311.065 244.938C312.063 240.181 312.256 235.283 311.637 230.458C311.284 225.59 310.181 220.811 308.37 216.296C307.359 214.074 306.145 211.955 304.743 209.968C304.994 209.033 305.333 208.125 305.756 207.257C306.748 205.61 308.002 204.145 309.464 202.921C312.878 200.008 317.387 200.293 321.536 200.862C326.306 201.531 331.043 202.201 335.781 200.862C338.118 200.219 340.368 199.279 342.478 198.066C344.492 197.095 346.305 195.737 347.82 194.065C348.228 193.463 347.428 192.274 346.693 192.442Z" fill="black"/>
<path d="M331.729 174.111C328.936 167.332 321.667 164.469 315.394 162.176C308.302 159.864 301.511 156.677 295.171 152.684C292.207 150.732 289.556 148.321 287.313 145.536C284.043 141.03 282.064 135.68 281.596 130.085C281.481 129.181 279.456 128.244 279.227 129.499C276.695 143.444 287.918 153.471 298.83 159.196C304.694 162.276 310.918 164.218 317.044 166.562C322.026 168.52 329.786 172.454 328.691 179.251C328.168 182.599 325.195 183.586 322.402 184.273C318.645 185.087 314.803 185.413 310.967 185.243C303.033 184.83 295.167 183.528 287.509 181.36C273.279 177.652 261.051 168.34 253.482 155.446C249.211 147.981 246.736 139.58 246.262 130.939C246.022 126.642 246.241 122.331 246.916 118.083C247.651 113.061 248.549 107.603 251.408 103.301C251.587 103.017 251.408 102.163 250.95 102.531C248.508 105.246 246.875 108.621 246.246 112.257C245.288 116.021 244.573 119.846 244.106 123.707C243.071 132.308 244.08 141.037 247.046 149.152C252.745 163.612 263.738 175.214 277.675 181.477C284.924 184.398 292.495 186.399 300.218 187.436C308.386 188.776 317.011 189.361 325.048 187.085C326.471 186.805 327.818 186.21 328.994 185.343C330.171 184.476 331.149 183.357 331.86 182.063C332.391 180.804 332.655 179.444 332.632 178.073C332.609 176.701 332.302 175.351 331.729 174.111Z" fill="black"/>
<path d="M304.76 173.074C301.852 172.052 298.683 171.734 295.742 170.747C292.739 169.802 289.807 168.633 286.97 167.248C281.853 164.606 277.352 160.867 273.771 156.283C269.725 151.324 266.906 145.438 265.554 139.125C264.362 132.429 266.159 126.001 266.518 119.372C266.518 118.819 265.603 117.463 265.211 118.451C262.185 125.631 261.232 133.55 262.467 141.268C263.97 147.784 266.997 153.828 271.288 158.878C275.201 163.87 280.249 167.802 285.99 170.328C289.165 171.628 292.445 172.642 295.791 173.358C298.536 173.961 302.326 175.149 305.086 174.329C305.527 174.178 305.266 173.224 304.76 173.074Z" fill="black"/>
<path d="M353.897 228.064C347.673 222.105 336.434 220.331 334.457 210.471C334.327 209.868 333.2 209.215 333.102 210.169C332.399 218.389 341.923 223.561 347.706 227.16C351.252 229.193 354.022 232.397 355.563 236.25C357.458 241.021 356.788 245.491 355.187 250.195C355.007 250.764 355.645 251.668 356.216 251.266C363.992 245.759 359.385 233.321 353.897 228.064Z" fill="black"/>
<path d="M368.141 263.888C364.792 266.951 361.476 269.295 356.87 269.496C352.949 269.606 349.071 268.647 345.631 266.717C343.775 265.859 342.16 264.537 340.932 262.873C339.705 261.209 338.905 259.255 338.607 257.192C338.289 254.692 338.433 252.154 339.031 249.709C339.736 247.332 340.233 244.895 340.518 242.427L340.845 242.678C342.784 244.538 344.335 246.782 345.402 249.274C345.598 249.625 346.415 250.144 346.709 249.575C348.114 246.88 346.072 243.984 344.21 242.109C342.188 240.158 339.939 238.471 337.512 237.087C334.78 235.506 332.155 233.739 329.655 231.797C328.4 230.771 327.221 229.652 326.126 228.449C324.493 226.692 323.3 224.683 321.797 222.875C321.52 222.54 321.16 222.875 321.177 223.243C321.356 226.441 324.052 229.588 326.159 231.73C328.603 234.119 331.305 236.214 334.212 237.974C335.503 238.778 336.777 239.648 338.035 240.469C337.9 240.56 337.784 240.678 337.694 240.816C337.604 240.954 337.542 241.109 337.512 241.272C337.038 243.75 336.124 246.127 335.503 248.554C334.9 250.855 334.652 253.239 334.768 255.618C334.773 259.476 336.244 263.181 338.868 265.947C341.669 268.519 344.989 270.426 348.593 271.532C352.196 272.637 355.993 272.914 359.712 272.342C361.674 272.02 363.558 271.321 365.266 270.283C366.299 269.733 367.203 268.96 367.917 268.018C368.63 267.076 369.136 265.987 369.399 264.825C369.546 264.256 368.729 263.285 368.141 263.888Z" fill="black"/>
<path d="M343.442 290.387C343.291 289.227 342.966 288.098 342.478 287.039C341.488 284.768 340.244 282.622 338.77 280.645C337.205 278.652 335.238 277.03 333.004 275.891C331.89 275.287 330.725 274.789 329.524 274.401L328.822 274.166C329.233 273.096 329.481 271.967 329.557 270.818C329.703 267.198 329.262 263.577 328.25 260.105C327.319 256.673 325.816 253.124 322.467 251.551C321.128 250.915 321.062 252.89 321.993 253.493C323.431 254.413 324.166 257.242 324.656 258.782C325.285 260.782 325.722 262.84 325.963 264.926C326.322 267.973 326.6 271.27 325.244 274.016C325.174 274.063 325.116 274.128 325.076 274.204C325.036 274.28 325.015 274.365 325.016 274.451C324.848 274.763 324.663 275.065 324.46 275.355C321.781 278.87 317.322 280.377 313.548 282.319C309.775 284.261 305.609 286.504 305.037 291.091C304.939 291.81 306.034 292.848 306.671 292.095C309.215 288.894 312.446 286.339 316.113 284.629C319.55 283.242 322.775 281.353 325.685 279.021C326.426 278.328 327.084 277.546 327.646 276.694H327.907L329.295 277.129C330.22 277.448 331.12 277.834 331.991 278.284C333.67 279.158 335.159 280.371 336.369 281.85C337.294 283.058 338.14 284.327 338.901 285.65C339.459 286.571 339.961 287.527 340.404 288.513C340.83 289.386 341.201 290.286 341.514 291.208C341.645 291.756 341.843 292.284 342.102 292.781C342.233 292.965 342.495 293.283 342.756 293.15C343.687 292.698 343.524 291.275 343.442 290.387Z" fill="black"/>
<path d="M316.194 256.723C316.194 256.188 315.41 255.568 315.247 256.422C314.804 259.398 313.507 262.171 311.522 264.39C309.536 266.404 307.346 268.194 304.988 269.73C302.673 271.262 300.536 273.06 298.617 275.087C297.627 276.144 296.821 277.367 296.232 278.703C295.663 280.097 295.56 281.645 295.938 283.106C295.938 283.407 296.477 284.244 296.87 283.792C297.963 282.307 298.945 280.74 299.81 279.105C300.548 277.922 301.426 276.837 302.424 275.874C304.353 274.144 306.394 272.55 308.533 271.103C310.861 269.572 312.889 267.607 314.512 265.311C316.052 262.745 316.649 259.7 316.194 256.723Z" fill="black"/>
<path d="M232.312 188.139C230.062 187.037 227.65 186.324 225.173 186.03C218.002 185.096 210.725 185.493 203.692 187.202C197.989 188.344 192.435 190.165 187.144 192.626C184.38 193.917 181.766 195.523 179.352 197.413C177.718 198.702 174.451 201.096 175.382 203.524C175.529 203.909 175.97 204.444 176.428 204.31C178.796 203.607 180.626 200.962 182.603 199.523C184.687 197.986 186.921 196.674 189.268 195.605C193.912 193.466 198.763 191.833 203.741 190.734C209.834 189.187 216.105 188.5 222.38 188.692C224.541 188.78 226.693 189.038 228.816 189.462C230.899 189.944 232.851 190.893 234.533 192.241C234.582 192.281 234.639 192.31 234.7 192.326C234.761 192.342 234.824 192.345 234.886 192.334C234.948 192.323 235.007 192.298 235.058 192.262C235.11 192.226 235.154 192.179 235.187 192.124C235.938 190.232 233.635 188.859 232.312 188.139Z" fill="black"/>
<path d="M198.04 172.906C197.087 173.417 196.238 174.11 195.54 174.948C194.626 175.852 193.694 176.622 192.731 177.526C190.762 179.189 188.6 180.594 186.294 181.711C184.107 182.755 181.795 183.498 179.417 183.921C178.302 184.102 177.179 184.225 176.052 184.289C174.956 184.209 173.855 184.299 172.785 184.557C171.968 184.858 172.426 185.997 172.965 186.332C175.088 187.654 178.486 187.135 180.806 186.733C183.42 186.255 185.952 185.386 188.32 184.155C190.633 182.964 192.795 181.485 194.756 179.753C195.754 178.869 196.683 177.907 197.533 176.873C198.375 176.101 198.9 175.03 199.003 173.877C199.085 173.375 198.579 172.672 198.04 172.906Z" fill="black"/>
</g>
<g opacity="0.05">
<path d="M318.302 75.5464C318.024 75.2283 317.697 75.5464 317.648 75.8477C317.338 77.5217 317.648 79.1957 317.436 80.8697C317.166 83.117 316.514 85.2984 315.508 87.3146C313.581 91.215 310.314 95.1824 306.099 96.5216C295.726 99.8696 286.839 92.889 279.652 86.1093C279.236 84.7561 278.75 83.4262 278.198 82.1252C276.706 78.7688 274.717 75.6688 272.301 72.9349C270.104 70.2982 267.682 67.8669 265.064 65.6697C263.717 64.4976 262.236 63.497 260.654 62.69C259.386 61.8955 257.903 61.5376 256.423 61.6689C255.59 61.853 255.998 63.142 256.651 63.3429C259.295 64.2377 261.68 65.7907 263.594 67.8627C265.765 69.9616 267.806 72.198 269.704 74.5587C271.9 77.0856 273.686 79.9566 274.996 83.0626C275.727 84.9271 276.275 86.8618 276.63 88.8379C276.793 89.7251 276.94 90.6124 277.12 91.4828C277.42 92.5807 277.836 93.6416 278.361 94.6467C278.541 95.0652 279.162 95.5339 279.456 94.9647C280.074 93.7167 280.378 92.3296 280.338 90.9304C282.823 93.8389 285.857 96.202 289.257 97.8775C294.643 100.636 300.813 101.331 306.654 99.8361C311.241 98.4169 315.111 95.2306 317.452 90.9472C320.05 86.4441 321.977 79.9155 318.302 75.5464Z" fill="black"/>
<path d="M340.943 111.236C337.284 108.407 332.595 105.796 327.874 105.929C326.943 105.929 327.597 107.704 328.332 107.754C331.599 108.039 335.242 110.248 337.888 112.224C340.093 113.898 343.524 116.71 343.442 119.857C343.36 124.26 335.993 124.98 332.987 124.879C327.176 124.483 321.608 122.341 316.979 118.719C314.546 117.033 312.348 115.017 310.444 112.726C308.255 110.014 307.324 106.75 305.772 103.653C305.527 103.184 304.612 102.749 304.531 103.653C304.445 107.474 305.594 111.216 307.798 114.299C309.673 117.083 311.999 119.517 314.675 121.498C319.975 125.696 326.41 128.117 333.102 128.428C337.659 128.528 345.86 126.888 346.921 121.263C347.64 117.095 343.801 113.462 340.943 111.236Z" fill="black"/>
<path d="M387.09 157.807C385.147 157.238 382.762 158.008 380.801 158.309C378.465 158.677 376.129 159.079 373.777 159.33C369.141 159.904 364.445 159.695 359.875 158.711C356.11 157.856 352.514 156.35 349.241 154.258C345.537 151.65 342.233 148.491 339.44 144.883C338.933 144.298 338.215 144.549 338.247 145.335C338.576 147.483 339.462 149.501 340.812 151.178C342.041 152.931 343.523 154.483 345.206 155.781C348.79 158.47 352.844 160.431 357.147 161.556C362.023 162.881 367.089 163.312 372.111 162.829C374.908 162.556 377.689 162.131 380.442 161.556C381.863 161.289 383.252 160.937 384.656 160.619C385.604 160.401 387.172 160.334 387.744 159.397C387.821 159.251 387.865 159.09 387.873 158.924C387.881 158.759 387.853 158.594 387.79 158.441C387.727 158.288 387.632 158.152 387.511 158.042C387.39 157.932 387.246 157.852 387.09 157.807Z" fill="black"/>
<path d="M372.601 133.483C371.604 133.483 372.405 135.157 372.977 135.258C375.574 135.994 376.358 141.669 375.215 143.912C373.499 147.26 368.19 147.394 365.038 147.428C359.939 147.466 354.921 146.132 350.483 143.561C346.284 141.1 342.919 137.534 338.884 134.856C338.198 134.421 338.035 135.475 338.378 135.911C342.168 140.514 346.105 145.168 351.446 147.796C357.053 150.466 363.304 151.38 369.415 150.424C373.45 149.805 378.351 147.98 378.759 143.142C379.2 139.309 377.06 133.316 372.601 133.483Z" fill="black"/>
<path d="M392.285 173.743C392.086 173.631 391.878 173.536 391.664 173.458C391.348 173.357 391.026 173.273 390.701 173.207C390.087 173.074 389.464 172.99 388.838 172.956C387.472 172.895 386.102 172.985 384.754 173.224C381.724 173.739 378.77 174.651 375.966 175.936C373.57 176.944 371.442 178.522 369.758 180.54C367.982 183.197 367.026 186.341 367.014 189.562C366.831 191.741 367.268 193.927 368.272 195.857C369.104 197.336 370.291 198.574 371.72 199.453C373.15 200.331 374.774 200.822 376.44 200.879C376.721 200.884 376.998 200.809 377.24 200.661C377.391 200.502 377.489 200.297 377.518 200.078C377.548 199.858 377.507 199.634 377.403 199.439C377.175 199.068 376.875 198.749 376.521 198.502C374.999 197.407 373.65 196.08 372.519 194.568C371.786 193.393 371.289 192.081 371.056 190.707C370.824 189.333 370.861 187.926 371.165 186.567C371.469 185.208 372.034 183.925 372.828 182.792C373.621 181.659 374.627 180.7 375.786 179.97C378.352 178.512 381.1 177.419 383.954 176.723C387.002 175.712 390.283 175.712 393.331 176.723C393.418 176.73 393.507 176.718 393.589 176.687C393.672 176.656 393.747 176.607 393.809 176.544C393.871 176.48 393.919 176.403 393.949 176.318C393.98 176.233 393.991 176.143 393.984 176.053C394.131 175.467 392.726 173.961 392.285 173.743Z" fill="black"/>
<path d="M399.914 212.078C396.647 204.88 388.74 200.46 381.34 199.188C377.305 198.485 370.265 198.184 367.635 202.101C367.465 202.308 367.368 202.567 367.357 202.837C367.38 203.036 367.464 203.222 367.596 203.369C367.728 203.516 367.901 203.617 368.092 203.658C368.474 203.749 368.871 203.749 369.252 203.658C372.519 203.038 375.411 201.984 378.825 202.252C382.026 202.524 385.135 203.485 387.949 205.072C390.764 206.658 393.221 208.834 395.16 211.459C397.905 215.627 398.623 222.524 395.52 226.742C392.857 230.341 388.005 230.358 384.085 229.27C381.84 228.801 379.771 227.686 378.122 226.056C376.734 224.382 377.698 222.557 378.89 221.034C379.511 220.264 378.384 218.556 377.485 219.159C374.806 220.933 372.585 223.846 374.414 227.127C375.891 229.304 378.036 230.913 380.507 231.697C385.833 233.806 392.35 234.309 397.071 230.391C402.119 226.24 402.478 217.736 399.914 212.078Z" fill="black"/>
<path d="M392.514 247.148C391.334 244.562 389.61 242.275 387.466 240.452C386.466 239.521 385.286 238.815 384.003 238.379C382.72 237.944 381.362 237.789 380.017 237.924C379.119 238.092 379.674 239.598 380.393 239.598C385.016 239.95 388.103 244.52 389.671 248.538C390.463 250.54 390.937 252.659 391.076 254.815C391.133 255.848 391.1 256.885 390.978 257.912C390.978 258.28 390.848 258.649 390.799 259.017C390.626 259.722 390.566 260.451 390.619 261.176C390.75 261.762 391.207 262.398 391.86 262.147C392.955 261.695 393.739 259.954 394.082 258.9C394.465 257.582 394.614 256.204 394.523 254.832C394.372 252.157 393.688 249.542 392.514 247.148Z" fill="black"/>
</g>
<g opacity="0.2">
<path d="M236.542 118.752C235.399 118.551 234.272 119.288 233.635 121.414C232.165 126.202 233.635 134.136 234.108 139.024C234.711 146.048 235.858 153.012 237.539 159.849C238.911 165.39 240.708 170.998 244.302 175.367C247.86 179.342 252.313 182.365 257.272 184.172C270.52 189.613 285.435 190.433 298.111 197.246C299.745 198.083 301.656 198.92 303.012 197.832C303.476 197.347 303.764 196.713 303.826 196.036C303.889 195.36 303.722 194.682 303.355 194.116C302.58 193.005 301.516 192.141 300.284 191.621C295.236 189.094 289.617 188.14 284.193 186.599C274.999 184.259 266.41 179.901 259.02 173.827C251.654 167.708 246.313 159.406 243.73 150.056C242.211 144.113 242.097 137.936 241.231 131.876C240.79 128.679 241.002 125.08 239.744 122.067C239.501 121.296 239.085 120.594 238.529 120.019C237.972 119.443 237.292 119.009 236.542 118.752Z" fill="white"/>
<path d="M208.805 142.623C208.475 145.297 207.281 147.781 205.413 149.677C203.544 151.574 201.109 152.774 198.497 153.086C197.499 152.996 196.504 153.288 195.704 153.906C194.446 155.312 196.112 157.438 197.648 158.51C202.744 162.075 208.87 165.407 214.816 163.749C221.04 162.075 224.846 155.128 225.124 148.516C225.369 142.975 221.857 113.864 210.814 122.72C205.636 126.888 209.442 137.049 208.805 142.623Z" fill="white"/>
<path d="M197.141 142.222C201.307 127.357 174.272 110.734 173.308 129.985C173.013 132.515 173.421 135.08 174.484 137.384C178.6 144.867 185.576 133.232 191.326 140.498C191.949 141.493 192.672 142.418 193.482 143.26C193.901 143.669 194.453 143.906 195.032 143.924C195.61 143.943 196.175 143.742 196.619 143.36C196.873 143.025 197.052 142.636 197.141 142.222Z" fill="white"/>
<path d="M261.421 207.826C262.33 209.023 263.436 210.048 264.689 210.856C276.009 219.226 285.614 231.446 286.774 245.692C287.019 248.755 287.297 252.555 290.041 253.727C290.874 253.983 291.751 254.049 292.612 253.922C293.472 253.795 294.295 253.477 295.024 252.99C300.316 250.011 303.306 243.733 303.665 237.556C303.774 231.336 302.352 225.187 299.532 219.678C296.053 211.994 290.058 205.298 281.89 203.038C278.459 202.134 255.9 199.339 261.421 207.826Z" fill="white"/>
<path d="M190.885 205.014C194.283 205.516 197.648 207.859 201.209 208.244C205.603 208.73 210.749 208.244 214.441 205.583C215.622 204.487 216.866 203.464 218.165 202.519C219.592 201.84 221.195 201.649 222.736 201.974C224.278 202.3 225.676 203.125 226.725 204.327C228.786 206.814 229.812 210.029 229.584 213.283C229.605 215.281 229.174 217.257 228.323 219.055C227.473 220.853 226.227 222.425 224.683 223.645C220.436 226.625 214.702 225.52 209.785 224.013C201.977 221.62 194.234 218.406 188.075 212.948C187.004 212.112 186.142 211.028 185.559 209.784C185.278 209.155 185.182 208.456 185.284 207.772C185.385 207.088 185.68 206.449 186.131 205.934C186.961 205.27 187.986 204.916 189.039 204.93C189.655 204.896 190.274 204.924 190.885 205.014Z" fill="white"/>
<path d="M261.519 161.774C268.282 169.474 277.577 174.379 287.019 178.079C296.004 181.611 310.118 186.75 319.69 182.615C322.631 181.343 325.097 178.28 324.673 175.049C324.248 171.818 321.536 169.793 318.857 168.353C309.366 163.113 298.421 161.021 288.8 156.066C286.954 155.112 284.438 154.258 283.033 155.815C281.628 157.371 282.527 159.698 283.964 161.021C286.273 163.136 288.85 164.921 291.626 166.327C295.236 168.001 302.407 168.604 305.233 171.349C308.059 174.095 305.625 176.07 302.228 175.551C292.704 174.078 283.18 171.366 275.143 165.926C268.447 161.557 263.294 155.103 260.441 147.512C259.421 144.738 258.629 141.883 258.073 138.974C257.779 137.3 258.399 132.596 256.913 131.408C252.225 127.624 252.715 142.456 253.025 144.331C254.202 150.847 257.146 156.892 261.519 161.774Z" fill="white"/>
<path d="M245.021 87.4819C243.635 85.6047 241.81 84.116 239.714 83.1533C237.618 82.1906 235.32 81.7852 233.03 81.9744C228.437 82.4048 224.077 84.2422 220.517 87.2475C217.308 84.5332 213.575 82.5441 209.564 81.4104C205.552 80.2767 201.353 80.024 197.239 80.6687C191.097 81.5727 184.726 84.4017 180.904 89.7251C180.201 90.7295 179.662 92.2863 180.61 93.0731C181.031 93.3563 181.527 93.5021 182.031 93.4916C188.418 93.7929 194.822 90.8132 201.47 90.9471C208.415 90.9016 215.243 92.7752 221.236 96.3708C225.059 98.7981 228.407 102.113 232.671 103.72C234.771 104.53 237.069 104.632 239.229 104.009C241.389 103.386 243.298 102.072 244.677 100.258C246.057 98.4448 246.834 96.2266 246.896 93.9279C246.958 91.6293 246.301 89.3706 245.021 87.4819Z" fill="white"/>
<path d="M152.186 105.293C147.947 110.674 145.574 117.346 145.439 124.26C145.325 131.759 148.429 137.953 156.58 138.003C157.366 138.048 158.15 137.899 158.867 137.568C161.089 136.363 160.925 133.132 160.697 130.571C160.045 122.91 161.759 115.233 165.597 108.625C166.676 106.766 167.982 104.674 167.378 102.598C167.063 101.769 166.529 101.046 165.837 100.508C165.145 99.9701 164.322 99.6391 163.457 99.5515C158.851 98.8485 154.963 101.778 152.186 105.293Z" fill="white"/>
<path d="M273.461 265.277C274.119 259.45 273.76 253.549 272.399 247.851C270.513 239.422 265.721 231.974 258.906 226.876C255.426 224.331 248.516 220.18 244.335 223.193C240.153 226.206 241.329 232.032 243.844 235.547C246.36 239.063 250.166 241.49 252.96 244.838C256.372 249.212 258.421 254.538 258.84 260.121C259.347 265.043 257.713 269.245 257.877 273.898C257.866 274.705 258.042 275.502 258.388 276.226C258.734 276.95 259.242 277.581 259.87 278.067C260.733 278.605 261.734 278.868 262.745 278.82C264.453 278.667 266.096 278.077 267.524 277.102C268.951 276.128 270.116 274.802 270.912 273.246C272.251 270.781 273.116 268.076 273.461 265.277Z" fill="white"/>
<path d="M194.675 238.912L217.691 246.746C222.093 248.049 226.331 249.875 230.319 252.187C234.328 254.539 237.404 258.26 239.009 262.699C239.695 264.859 240.202 267.554 242.276 268.307C243.26 268.527 244.289 268.348 245.148 267.808C246.006 267.268 246.628 266.41 246.883 265.411C247.306 263.382 247.034 261.266 246.115 259.418C242.113 249.575 232.867 242.946 223.245 238.828C213.624 234.71 203.349 232.517 193.743 228.399C184.134 224.269 175.388 218.285 167.982 210.772C164.536 207.273 160.762 206.637 161.121 212.68C162.134 228.734 182.505 234.777 194.675 238.912Z" fill="white"/>
<path d="M329.557 213.768C327.09 210.521 323.839 212.982 323.709 217.518C323.578 222.055 326.894 226.256 330.602 228.952C334.31 231.647 338.623 233.488 342.037 236.535C343.789 238.007 345.357 239.694 346.709 241.557C348.343 244.034 349.274 251.969 353.733 247.516C356.919 244.352 355.253 237.004 353.113 233.89C350.466 230.056 346.35 227.646 342.364 225.336C338.133 222.875 332.563 219.694 330.292 215.141C330.08 214.666 329.834 214.207 329.557 213.768Z" fill="white"/>
<path d="M343.965 271.907C341.563 271.023 339.363 269.644 337.5 267.857C335.638 266.069 334.152 263.909 333.134 261.511C332.84 260.758 332.285 259.837 331.501 260.021C330.717 260.205 330.798 261.21 330.913 261.929C331.337 264.692 331.386 267.722 332.759 270.166C334.317 272.721 336.289 274.986 338.59 276.862C340.468 278.353 342.002 280.251 343.083 282.419C344.063 284.696 343.916 287.291 345.353 289.417C346.116 290.513 347.171 291.362 348.392 291.861C350.574 292.691 352.986 292.621 355.119 291.666C357.252 290.71 358.939 288.944 359.827 286.738C363.78 275.991 351.528 274.819 343.965 271.907Z" fill="white"/>
<path d="M154.571 150.977C152.903 150.909 151.238 151.177 149.67 151.764C148.888 152.057 148.184 152.537 147.616 153.162C147.048 153.787 146.633 154.541 146.403 155.363C146.276 156.585 146.522 157.818 147.107 158.891C147.692 159.965 148.588 160.826 149.67 161.356C151.87 162.356 154.179 163.081 156.548 163.515C160.301 164.546 163.784 166.422 166.741 169.006C168.031 170.127 169.649 171.483 171.217 170.797C171.789 170.43 172.252 169.911 172.557 169.294C172.862 168.678 172.998 167.988 172.948 167.298C173.1 164.755 172.533 162.221 171.315 160C167.835 153.638 161.301 150.943 154.571 150.977Z" fill="white"/>
</g>
<path d="M275.682 73.2696C279.309 78.2916 282.364 83.7823 286.938 87.8669C291.511 91.9514 298.242 94.3118 303.73 91.6501C305.486 90.7334 307.006 89.4053 308.167 87.7735C309.328 86.1418 310.097 84.2524 310.412 82.259C311.277 76.9356 308.778 69.4529 304.368 66.4062C301.451 64.4981 298.038 63.5407 294.579 63.6602C291.121 63.7798 287.778 64.9706 284.994 67.0758C284.629 67.4348 284.178 67.6889 283.687 67.8123C283.095 67.8015 282.522 67.5961 282.053 67.2264C279.145 65.385 272.611 59.208 268.985 60.5304C263.921 62.2379 274.326 71.378 275.682 73.2696Z" fill="#FF88EE"/>
<path d="M320.834 97.4756C320.715 97.6896 320.641 97.9265 320.616 98.1713C320.59 98.4161 320.614 98.6637 320.687 98.8985C320.824 99.0975 321.001 99.2635 321.207 99.3849C321.413 99.5064 321.642 99.5803 321.879 99.6015C325.016 100.372 328.217 100.79 331.337 101.661C337.266 103.337 342.655 106.594 346.954 111.102C349.922 113.87 351.828 117.634 352.329 121.715C352.557 125.783 350.025 130.186 346.121 130.889C345.5 132.931 347.395 134.806 349.143 135.911C351.947 137.764 354.917 139.339 358.013 140.615C361.444 142.021 366.067 142.724 368.207 139.644C369.84 137.35 368.991 134.002 367.128 131.943C365.106 130.039 362.687 128.631 360.055 127.825C364.809 122.569 364.646 113.78 360.513 108.005C356.38 102.23 349.078 99.4341 342.037 99.8694C340.662 100.134 339.24 99.9526 337.97 99.3504C335.405 97.6764 336.63 93.6421 336.483 91.0809C336.205 86.4941 332.84 79.547 327.499 83.1461C323.284 86.0421 322.614 93.1399 320.834 97.4756Z" fill="#FF88EE"/>
<path d="M317.828 108.792C317.192 108.679 316.538 108.74 315.933 108.969C315.328 109.199 314.792 109.588 314.381 110.098C313.597 111.521 314.757 113.245 316.015 114.333C317.654 115.848 319.483 117.132 321.454 118.15C325.411 120.192 329.823 121.127 334.245 120.861C334.809 120.856 335.365 120.731 335.879 120.493C339.865 118.267 335.16 111.504 332.465 110.449C328.315 108.725 322.255 108.876 317.828 108.792Z" fill="#FF88EE"/>
<path d="M354.174 164.804C353.761 164.691 353.328 164.669 352.905 164.742C352.483 164.814 352.08 164.978 351.724 165.222C351.419 165.577 351.237 166.025 351.204 166.497C351.172 166.969 351.291 167.438 351.544 167.834C352.574 169.675 354.24 171.182 355.334 173.09C356.701 175.404 357.434 178.052 357.458 180.757C357.458 182.917 357.033 185.227 358.079 187.102C358.65 188.106 359.598 188.859 360.104 189.88C360.415 190.5 360.562 191.203 360.872 191.822C361.005 192.143 361.219 192.422 361.492 192.631C361.764 192.84 362.086 192.971 362.424 193.011C363.502 193.011 364.057 191.739 364.351 190.667C365.348 186.784 365.266 182.297 366.965 178.681C368.876 174.58 372.454 173.408 376.211 171.985C380.556 170.228 385.245 169.943 389.753 168.822C390.372 168.687 390.964 168.444 391.501 168.102C391.769 167.92 391.987 167.67 392.133 167.377C392.279 167.084 392.348 166.757 392.334 166.428C392.073 164.201 387.711 164.754 386.355 164.921C375.68 166.489 364.839 166.45 354.174 164.804Z" fill="#FF88EE"/>
<path d="M376.293 192.91C376.293 186.583 384.804 182.147 390.129 182.113C394.223 182.223 398.197 183.555 401.564 185.947C405.844 188.826 407.428 195.991 406.317 200.879C406.036 202.396 405.313 203.791 404.243 204.879C403.701 205.411 403.019 205.767 402.281 205.904C401.543 206.041 400.783 205.952 400.094 205.649C399.26 205.117 398.552 204.402 398.019 203.557C396.034 201.051 393.55 199.008 390.733 197.565C387.916 196.122 384.831 195.311 381.683 195.187C379.576 195.07 376.93 194.919 376.293 192.91Z" fill="#FF88EE"/>
<path d="M386.437 207.809C383.291 206.482 379.87 205.987 376.489 206.369C375.183 206.432 373.928 206.905 372.895 207.725C372.388 208.146 372.047 208.74 371.933 209.398C371.819 210.056 371.94 210.734 372.274 211.308C372.677 211.8 373.186 212.19 373.761 212.446C376.512 213.974 379.149 215.709 381.651 217.635C382.602 218.253 383.375 219.12 383.889 220.146C384.107 221.258 384.413 222.35 384.803 223.411C385.278 223.972 385.865 224.423 386.525 224.732C387.184 225.041 387.901 225.201 388.626 225.202C389.589 225.427 390.594 225.381 391.534 225.068C392.1 224.72 392.584 224.246 392.949 223.681C393.313 223.116 393.55 222.474 393.641 221.804C394.041 220.025 394.042 218.176 393.645 216.397C393.248 214.618 392.463 212.953 391.348 211.529C390.234 210.106 388.819 208.959 387.21 208.175C385.601 207.392 383.84 206.992 382.059 207.005" fill="#FF88EE"/>
<path d="M313.907 127.591C313.636 127.495 313.347 127.466 313.063 127.507C312.779 127.547 312.509 127.657 312.274 127.825C312.1 128.046 312.005 128.32 312.005 128.604C312.005 128.887 312.1 129.162 312.274 129.382C312.654 129.804 313.123 130.13 313.646 130.336C317.474 131.931 321.122 133.946 324.526 136.346C326.219 137.566 327.66 139.117 328.768 140.91C329.875 142.702 330.626 144.701 330.978 146.792C331.092 147.846 331.158 149.085 332.023 149.654C332.491 149.889 333.028 149.935 333.527 149.783C334.027 149.631 334.452 149.292 334.719 148.834C335.24 147.907 335.516 146.857 335.519 145.787C335.944 140.916 337.153 133.416 331.55 131.173C329.45 130.618 327.308 130.249 325.146 130.068C321.422 129.282 317.697 128.294 313.907 127.591Z" fill="#FF88EE"/>
<path d="M224.03 66.0378C222.706 66.9083 221.236 68.0801 221.285 69.6871C221.395 70.3865 221.718 71.0322 222.208 71.5316C222.698 72.0309 223.33 72.358 224.013 72.466C225.396 72.6185 226.794 72.4934 228.13 72.0977C237.294 70.1224 247.928 70.9928 254.397 77.9399C255.493 79.3535 256.749 80.629 258.138 81.7399C262.189 84.4183 267.531 83.9496 271.991 85.0879C272.059 84.1358 271.83 83.1862 271.337 82.376C263.022 66.0378 240.071 55.5418 224.03 66.0378Z" fill="#FF88EE"/>
<path d="M391.338 236.736C390.341 236.92 389.181 237.372 388.953 238.41C388.724 239.447 389.475 240.218 390.129 240.904L393.167 244.034C393.901 244.73 394.554 245.511 395.111 246.361C396.434 248.571 396.418 251.383 396.941 253.861C397.104 254.631 397.496 255.535 398.264 255.618C398.481 255.609 398.694 255.555 398.89 255.46C399.086 255.365 399.262 255.231 399.407 255.066C401.825 252.856 402.07 249.14 402.054 245.809C402.119 238.577 398.264 235.43 391.338 236.736Z" fill="#FF88EE"/>
<path d="M240.3 176.739C240.303 177.426 240.107 178.097 239.738 178.669C239.368 179.241 238.841 179.688 238.224 179.953C237.606 180.218 236.926 180.289 236.269 180.157C235.612 180.025 235.008 179.696 234.533 179.212C234.058 178.728 233.735 178.111 233.603 177.438C233.471 176.766 233.537 176.068 233.793 175.434C234.048 174.8 234.481 174.258 235.038 173.876C235.594 173.495 236.249 173.291 236.918 173.291C237.812 173.291 238.67 173.654 239.304 174.3C239.937 174.946 240.295 175.823 240.3 176.739Z" fill="#FAFAFA"/>
<path d="M216.924 110.583C216.927 111.27 216.731 111.942 216.36 112.514C215.99 113.087 215.462 113.534 214.844 113.798C214.225 114.062 213.544 114.132 212.886 113.999C212.229 113.866 211.625 113.536 211.151 113.05C210.677 112.564 210.355 111.945 210.225 111.272C210.095 110.598 210.163 109.9 210.421 109.266C210.679 108.632 211.115 108.091 211.674 107.712C212.232 107.332 212.888 107.131 213.558 107.135C214.45 107.139 215.303 107.504 215.933 108.149C216.563 108.795 216.919 109.67 216.924 110.583Z" fill="#FAFAFA"/>
<path d="M189.235 147.512C189.235 148.198 189.036 148.868 188.664 149.438C188.292 150.009 187.763 150.453 187.144 150.715C186.525 150.976 185.844 151.044 185.188 150.909C184.531 150.774 183.929 150.442 183.457 149.956C182.984 149.47 182.664 148.851 182.535 148.177C182.406 147.504 182.476 146.807 182.734 146.174C182.993 145.541 183.428 145.001 183.987 144.622C184.545 144.244 185.2 144.043 185.87 144.046C186.313 144.046 186.752 144.136 187.161 144.311C187.571 144.485 187.942 144.74 188.255 145.062C188.568 145.384 188.815 145.766 188.983 146.187C189.152 146.607 189.237 147.057 189.235 147.512Z" fill="#FAFAFA"/>
<path d="M156.499 166.21C156.499 166.896 156.3 167.567 155.928 168.137C155.555 168.707 155.026 169.151 154.407 169.413C153.788 169.675 153.108 169.742 152.451 169.607C151.795 169.472 151.192 169.141 150.72 168.654C150.248 168.168 149.927 167.549 149.799 166.876C149.67 166.203 149.739 165.505 149.998 164.872C150.256 164.24 150.692 163.699 151.25 163.321C151.809 162.942 152.464 162.742 153.133 162.745C153.577 162.745 154.016 162.835 154.425 163.009C154.834 163.183 155.206 163.439 155.519 163.761C155.831 164.083 156.079 164.465 156.247 164.885C156.415 165.306 156.501 165.756 156.499 166.21Z" fill="#FAFAFA"/>
<path d="M227.019 198.753C227.019 199.435 226.822 200.101 226.452 200.669C226.082 201.236 225.556 201.678 224.942 201.939C224.327 202.2 223.65 202.268 222.997 202.135C222.345 202.002 221.745 201.673 221.274 201.191C220.804 200.709 220.483 200.094 220.353 199.425C220.224 198.756 220.29 198.063 220.545 197.433C220.8 196.803 221.231 196.264 221.784 195.885C222.338 195.506 222.988 195.304 223.654 195.304C224.545 195.309 225.398 195.673 226.029 196.319C226.659 196.965 227.015 197.839 227.019 198.753Z" fill="#FAFAFA"/>
<path d="M175.954 206.286C175.957 206.972 175.761 207.645 175.391 208.217C175.021 208.789 174.493 209.236 173.874 209.501C173.256 209.765 172.574 209.835 171.917 209.702C171.26 209.569 170.656 209.238 170.182 208.753C169.708 208.267 169.385 207.648 169.255 206.974C169.125 206.301 169.194 205.602 169.452 204.969C169.71 204.335 170.146 203.794 170.704 203.414C171.263 203.035 171.919 202.834 172.589 202.837C173.48 202.842 174.334 203.206 174.964 203.852C175.594 204.498 175.95 205.372 175.954 206.286Z" fill="#FAFAFA"/>
<path d="M304.449 208.646C304.446 209.327 304.246 209.992 303.874 210.557C303.502 211.122 302.976 211.561 302.361 211.82C301.745 212.078 301.069 212.144 300.418 212.009C299.766 211.874 299.168 211.545 298.699 211.062C298.23 210.579 297.911 209.964 297.782 209.296C297.654 208.627 297.722 207.935 297.977 207.306C298.232 206.676 298.663 206.139 299.216 205.761C299.769 205.383 300.419 205.181 301.084 205.181C301.527 205.181 301.966 205.27 302.376 205.445C302.785 205.619 303.157 205.875 303.469 206.197C303.782 206.519 304.03 206.901 304.198 207.321C304.366 207.741 304.451 208.192 304.449 208.646Z" fill="#FAFAFA"/>
<path d="M280.109 276.276C280.109 276.962 279.911 277.632 279.538 278.202C279.166 278.773 278.637 279.217 278.018 279.479C277.399 279.74 276.718 279.808 276.062 279.673C275.406 279.538 274.803 279.206 274.331 278.72C273.859 278.234 273.538 277.614 273.409 276.941C273.281 276.268 273.35 275.571 273.608 274.938C273.867 274.305 274.303 273.765 274.861 273.386C275.419 273.007 276.075 272.807 276.744 272.81C277.187 272.81 277.626 272.9 278.036 273.074C278.445 273.249 278.817 273.504 279.129 273.826C279.442 274.148 279.69 274.53 279.858 274.951C280.026 275.371 280.111 275.821 280.109 276.276Z" fill="#FAFAFA"/>
<path d="M309.35 173.492C309.35 174.174 309.152 174.841 308.783 175.408C308.413 175.975 307.887 176.417 307.272 176.678C306.658 176.939 305.981 177.007 305.328 176.874C304.675 176.741 304.076 176.413 303.605 175.93C303.135 175.448 302.814 174.834 302.684 174.165C302.554 173.496 302.621 172.802 302.876 172.172C303.13 171.542 303.562 171.004 304.115 170.625C304.669 170.246 305.319 170.043 305.985 170.043C306.877 170.043 307.733 170.407 308.364 171.053C308.995 171.7 309.35 172.577 309.35 173.492Z" fill="#FAFAFA"/>
<path d="M309.121 103.686C309.124 104.373 308.928 105.045 308.558 105.618C308.188 106.19 307.66 106.637 307.041 106.901C306.423 107.166 305.742 107.236 305.084 107.102C304.427 106.969 303.823 106.639 303.349 106.153C302.875 105.668 302.552 105.049 302.422 104.375C302.293 103.701 302.361 103.003 302.619 102.369C302.877 101.735 303.313 101.194 303.871 100.815C304.43 100.435 305.086 100.235 305.756 100.238C306.647 100.242 307.501 100.607 308.131 101.253C308.761 101.898 309.117 102.773 309.121 103.686Z" fill="#F0F0F0"/>
<path d="M370.722 149.905C370.722 150.591 370.524 151.262 370.151 151.832C369.779 152.402 369.25 152.847 368.631 153.108C368.012 153.37 367.331 153.438 366.675 153.303C366.019 153.168 365.416 152.836 364.944 152.35C364.472 151.863 364.151 151.244 364.022 150.571C363.894 149.898 363.963 149.201 364.221 148.568C364.48 147.935 364.916 147.395 365.474 147.016C366.032 146.637 366.688 146.437 367.357 146.44C367.8 146.44 368.239 146.53 368.649 146.704C369.058 146.879 369.43 147.134 369.742 147.456C370.055 147.778 370.303 148.16 370.471 148.581C370.639 149.001 370.724 149.451 370.722 149.905Z" fill="#F0F0F0"/>
<path d="M379.903 200.828C379.903 201.514 379.704 202.185 379.332 202.755C378.96 203.325 378.43 203.769 377.812 204.031C377.193 204.293 376.512 204.361 375.856 204.226C375.199 204.091 374.597 203.759 374.125 203.273C373.652 202.786 373.332 202.167 373.203 201.494C373.074 200.821 373.144 200.123 373.402 199.491C373.661 198.858 374.096 198.318 374.655 197.939C375.213 197.56 375.868 197.36 376.538 197.363C376.981 197.363 377.42 197.453 377.829 197.627C378.239 197.802 378.61 198.057 378.923 198.379C379.236 198.701 379.483 199.083 379.651 199.503C379.82 199.924 379.905 200.374 379.903 200.828Z" fill="#F0F0F0"/>
<path d="M268.544 66.8248C268.544 67.5101 268.345 68.1801 267.974 68.75C267.602 69.3198 267.074 69.7639 266.456 70.0262C265.838 70.2885 265.159 70.3571 264.503 70.2234C263.847 70.0897 263.244 69.7597 262.771 69.2751C262.298 68.7904 261.976 68.173 261.846 67.5008C261.715 66.8286 261.782 66.1319 262.038 65.4987C262.294 64.8656 262.728 64.3244 263.284 63.9436C263.84 63.5629 264.493 63.3596 265.162 63.3596C266.059 63.3596 266.919 63.7247 267.553 64.3746C268.187 65.0244 268.544 65.9058 268.544 66.8248Z" fill="#F0F0F0"/>
<path d="M270.945 119.087C270.945 119.769 270.748 120.436 270.378 121.003C270.008 121.57 269.483 122.012 268.868 122.273C268.253 122.534 267.576 122.602 266.923 122.469C266.271 122.336 265.671 122.008 265.2 121.525C264.73 121.043 264.409 120.429 264.28 119.76C264.15 119.091 264.216 118.397 264.471 117.767C264.726 117.137 265.157 116.599 265.71 116.22C266.264 115.841 266.914 115.638 267.58 115.638C268.471 115.643 269.325 116.008 269.955 116.653C270.585 117.299 270.941 118.174 270.945 119.087Z" fill="#FAFAFA"/>
<path d="M272.023 231.228C273.882 231.228 275.388 229.684 275.388 227.78C275.388 225.875 273.882 224.331 272.023 224.331C270.165 224.331 268.658 225.875 268.658 227.78C268.658 229.684 270.165 231.228 272.023 231.228Z" fill="#FAFAFA"/>
<path d="M344.242 242.612C344.242 243.294 344.045 243.96 343.675 244.527C343.306 245.094 342.78 245.536 342.165 245.797C341.55 246.058 340.874 246.127 340.221 245.994C339.568 245.861 338.968 245.532 338.498 245.05C338.027 244.568 337.707 243.953 337.577 243.284C337.447 242.615 337.514 241.922 337.768 241.292C338.023 240.662 338.454 240.123 339.008 239.744C339.561 239.365 340.212 239.163 340.877 239.163C341.77 239.163 342.626 239.526 343.257 240.173C343.888 240.82 344.242 241.697 344.242 242.612Z" fill="#FAFAFA"/>
<path d="M184.318 238.929C184.311 239.612 184.108 240.279 183.732 240.845C183.357 241.41 182.826 241.849 182.208 242.106C181.59 242.363 180.911 242.427 180.257 242.29C179.603 242.152 179.004 241.819 178.534 241.334C178.064 240.848 177.746 240.23 177.618 239.559C177.49 238.888 177.559 238.193 177.816 237.561C178.072 236.93 178.506 236.391 179.061 236.012C179.617 235.632 180.269 235.43 180.936 235.43C181.383 235.43 181.826 235.521 182.238 235.697C182.65 235.873 183.025 236.131 183.339 236.457C183.654 236.782 183.902 237.168 184.07 237.592C184.238 238.017 184.322 238.471 184.318 238.929Z" fill="#FAFAFA"/>
<path d="M240.3 263.888C240.303 264.574 240.107 265.246 239.738 265.818C239.368 266.39 238.841 266.836 238.224 267.101C237.606 267.366 236.926 267.437 236.269 267.305C235.612 267.173 235.008 266.845 234.533 266.361C234.058 265.877 233.735 265.259 233.603 264.587C233.471 263.914 233.537 263.217 233.793 262.582C234.048 261.948 234.481 261.406 235.038 261.025C235.594 260.643 236.249 260.439 236.918 260.439C237.812 260.439 238.67 260.802 239.304 261.448C239.937 262.095 240.295 262.972 240.3 263.888Z" fill="#FAFAFA"/>
<path d="M331.435 275.355C331.435 276.04 331.237 276.71 330.866 277.28C330.494 277.85 329.966 278.294 329.348 278.556C328.73 278.819 328.05 278.887 327.394 278.753C326.738 278.62 326.136 278.29 325.663 277.805C325.19 277.32 324.868 276.703 324.738 276.031C324.607 275.359 324.674 274.662 324.93 274.029C325.186 273.396 325.619 272.854 326.175 272.474C326.731 272.093 327.385 271.89 328.054 271.89C328.951 271.89 329.811 272.255 330.445 272.905C331.079 273.554 331.435 274.436 331.435 275.355Z" fill="#FAFAFA"/>
</g>
<defs>
<clipPath id="clip0_51_129">
<rect width="525" height="525" fill="white"/>
</clipPath>
</defs>
</svg>
