<svg width="33" height="33" viewBox="0 0 33 33" fill="none" xmlns="http://www.w3.org/2000/svg">
<path d="M0.412624 10.5963L16.0875 19.6592C16.2128 19.7322 16.3551 19.7706 16.5 19.7706C16.6449 19.7706 16.7872 19.7322 16.9125 19.6592L32.5874 10.5963C32.7128 10.5237 32.8168 10.4193 32.8892 10.2938C33.1172 9.89822 32.982 9.39235 32.5874 9.16384L16.9125 0.109007C16.6566 -0.0363356 16.3434 -0.0363356 16.0875 0.109007L0.412624 9.16384C0.287243 9.23641 0.183213 9.34077 0.110804 9.46633C-0.117197 9.86189 0.0179523 10.3678 0.412624 10.5963ZM16.5 1.78044L30.5233 9.88086L16.5 17.9894L2.47672 9.88086L16.5 1.78044ZM31.7591 22.2947L16.5 31.2155L1.24074 22.2947C0.847377 22.0646 0.342431 22.1976 0.112819 22.5919C-0.116794 22.9861 0.0159382 23.4922 0.409301 23.7223L16.0842 32.887C16.2103 32.9611 16.3538 33.0002 16.5 33C16.6461 33.0002 16.7896 32.9611 16.9156 32.887L32.5905 23.7223C32.9839 23.4922 33.1166 22.9861 32.887 22.5919C32.6574 22.1976 32.1524 22.0646 31.7591 22.2947ZM31.7591 15.68L16.5 24.6008L1.24074 15.68C0.847377 15.4499 0.342431 15.5829 0.112819 15.9772C-0.116794 16.3714 0.0159382 16.8775 0.409301 17.1076L16.0842 26.2723C16.2103 26.3464 16.3538 26.3855 16.5 26.3853C16.6461 26.3855 16.7896 26.3464 16.9156 26.2723L32.5905 17.1076C32.9839 16.8775 33.1166 16.3714 32.887 15.9772C32.6574 15.5829 32.1524 15.4499 31.7591 15.68Z" fill="black"/>
</svg>
