<svg width="30" height="30" viewBox="0 0 30 30" fill="none" xmlns="http://www.w3.org/2000/svg">
<path d="M11.3836 6.81C12.1311 4.6225 15.1536 4.55625 16.0399 6.61125L16.1149 6.81125L17.1236 9.76125C17.3548 10.4378 17.7284 11.0569 18.2192 11.5768C18.71 12.0967 19.3065 12.5053 19.9686 12.775L20.2399 12.8762L23.1899 13.8838C25.3774 14.6313 25.4436 17.6537 23.3899 18.54L23.1899 18.615L20.2399 19.6238C19.5631 19.8548 18.9438 20.2283 18.4237 20.7191C17.9035 21.2099 17.4948 21.8065 17.2249 22.4688L17.1236 22.7388L16.1161 25.69C15.3686 27.8775 12.3461 27.9438 11.4611 25.89L11.3836 25.69L10.3761 22.74C10.1451 22.0632 9.7716 21.4439 9.28081 20.9238C8.79002 20.4037 8.19338 19.9949 7.53114 19.725L7.26114 19.6238L4.31114 18.6162C2.12239 17.8687 2.05614 14.8462 4.11114 13.9612L4.31114 13.8838L7.26114 12.8762C7.93768 12.6451 8.55678 12.2715 9.07667 11.7807C9.59656 11.2899 10.0052 10.6934 10.2749 10.0312L10.3761 9.76125L11.3836 6.81ZM13.7499 7.6175L12.7424 10.5675C12.3904 11.5991 11.8177 12.5416 11.0643 13.3294C10.3109 14.1171 9.39482 14.7312 8.37989 15.1287L8.06739 15.2425L5.11739 16.25L8.06739 17.2575C9.09902 17.6095 10.0415 18.1822 10.8293 18.9356C11.617 19.689 12.231 20.6051 12.6286 21.62L12.7424 21.9325L13.7499 24.8825L14.7574 21.9325C15.1094 20.9009 15.6821 19.9584 16.4355 19.1706C17.1889 18.3829 18.105 17.7688 19.1199 17.3713L19.4324 17.2587L22.3824 16.25L19.4324 15.2425C18.4008 14.8905 17.4583 14.3178 16.6705 13.5644C15.8828 12.811 15.2687 11.8949 14.8711 10.88L14.7586 10.5675L13.7499 7.6175ZM23.7499 2.5C23.9837 2.5 24.2129 2.5656 24.4113 2.68934C24.6098 2.81308 24.7695 2.99 24.8724 3.2L24.9324 3.34625L25.3699 4.62875L26.6536 5.06625C26.888 5.14587 27.0934 5.29327 27.2439 5.48977C27.3944 5.68627 27.4832 5.92302 27.499 6.17003C27.5148 6.41703 27.4569 6.66316 27.3327 6.87723C27.2084 7.0913 27.0234 7.26367 26.8011 7.3725L26.6536 7.4325L25.3711 7.87L24.9336 9.15375C24.8539 9.38804 24.7064 9.59337 24.5098 9.74374C24.3132 9.89411 24.0764 9.98274 23.8294 9.9984C23.5824 10.0141 23.3364 9.95606 23.1224 9.83172C22.9084 9.70739 22.7361 9.52233 22.6274 9.3L22.5674 9.15375L22.1299 7.87125L20.8461 7.43375C20.6118 7.35413 20.4063 7.20673 20.2559 7.01023C20.1054 6.81373 20.0166 6.57698 20.0008 6.32997C19.985 6.08297 20.0429 5.83684 20.1671 5.62277C20.2913 5.4087 20.4763 5.23633 20.6986 5.1275L20.8461 5.0675L22.1286 4.63L22.5661 3.34625C22.6504 3.09928 22.8099 2.88489 23.0222 2.73312C23.2345 2.58136 23.4889 2.49984 23.7499 2.5Z" fill="#193D65"/>
</svg>
